<svg width="80" height="40" viewBox="0 0 80 40" fill="none" xmlns="http://www.w3.org/2000/svg">
<mask id="mask0" mask-type="alpha" maskUnits="userSpaceOnUse" x="0" y="0" width="80" height="40">
<rect x="80" y="1.90735e-06" width="40" height="80" transform="rotate(90 80 1.90735e-06)" fill="#C4C4C4"/>
</mask>
<g mask="url(#mask0)">
<path fill-rule="evenodd" clip-rule="evenodd" d="M80 40L80 1.90735e-06L60 1.03312e-06C60 11.0457 51.0457 20 40 20C28.9543 20 20 11.0457 20 -7.15335e-07L-20 -2.46379e-06C-20 11.0457 -28.9543 20 -40 20C-51.0457 20 -60 11.0457 -60 -4.21225e-06L-100 -5.9607e-06C-100 11.0457 -108.954 20 -120 20C-131.046 20 -140 11.0457 -140 -7.70916e-06L-180 -9.45761e-06C-180 11.0457 -188.954 20 -200 20C-211.046 20 -220 11.0457 -220 -1.12061e-05L-260 -1.29545e-05C-260 11.0457 -268.954 20 -280 20C-291.046 20 -300 11.0457 -300 -1.4703e-05L-320 -1.55772e-05L-320 40L80 40Z" fill="#F0F3F8"/>
</g>
</svg>
