<svg width="233" height="300" viewBox="0 0 233 300" fill="none" xmlns="http://www.w3.org/2000/svg">
<g clip-path="url(#clip0)">
<path d="M20.7116 185.712L16.4268 173.949C16.4268 173.949 33.7325 152.328 58.7599 139.93C83.7873 127.517 113.705 123.995 139.898 132.507C166.092 141.019 184.139 155.715 180.066 162.307C175.994 168.899 129.436 208.8 129.436 208.8L40.5306 207.046L20.7116 185.712Z" fill="#B3EDEE"/>
<path d="M82.9699 132.008C83.3636 144.542 83.7572 157.091 84.1509 169.625C84.2115 171.379 84.2569 173.148 84.3174 174.902C84.4234 178.228 89.6015 178.243 89.5107 174.902C89.117 162.368 88.7234 149.819 88.3297 137.285C88.2692 135.531 88.2237 133.762 88.1632 132.008C88.0572 128.682 82.8791 128.666 82.9699 132.008Z" fill="white" stroke="#020106" stroke-miterlimit="10"/>
<path d="M126.771 132.008C127.165 144.542 127.558 157.091 127.952 169.625C128.013 171.379 128.058 173.148 128.119 174.902C128.225 178.228 133.403 178.243 133.312 174.902C132.918 162.368 132.525 149.819 132.131 137.285C132.07 135.531 132.025 133.762 131.964 132.008C131.843 128.682 126.665 128.666 126.771 132.008Z" fill="white" stroke="#020106" stroke-miterlimit="10"/>
<path d="M162.958 257.62L154.509 226.353C154.509 226.353 135.75 204.264 137.37 165.891H80.29C80.29 165.891 77.0196 215.558 61.2431 228.152L55.8984 258.709L162.958 257.62Z" fill="white" stroke="#020106" stroke-miterlimit="10"/>
<path d="M121.093 121.228C115.052 119.141 109.087 119.368 105.272 121.424C101.456 119.353 95.4907 119.126 89.4496 121.228C80.5318 124.312 74.854 131.252 76.7466 136.725C78.6392 142.198 87.4056 144.149 96.3234 141.064C99.942 139.81 103 137.92 105.272 135.757C107.527 137.92 110.601 139.81 114.22 141.064C123.137 144.149 131.904 142.198 133.796 136.725C135.689 131.252 130.011 124.312 121.093 121.228Z" fill="white" stroke="#020106" stroke-miterlimit="10"/>
<path d="M159.597 109.208C159.597 66.8128 135.447 32.4463 105.651 32.4463C75.8539 32.4463 51.6895 66.8128 51.6895 109.208C51.6895 111.203 51.7652 113.169 51.8711 115.135H159.43C159.521 113.169 159.597 111.203 159.597 109.208Z" fill="#020106"/>
<path d="M103.864 31.2368C112.502 31.2368 119.504 24.2442 119.504 15.6184C119.504 6.99259 112.502 0 103.864 0C95.226 0 88.2236 6.99259 88.2236 15.6184C88.2236 24.2442 95.226 31.2368 103.864 31.2368Z" fill="#020106"/>
<path d="M115.174 124.161C115.068 128.576 111.359 132.114 106.938 132.008L103.501 131.932C99.0799 131.826 95.537 128.122 95.6429 123.707L96.0366 107.167C96.1426 102.752 99.852 99.2137 104.273 99.3196L107.71 99.3952C112.131 99.501 115.674 103.205 115.568 107.62L115.174 124.161Z" fill="#FFFEFD" stroke="#020106" stroke-miterlimit="10"/>
<path d="M145.197 79.9667C144.955 84.2455 141.261 87.4962 136.946 87.2543C132.631 87.0124 129.33 83.3383 129.587 79.0747C129.845 74.811 133.524 71.5452 137.839 71.7871C142.139 72.029 145.44 75.703 145.197 79.9667Z" fill="#FFFEFD" stroke="#020106" stroke-miterlimit="10"/>
<path d="M133.827 80.2994C133.827 80.1331 133.842 79.9819 133.857 79.8156C133.857 79.7702 133.872 79.74 133.872 79.6946C133.857 79.9668 133.857 79.8156 133.872 79.74C133.887 79.6492 133.902 79.5434 133.933 79.4527C133.978 79.241 134.038 79.0293 134.099 78.8177C134.129 78.7118 134.175 78.606 134.22 78.5002C134.296 78.3187 134.144 78.6514 134.235 78.4699C134.266 78.4095 134.296 78.349 134.326 78.2885C134.387 78.1827 134.447 78.0768 134.508 77.971C134.538 77.9105 134.584 77.8651 134.614 77.8047C134.644 77.7744 134.78 77.593 134.705 77.6837C134.629 77.7896 134.75 77.6232 134.78 77.593C134.826 77.5476 134.871 77.4872 134.917 77.4418C134.962 77.3964 135.023 77.336 135.068 77.2906C135.083 77.2755 135.113 77.2453 135.129 77.2301C135.144 77.215 135.295 77.0941 135.189 77.1697C135.098 77.2453 135.265 77.1243 135.295 77.0941C135.356 77.0487 135.416 77.0185 135.492 76.9731C135.553 76.9277 135.628 76.8975 135.689 76.8673C135.719 76.8521 135.765 76.837 135.795 76.8219C135.961 76.7463 135.689 76.8521 135.825 76.8068C136.007 76.7463 136.173 76.6858 136.355 76.6405C136.446 76.6102 136.552 76.5951 136.658 76.58C136.703 76.5649 136.84 76.5649 136.658 76.58C136.718 76.58 136.779 76.5649 136.84 76.5649C137.067 76.5498 137.309 76.5498 137.536 76.5498C137.672 76.5498 137.809 76.5649 137.945 76.58C137.99 76.58 138.036 76.5951 138.081 76.5951C138.172 76.6102 138.172 76.6102 138.111 76.5951C138.157 76.5951 138.217 76.6102 138.263 76.6254C138.641 76.6858 139.035 76.5195 139.156 76.1264C139.247 75.7787 139.035 75.2948 138.656 75.2344C136.945 74.9622 135.083 75.1437 133.842 76.4742C133.085 77.2906 132.646 78.3641 132.494 79.4527C132.449 79.74 132.418 80.0272 132.418 80.2994C132.388 81.2217 133.827 81.2368 133.827 80.2994Z" fill="#020202"/>
<path d="M83.93 82.2377C84.1783 77.9697 80.881 74.3067 76.5652 74.0563C72.2494 73.806 68.5495 77.0629 68.3012 81.331C68.0529 85.599 71.3502 89.2619 75.666 89.5123C79.9817 89.7627 83.6816 86.5058 83.93 82.2377Z" fill="#FFFEFD" stroke="#020106" stroke-miterlimit="10"/>
<path d="M81.0011 83.0359C81.0768 82.3858 81.0011 81.6752 80.8649 81.0402C80.5772 79.755 79.805 78.5757 78.624 77.9558C77.6702 77.4569 76.5649 77.3057 75.5051 77.3662C75.1114 77.3813 74.7783 77.6837 74.7783 78.0919C74.7783 78.4699 75.1114 78.8328 75.5051 78.8176C75.7473 78.8025 76.0047 78.8025 76.247 78.8176C76.353 78.8176 76.4589 78.8327 76.5649 78.8327C76.6255 78.8327 76.686 78.8479 76.7466 78.8479C76.6255 78.8328 76.7163 78.8479 76.7769 78.863C76.9586 78.8932 77.1554 78.9386 77.3371 78.9839C77.4279 79.0142 77.5188 79.0444 77.6096 79.0747C77.6399 79.0898 77.6702 79.1049 77.7005 79.1049C77.7762 79.1351 77.761 79.1351 77.655 79.0898C77.6853 79.1049 77.7156 79.12 77.7459 79.1351C77.8822 79.1956 78.0184 79.2712 78.1395 79.3468C78.2001 79.3922 78.2607 79.4224 78.3212 79.4678C78.3667 79.498 78.4878 79.5585 78.3061 79.4526C78.3515 79.4678 78.3818 79.5131 78.4121 79.5434C78.5181 79.6341 78.6241 79.7399 78.7149 79.8458C78.7603 79.8911 78.8057 79.9516 78.836 79.9969C78.9269 80.1028 78.73 79.8609 78.8209 79.9667C78.836 79.9969 78.8663 80.0272 78.8814 80.0574C78.9571 80.1633 79.0328 80.2842 79.0934 80.39C79.1237 80.4505 79.154 80.511 79.1843 80.5715C79.1994 80.5866 79.1994 80.6168 79.2145 80.632C79.2297 80.6471 79.2297 80.6773 79.2448 80.6924C79.2751 80.768 79.26 80.7378 79.2145 80.6168C79.2145 80.7076 79.3054 80.8588 79.3357 80.9495C79.3811 81.0704 79.4114 81.2065 79.4416 81.3275C79.4719 81.4333 79.4871 81.5542 79.5173 81.6601C79.5325 81.7054 79.5325 81.7659 79.5476 81.8113C79.5779 81.9322 79.5325 81.6147 79.5325 81.7357C79.5325 81.7659 79.5325 81.7962 79.5476 81.8264C79.5628 82.0229 79.5779 82.2044 79.5779 82.4009C79.5779 82.5975 79.5779 82.8092 79.5476 83.0208C79.5022 83.4139 79.911 83.7466 80.2744 83.7466C80.7135 83.7617 80.9557 83.429 81.0011 83.0359Z" fill="#020202"/>
<path d="M130.375 88.0556C129.709 99.5615 119.746 108.437 108.224 107.771L101.335 107.378C89.8131 106.713 80.9256 96.7644 81.5918 85.2585L82.697 66.0266C83.3632 54.5207 93.3258 45.6456 104.848 46.3108L111.737 46.704C123.259 47.3692 132.146 57.3178 131.48 68.8237L130.375 88.0556Z" fill="white" stroke="#020106" stroke-miterlimit="10"/>
<path d="M106.982 67.6444L103.863 78.8479L109.783 78.9386L106.982 67.6444Z" fill="#F76A59"/>
<path d="M93.8859 72.1198C93.78 73.6922 92.4022 74.8866 90.8275 74.7808C89.2529 74.675 88.0568 73.2991 88.1628 71.7267C88.2688 70.1543 89.6466 68.9598 91.2212 69.0657C92.7958 69.1715 93.9919 70.5323 93.8859 72.1198Z" fill="#0C0C0C"/>
<path d="M124.242 72.1198C124.136 73.6922 122.759 74.8866 121.184 74.7808C119.609 74.675 118.413 73.2991 118.519 71.7267C118.625 70.1543 120.003 68.9598 121.578 69.0657C123.152 69.1715 124.348 70.5323 124.242 72.1198Z" fill="#0C0C0C"/>
<path d="M95.2942 83.928C94.9005 87.345 91.827 89.7944 88.4052 89.4013C84.9834 89.0082 82.5306 85.9389 82.9243 82.5219C83.3179 79.1049 86.3915 76.6556 89.8133 77.0487C93.2199 77.4267 95.6727 80.511 95.2942 83.928Z" fill="#FCD9E7"/>
<path d="M129.406 83.928C129.013 87.345 125.939 89.7944 122.517 89.4013C119.096 89.0082 116.643 85.9389 117.037 82.5219C117.43 79.1049 120.504 76.6556 123.926 77.0487C127.332 77.4267 129.785 80.511 129.406 83.928Z" fill="#FCD9E7"/>
<path d="M103.092 89.0535C103.607 90.2782 105.076 91.0946 106.257 91.5029C108.452 92.2437 111.087 92.0925 112.752 90.3236C113.237 89.8095 113.721 89.1442 113.873 88.4487C114.085 87.4509 112.555 87.0275 112.343 88.0254C112.328 88.1312 112.283 88.222 112.252 88.3127C112.328 88.0859 112.162 88.4941 112.116 88.5697C111.904 88.9477 111.783 89.0989 111.435 89.4164C110.663 90.1421 109.527 90.4143 108.422 90.3387C107.302 90.2631 105.969 89.8548 105.197 89.1745C105.061 89.0535 104.924 88.9174 104.803 88.7814C104.773 88.7511 104.607 88.5395 104.743 88.7209C104.712 88.6755 104.667 88.6151 104.637 88.5697C104.576 88.479 104.501 88.3731 104.455 88.2673C104.289 87.8742 103.713 87.7835 103.38 87.98C102.971 88.2068 102.926 88.6604 103.092 89.0535Z" fill="#0C0C0C"/>
<path d="M72.2662 67.6444C72.2662 67.6444 86.5287 69.7913 101.397 60.3417C116.265 50.892 116.976 47.6867 116.976 47.6867C116.976 47.6867 120.792 62.8818 137.371 64.681C153.95 66.4802 125.561 41.14 118.506 38.8872C111.45 36.6344 88.8149 41.14 82.8646 48.3368C76.9295 55.5337 68.8141 62.5038 72.2662 67.6444Z" fill="#020106"/>
<path d="M100.942 232.28C120.595 260.206 170.756 257 188.818 246.16C216.435 229.589 225.201 186.846 205.579 158.905L100.942 232.28Z" fill="#E3D5F8"/>
<path d="M166.294 214.132C195.187 193.872 212.774 169.148 205.575 158.911C198.376 148.674 169.118 156.8 140.225 177.061C111.332 197.322 93.7459 222.045 100.945 232.282C108.143 242.519 137.402 234.393 166.294 214.132Z" fill="#FCD9E7" stroke="#020106" stroke-miterlimit="10"/>
<path d="M100.942 232.28C120.595 260.206 170.756 257 188.818 246.16C216.435 229.589 225.201 186.846 205.579 158.905" stroke="#020106" stroke-miterlimit="10"/>
<path d="M198.644 242.077C198.432 243.423 194.556 243.922 189.984 243.196C185.411 242.471 181.899 240.777 182.111 239.431C182.323 238.086 186.199 237.587 190.771 238.313C195.328 239.038 198.856 240.732 198.644 242.077Z" fill="white" stroke="#020106" stroke-miterlimit="10"/>
<path d="M194.359 246.9C194.147 248.246 190.271 248.745 185.699 248.019C181.126 247.294 177.614 245.6 177.826 244.255C178.037 242.909 181.913 242.41 186.486 243.136C191.058 243.877 194.586 245.555 194.359 246.9Z" fill="white" stroke="#020106" stroke-miterlimit="10"/>
<path d="M185.775 250.06C185.624 251.421 181.778 252.102 177.175 251.588C172.572 251.073 168.984 249.562 169.135 248.201C169.287 246.84 173.133 246.16 177.735 246.674C182.323 247.188 185.926 248.715 185.775 250.06Z" fill="white" stroke="#020106" stroke-miterlimit="10"/>
<path d="M204.064 235.379C203.958 236.332 201.793 236.876 199.234 236.589C196.676 236.302 194.677 235.289 194.798 234.336C194.904 233.384 197.069 232.839 199.628 233.127C202.187 233.414 204.17 234.427 204.064 235.379Z" fill="white" stroke="#020106" stroke-miterlimit="10"/>
<path d="M174.041 252.661C173.935 253.614 171.77 254.158 169.211 253.871C166.652 253.583 164.654 252.57 164.775 251.618C164.881 250.665 167.046 250.121 169.605 250.408C172.148 250.695 174.147 251.693 174.041 252.661Z" fill="white" stroke="#020106" stroke-miterlimit="10"/>
<path d="M205.685 171.591C202.173 167.13 196.026 166.344 190.56 167.932C181.097 170.699 179.235 183.384 179.235 183.384C179.235 183.384 166.683 170.336 153.829 183.384C141.868 195.525 150.816 204.596 152.103 205.791C150.679 204.536 139.657 195.222 134.146 204.475C128.256 214.364 137.159 222.09 137.159 222.09C137.159 222.09 127.696 219.837 121.609 228.606C119.581 231.539 119.278 233.989 119.793 235.969C132.45 233.641 149.408 225.975 166.274 214.152C186.487 199.985 201.143 183.641 205.685 171.591Z" fill="#FDE084" stroke="#020106" stroke-miterlimit="10"/>
<path d="M189.817 194.24C190.468 193.559 191.104 192.894 191.71 192.229C188.56 189.719 182.55 186.181 176.796 185.682C173.571 185.41 170.861 186.12 168.711 187.814C168.681 187.784 168.635 187.753 168.605 187.708L166.697 189.704C166.728 189.734 166.758 189.764 166.803 189.794C161.141 197.43 167.379 210.402 168.484 212.549C169.241 211.99 169.998 211.445 170.74 210.886C169.62 208.588 166.016 200.439 167.621 194.406C168.105 199.531 171.224 206.38 172.708 209.389C173.465 208.815 174.207 208.225 174.949 207.635C172.39 202.328 170.377 196.386 170.271 193.196C174.616 197.536 178.068 201.315 179.991 203.462C180.702 202.858 181.384 202.253 182.065 201.648C180.067 199.41 176.433 195.419 171.86 190.868C172.118 190.853 172.405 190.853 172.754 190.883C176.236 191.155 182.383 193.71 186.486 197.536C187.152 196.885 187.803 196.25 188.439 195.6C184.594 192.002 179.067 189.265 174.798 188.403C175.358 188.373 175.933 188.373 176.539 188.419C181.55 188.872 187.046 192.123 189.817 194.24Z" fill="#AE89F0" stroke="#020106" stroke-width="0.5" stroke-miterlimit="10"/>
<path d="M171.103 188.827C165.547 182.083 159.99 175.34 154.434 168.612C145.576 157.877 136.719 147.127 127.862 136.393C125.833 133.928 123.804 131.464 121.775 128.999C120.882 127.911 119.413 127.487 118.172 128.304C117.082 129.014 116.597 130.829 117.475 131.902C123.032 138.645 128.589 145.389 134.145 152.117C143.003 162.852 151.86 173.601 160.717 184.336C162.746 186.801 164.775 189.265 166.804 191.73C167.697 192.818 169.165 193.242 170.407 192.425C171.497 191.715 171.982 189.9 171.103 188.827Z" fill="#AE89F0" stroke="#020106" stroke-miterlimit="10"/>
<path d="M166.289 214.137C169.332 212.005 172.239 209.813 175.025 207.605C170.377 206.789 160.142 205.927 153.843 212.292C149.982 216.193 148.922 220.925 148.877 224.902C154.57 221.848 160.429 218.249 166.289 214.137Z" fill="#FDE084" stroke="#020106" stroke-miterlimit="10"/>
<path d="M184.564 190.611C178.296 193.121 177.417 201.512 177.372 205.7C184.337 199.955 190.332 194.058 195.071 188.419C193.255 188.282 189.848 188.494 184.564 190.611Z" fill="#FDE084" stroke="#020106" stroke-miterlimit="10"/>
<path d="M50.0239 195.056C50.0239 195.056 75.6721 193.907 82.985 192.153C90.2828 190.399 95.5669 188.721 95.5669 188.721L110.723 213.759C110.723 213.759 90.1314 230.738 66.5726 238.509C66.5726 238.509 43.7557 245.54 30.6591 242.924C17.5625 240.308 6.20702 235.773 3.08805 225.431C-0.0157744 215.104 -0.772804 192.939 16.4269 173.949C33.6267 154.974 47.3441 186.105 50.0239 195.056Z" fill="#B3EDEE"/>
<path d="M98.5798 205.927L91.2668 193.529C91.2668 193.529 88.4961 191.14 92.6901 189.689C96.884 188.222 102.017 185.954 102.017 185.954C102.017 185.954 103.909 184.775 105.893 187.617C107.876 190.46 118.217 204.264 118.217 204.264C118.217 204.264 120.095 207.484 118.217 208.573C116.34 209.661 106.362 217.161 106.362 217.161C106.362 217.161 105.348 217.917 103.606 214.772C101.865 211.642 98.5798 205.927 98.5798 205.927Z" fill="white"/>
<path d="M106.923 188.796C106.923 188.796 102.638 185.894 105.651 183.913C108.664 181.932 123.169 170.971 127.786 166.949C132.404 162.942 143.472 153.236 143.472 153.236C143.472 153.236 147.833 149.229 149.104 149.365C150.391 149.486 150.21 151.875 149.104 153.387C147.999 154.899 147.439 156.577 147.439 156.577C147.439 156.577 151.86 150.877 153.571 150.907C155.282 150.922 153.919 154.067 153.026 155.64C152.133 157.212 150.967 160.78 150.967 160.78C150.967 160.78 157.477 153.236 159.052 154.067C160.626 154.899 155.342 162.7 155.342 162.7C155.342 162.7 160.051 158.316 161.732 158.558C163.412 158.799 158.749 164.923 152.027 173.48C145.304 182.038 126.015 201.754 126.015 201.754L121.972 204.853C121.972 204.853 120.05 207.257 118.626 204.853C117.173 202.464 107.907 189.915 106.923 188.796Z" fill="white"/>
<path d="M47.738 195.011C47.738 195.011 85.741 196.507 105.636 183.913C125.53 171.318 147.166 147.914 149.559 149.425C151.966 150.922 142.503 162.625 142.503 162.625C142.503 162.625 152.572 149.425 154.373 150.922C156.175 152.419 146.561 165.618 146.561 165.618C146.561 165.618 157.916 152.419 159.597 154.218C161.277 156.018 149.574 170.109 149.574 170.109C149.574 170.109 160.081 156.91 162.186 158.709C164.29 160.508 134.736 194.995 115.568 210.296C96.4 225.597 50.751 254.687 16.2153 238.797C-17.2757 223.39 4.01197 158.618 76.9443 132.008" stroke="#020106" stroke-miterlimit="10"/>
<path d="M103.606 185.122C103.606 185.122 114.175 196.129 119.686 206.879" stroke="#020106" stroke-miterlimit="10"/>
<path d="M89.5264 190.611C89.5264 190.611 101.987 211.294 105.273 217.932" stroke="#020106" stroke-miterlimit="10"/>
<path d="M133.102 130.526C133.102 130.526 168.44 139.28 180.068 156.834" stroke="#020106" stroke-miterlimit="10"/>
<path d="M0.756836 259.268L232.484 256.91" stroke="#020106" stroke-miterlimit="10"/>
<path d="M49.1007 284.729C58.742 284.729 66.5578 277.683 66.5578 268.99C66.5578 260.297 58.742 253.251 49.1007 253.251C39.4594 253.251 31.6436 260.297 31.6436 268.99C31.6436 277.683 39.4594 284.729 49.1007 284.729Z" fill="#F76A59" stroke="#020106" stroke-miterlimit="10"/>
<path d="M45.6036 258.633C45.6036 258.633 38.109 265.256 41.3036 267.66C43.8473 269.565 49.9186 262.126 49.9186 262.126C49.9186 262.126 51.4024 270.441 54.7031 268.793C58.0037 267.145 54.4911 260.599 54.4911 260.599C54.4911 260.599 62.5005 263.547 64.166 259.797C65.8163 256.048 56.9742 255.942 56.9742 255.942C56.9742 255.942 63.4089 252.691 60.7442 248.911C58.6396 245.918 49.5553 255.277 49.5553 255.277C49.5553 255.277 36.7766 247.641 35.7319 252.676C34.7326 257.605 45.6036 258.633 45.6036 258.633Z" fill="#46B7A1" stroke="#020106" stroke-miterlimit="10"/>
<path d="M51.4624 256.335C50.8113 253.598 50.1452 250.862 49.4941 248.125C49.4033 247.747 49.3124 247.354 49.2216 246.976C49.0248 246.175 48.0103 245.585 47.1322 245.812C46.2086 246.054 45.6635 246.84 45.8604 247.702C46.5114 250.438 47.1776 253.175 47.8286 255.912C47.9195 256.29 48.0103 256.683 48.1012 257.061C48.298 257.862 49.3124 258.452 50.1906 258.225C51.1142 257.983 51.6744 257.197 51.4624 256.335Z" fill="#46B7A1" stroke="#020106" stroke-width="0.75" stroke-miterlimit="10"/>
<path d="M104.997 286.357C109.749 279.916 107.816 270.439 100.68 265.188C93.5441 259.938 83.9069 260.902 79.155 267.343C74.403 273.783 76.3358 283.26 83.4719 288.511C90.608 293.762 100.245 292.797 104.997 286.357Z" fill="#F76A59" stroke="#020106" stroke-miterlimit="10"/>
<path d="M98.9121 265.195C98.9121 265.195 90.5091 261.445 89.7066 265.029C89.0707 267.886 97.6252 270.139 97.6252 270.139C97.6252 270.139 91.2207 274.539 93.8552 276.671C96.4896 278.803 100.653 273.39 100.653 273.39C100.653 273.39 101.229 281.222 104.999 281.176C108.769 281.131 105.513 273.692 105.513 273.692C105.513 273.692 110.692 277.85 112.857 274.176C114.568 271.273 103.273 267.236 103.273 267.236C103.273 267.236 104.817 253.644 100.199 254.687C95.6417 255.715 98.9121 265.195 98.9121 265.195Z" fill="#46B7A1" stroke="#020106" stroke-miterlimit="10"/>
<path d="M103.061 269.232C105.105 267.644 107.149 266.057 109.193 264.469C109.481 264.243 109.768 264.016 110.056 263.804C110.662 263.335 110.768 262.262 110.238 261.612C109.693 260.931 108.814 260.765 108.179 261.264C106.135 262.852 104.091 264.439 102.047 266.027C101.759 266.253 101.471 266.48 101.184 266.692C100.578 267.161 100.472 268.234 101.002 268.884C101.547 269.565 102.425 269.731 103.061 269.232Z" fill="#46B7A1" stroke="#020106" stroke-width="0.75" stroke-miterlimit="10"/>
<path d="M151.588 297.777C151.588 297.777 141.792 303.508 131.875 292.259C129.225 289.265 127.378 284.911 127.378 284.911L130.527 277.971L136.614 280.677L139.339 275.053L144.381 272.8L147.303 276.837L151.588 271.787L154.964 273.692C154.964 273.707 163.079 290.807 151.588 297.777Z" fill="#FAE9EF" stroke="#020106" stroke-miterlimit="10"/>
<path d="M133.828 287.738C134.161 288.146 134.494 288.57 134.827 288.978C134.903 289.054 134.978 289.099 135.069 289.129C135.16 289.174 135.251 289.205 135.357 289.19C135.539 289.19 135.766 289.114 135.887 288.963C136.023 288.812 136.114 288.63 136.114 288.434C136.099 288.373 136.099 288.298 136.084 288.237C136.053 288.116 135.978 287.995 135.887 287.904C135.554 287.496 135.221 287.073 134.888 286.665C134.812 286.589 134.736 286.544 134.645 286.513C134.554 286.468 134.464 286.438 134.358 286.453C134.176 286.453 133.949 286.529 133.828 286.68C133.691 286.831 133.601 287.012 133.601 287.209C133.616 287.269 133.616 287.345 133.631 287.405C133.676 287.526 133.737 287.647 133.828 287.738Z" fill="#C9727B"/>
<path d="M141.171 293.559C141.308 293.68 141.444 293.816 141.55 293.952C141.505 293.907 141.474 293.846 141.429 293.801C141.535 293.937 141.626 294.073 141.701 294.224C141.747 294.315 141.807 294.391 141.898 294.436C141.974 294.497 142.05 294.542 142.156 294.572C142.262 294.602 142.352 294.602 142.458 294.587C142.564 294.587 142.655 294.557 142.746 294.497C142.913 294.391 143.049 294.24 143.094 294.043C143.109 293.982 143.109 293.907 143.125 293.846C143.125 293.71 143.094 293.589 143.019 293.468C142.913 293.257 142.776 293.075 142.625 292.879C142.519 292.743 142.398 292.607 142.262 292.501C142.186 292.425 142.11 292.38 142.019 292.35C141.928 292.304 141.838 292.274 141.732 292.289C141.626 292.289 141.535 292.304 141.444 292.35C141.353 292.38 141.262 292.425 141.202 292.501C141.065 292.652 140.975 292.833 140.975 293.03C140.99 293.09 140.99 293.166 141.005 293.227C141.005 293.363 141.065 293.468 141.171 293.559Z" fill="#C9727B"/>
<path d="M141.126 284.896C141.277 285.198 141.413 285.5 141.565 285.803C141.61 285.894 141.671 285.969 141.761 286.014C141.837 286.075 141.913 286.12 142.019 286.151C142.125 286.181 142.216 286.181 142.322 286.166C142.428 286.166 142.518 286.135 142.609 286.075C142.776 285.969 142.912 285.818 142.958 285.621C142.973 285.561 142.973 285.485 142.988 285.425C142.988 285.289 142.958 285.168 142.882 285.047C142.73 284.744 142.594 284.442 142.443 284.14C142.397 284.049 142.337 283.973 142.246 283.928C142.17 283.868 142.095 283.822 141.989 283.792C141.883 283.762 141.792 283.762 141.686 283.777C141.58 283.777 141.489 283.807 141.398 283.868C141.232 283.973 141.095 284.125 141.05 284.321C141.035 284.382 141.035 284.457 141.02 284.518C141.02 284.654 141.065 284.775 141.126 284.896Z" fill="#C9727B"/>
<path d="M148.999 293.106C149.029 293.166 149.059 293.226 149.074 293.287C149.059 293.226 149.029 293.166 148.999 293.106C149.195 293.559 149.332 294.013 149.407 294.481C149.438 294.663 149.604 294.844 149.756 294.935C149.922 295.026 150.164 295.071 150.346 295.011C150.528 294.95 150.709 294.844 150.8 294.663C150.831 294.602 150.846 294.542 150.876 294.481C150.906 294.345 150.906 294.209 150.876 294.073C150.77 293.468 150.573 292.894 150.316 292.334C150.24 292.168 150.028 292.032 149.862 291.987C149.68 291.941 149.438 291.956 149.271 292.062C149.105 292.168 148.968 292.319 148.923 292.516C148.908 292.576 148.908 292.652 148.893 292.712C148.893 292.864 148.938 292.985 148.999 293.106Z" fill="#C9727B"/>
<path d="M151.284 286.634C151.284 287.118 151.405 287.587 151.617 288.025C151.663 288.116 151.723 288.192 151.814 288.237C151.89 288.298 151.966 288.343 152.072 288.373C152.177 288.403 152.268 288.403 152.374 288.388C152.48 288.388 152.571 288.358 152.662 288.298C152.829 288.192 152.965 288.041 153.01 287.844C153.025 287.784 153.025 287.708 153.041 287.647C153.041 287.511 153.01 287.39 152.935 287.269C152.904 287.224 152.889 287.179 152.859 287.118C152.889 287.179 152.904 287.239 152.935 287.3C152.859 287.133 152.813 286.952 152.783 286.755C152.798 286.816 152.798 286.891 152.813 286.952C152.798 286.846 152.798 286.74 152.798 286.634C152.798 286.438 152.707 286.241 152.571 286.105C152.495 286.03 152.42 285.984 152.329 285.954C152.238 285.909 152.147 285.878 152.041 285.894C151.844 285.909 151.648 285.969 151.511 286.12C151.36 286.256 151.284 286.438 151.284 286.634Z" fill="#C9727B"/>
<path d="M148.484 280.209C148.605 280.662 148.726 281.101 148.862 281.554C148.908 281.736 149.044 281.917 149.211 282.008C149.377 282.099 149.619 282.144 149.801 282.083C149.983 282.023 150.164 281.917 150.255 281.736C150.346 281.554 150.391 281.358 150.331 281.146C150.21 280.692 150.089 280.254 149.952 279.8C149.907 279.619 149.771 279.438 149.604 279.347C149.438 279.256 149.195 279.211 149.014 279.271C148.832 279.332 148.65 279.438 148.559 279.619C148.469 279.8 148.438 280.012 148.484 280.209Z" fill="#C9727B"/>
<path d="M153.116 282.567C153.192 282.794 153.268 283.021 153.343 283.248C153.373 283.354 153.419 283.429 153.479 283.505C153.54 283.58 153.601 283.656 153.691 283.701C153.782 283.762 153.873 283.792 153.979 283.792C154.085 283.807 154.176 283.807 154.282 283.777C154.342 283.747 154.403 283.732 154.464 283.701C154.585 283.641 154.66 283.55 154.736 283.429C154.766 283.369 154.782 283.308 154.812 283.248C154.842 283.112 154.842 282.976 154.812 282.839C154.736 282.613 154.66 282.386 154.585 282.159C154.554 282.053 154.509 281.978 154.448 281.902C154.388 281.826 154.327 281.751 154.237 281.706C154.146 281.645 154.055 281.615 153.949 281.615C153.843 281.6 153.752 281.6 153.646 281.63C153.585 281.66 153.525 281.675 153.464 281.706C153.343 281.766 153.268 281.857 153.192 281.978C153.162 282.038 153.146 282.099 153.116 282.159C153.071 282.295 153.071 282.431 153.116 282.567Z" fill="#C9727B"/>
<path d="M145.698 287.738C145.774 287.965 145.85 288.192 145.925 288.419C145.956 288.524 146.001 288.6 146.062 288.676C146.122 288.751 146.183 288.827 146.273 288.872C146.364 288.933 146.455 288.963 146.561 288.963C146.667 288.978 146.758 288.978 146.864 288.948C146.925 288.917 146.985 288.902 147.046 288.872C147.167 288.812 147.242 288.721 147.318 288.6C147.348 288.54 147.364 288.479 147.394 288.419C147.424 288.282 147.424 288.146 147.394 288.01C147.318 287.784 147.242 287.557 147.167 287.33C147.136 287.224 147.091 287.148 147.03 287.073C146.97 286.997 146.909 286.922 146.819 286.876C146.728 286.816 146.637 286.786 146.531 286.786C146.425 286.771 146.334 286.771 146.228 286.801C146.167 286.831 146.107 286.846 146.046 286.876C145.925 286.937 145.85 287.028 145.774 287.148C145.744 287.209 145.728 287.269 145.698 287.33C145.653 287.466 145.653 287.602 145.698 287.738Z" fill="#C9727B"/>
<path d="M172.996 262.201C172.996 262.201 194.693 261.854 196.57 274.055C198.069 283.807 186.653 288.902 183.504 290.248C180.355 291.594 172.285 293.423 171.558 292.728C170.831 292.047 167.667 286.65 167.667 286.65L163.685 282.718L165.032 274.811L162.776 269.005L167.667 264.016C167.667 264.001 169.544 262.035 172.996 262.201Z" fill="#FAE9EF" stroke="#020106" stroke-miterlimit="10"/>
<path d="M172.496 292.879L179.249 282.371L175.191 276.142C175.191 276.142 179.612 270.683 180.066 268.99C180.52 267.297 171.572 262.262 171.572 262.262" fill="#FAE9EF"/>
<path d="M172.496 292.879L179.249 282.371L175.191 276.142C175.191 276.142 179.612 270.683 180.066 268.99C180.52 267.297 171.572 262.262 171.572 262.262" stroke="#020106" stroke-miterlimit="10"/>
<path d="M182.99 287.148C183.535 286.846 184.095 286.544 184.64 286.241C184.807 286.151 184.943 285.969 184.988 285.788C185.034 285.606 185.019 285.364 184.913 285.198C184.685 284.85 184.246 284.729 183.883 284.926C183.338 285.228 182.778 285.531 182.233 285.833C182.066 285.924 181.93 286.105 181.884 286.287C181.839 286.468 181.854 286.71 181.96 286.876C182.172 287.224 182.611 287.345 182.99 287.148Z" fill="#C9727B"/>
<path d="M190.347 279.952C190.544 279.846 190.741 279.755 190.953 279.649C191.044 279.604 191.119 279.543 191.165 279.453C191.225 279.377 191.271 279.301 191.301 279.196C191.331 279.09 191.331 278.999 191.316 278.893C191.316 278.787 191.286 278.697 191.225 278.606C191.18 278.561 191.15 278.5 191.104 278.455C191.013 278.364 190.892 278.304 190.771 278.258C190.711 278.243 190.635 278.243 190.574 278.228C190.438 278.228 190.317 278.258 190.196 278.334C189.999 278.44 189.802 278.53 189.59 278.636C189.499 278.682 189.424 278.742 189.378 278.833C189.318 278.908 189.272 278.984 189.242 279.09C189.212 279.196 189.212 279.286 189.227 279.392C189.227 279.498 189.257 279.589 189.318 279.679C189.363 279.725 189.393 279.785 189.439 279.831C189.53 279.921 189.651 279.982 189.772 280.027C189.832 280.042 189.908 280.042 189.969 280.057C190.105 280.057 190.226 280.027 190.347 279.952Z" fill="#C9727B"/>
<path d="M182.368 276.61C182.958 276.399 183.564 276.187 184.154 275.99C184.336 275.93 184.502 275.824 184.608 275.643C184.699 275.476 184.745 275.234 184.684 275.053C184.624 274.872 184.518 274.69 184.336 274.599C184.169 274.509 183.942 274.463 183.745 274.524C183.155 274.735 182.549 274.947 181.959 275.144C181.777 275.204 181.611 275.31 181.505 275.491C181.414 275.658 181.368 275.9 181.429 276.081C181.49 276.263 181.595 276.444 181.777 276.535C181.959 276.625 182.171 276.686 182.368 276.61Z" fill="#C9727B"/>
<path d="M191.816 274.176C192.21 274.07 192.618 273.979 193.012 273.874C193.194 273.828 193.375 273.692 193.466 273.526C193.557 273.36 193.602 273.118 193.542 272.936C193.481 272.755 193.375 272.573 193.194 272.483C193.012 272.392 192.815 272.362 192.603 272.407C192.21 272.513 191.801 272.604 191.407 272.709C191.225 272.755 191.044 272.891 190.953 273.057C190.862 273.224 190.817 273.465 190.877 273.647C190.938 273.828 191.044 274.01 191.225 274.1C191.422 274.206 191.619 274.237 191.816 274.176Z" fill="#C9727B"/>
<path d="M185.806 271.318C186.154 271.228 186.502 271.122 186.865 271.031C187.047 270.986 187.229 270.85 187.32 270.683C187.38 270.593 187.411 270.502 187.411 270.396C187.426 270.29 187.426 270.2 187.395 270.094C187.335 269.912 187.229 269.731 187.047 269.64C186.865 269.549 186.669 269.504 186.457 269.565C186.108 269.655 185.76 269.761 185.397 269.852C185.215 269.897 185.033 270.033 184.943 270.2C184.882 270.29 184.852 270.381 184.852 270.487C184.837 270.593 184.837 270.683 184.867 270.789C184.927 270.971 185.033 271.152 185.215 271.243C185.397 271.334 185.609 271.379 185.806 271.318Z" fill="#C9727B"/>
<path d="M184.64 281.01C184.746 280.965 184.837 280.904 184.943 280.859C185.034 280.813 185.109 280.753 185.155 280.662C185.215 280.587 185.261 280.511 185.291 280.405C185.321 280.299 185.321 280.209 185.306 280.103C185.306 279.997 185.276 279.906 185.215 279.816C185.17 279.77 185.14 279.71 185.094 279.664C185.003 279.574 184.882 279.513 184.761 279.468C184.701 279.453 184.625 279.453 184.564 279.438C184.428 279.438 184.307 279.468 184.186 279.543C184.08 279.589 183.989 279.649 183.883 279.695C183.792 279.74 183.717 279.8 183.671 279.891C183.611 279.967 183.565 280.042 183.535 280.148C183.505 280.254 183.505 280.345 183.52 280.451C183.52 280.556 183.55 280.647 183.611 280.738C183.656 280.783 183.686 280.844 183.732 280.889C183.823 280.98 183.944 281.04 184.065 281.086C184.125 281.101 184.201 281.101 184.262 281.116C184.398 281.116 184.534 281.086 184.64 281.01Z" fill="#C9727B"/>
<path d="M182.156 266.405C182.459 266.405 182.762 266.405 183.065 266.405C183.262 266.405 183.459 266.314 183.595 266.178C183.671 266.102 183.716 266.027 183.746 265.936C183.792 265.845 183.822 265.754 183.807 265.649C183.792 265.452 183.731 265.256 183.58 265.119C183.428 264.983 183.247 264.893 183.05 264.893C182.747 264.893 182.444 264.893 182.141 264.893C181.945 264.893 181.748 264.983 181.611 265.119C181.536 265.195 181.49 265.271 181.46 265.361C181.415 265.452 181.384 265.543 181.399 265.649C181.415 265.845 181.475 266.042 181.627 266.178C181.763 266.314 181.945 266.405 182.156 266.405Z" fill="#C9727B"/>
</g>
<defs>
<clipPath id="clip0">
<rect width="232.484" height="300" fill="white"/>
</clipPath>
</defs>
</svg>
