<svg width="380" height="296" viewBox="0 0 380 296" fill="none" xmlns="http://www.w3.org/2000/svg">
<path d="M46.2419 83.3081C46.2419 83.3081 30.3049 193.292 95.1133 223.404C159.922 253.516 195.819 194.072 203.226 181.472C210.633 168.857 203.866 122.324 203.866 122.324C203.866 122.324 185.418 120.609 154.994 163.102C124.57 205.596 90.3104 165.473 84.8837 154.183C79.457 142.908 72.7204 118.254 72.7204 90.1382C72.7204 90.1382 52.9005 76.0725 46.2419 83.3081Z" fill="white"/>
<path d="M142.022 176.42L165.538 221.798C165.538 221.798 203.743 194.509 205.209 175.983C206.675 157.457 203.852 122.324 203.852 122.324C203.852 122.324 188.227 124.414 174.988 139.275C161.749 154.136 153.219 166.128 150.49 168.779C147.761 171.414 142.022 176.42 142.022 176.42Z" fill="#FCD9E7"/>
<path d="M46.2419 83.3081C46.2419 83.3081 30.3049 193.292 95.1133 223.404C159.922 253.516 195.819 194.072 203.226 181.472C210.633 168.857 203.866 122.324 203.866 122.324C203.866 122.324 185.418 120.609 154.994 163.102C124.57 205.596 90.3104 165.473 84.8837 154.183C79.457 142.908 72.7204 118.254 72.7204 90.1382C72.7204 90.1382 52.9005 76.0725 46.2419 83.3081Z" stroke="#020106" stroke-miterlimit="10"/>
<path d="M72.2992 100.04L78.0378 100.805C78.3653 99.8689 78.5992 98.9021 78.7239 97.9041C79.7531 88.9064 71.6755 80.5792 60.7129 79.3161C49.7504 78.053 39.9885 84.3529 38.9593 93.3506C38.8658 94.1147 38.8658 94.8788 38.9126 95.6273L44.6044 96.3759C44.464 95.5962 44.4172 94.7853 44.5108 93.99C45.1969 88.0643 52.1674 83.9787 60.058 84.8831C67.9485 85.7876 73.8274 91.339 73.1413 97.2647C73.0321 98.2315 72.7358 99.1672 72.2992 100.04Z" fill="#F76A59" stroke="#020106" stroke-miterlimit="10"/>
<path d="M112.376 106.262C112.002 110.005 86.7709 110.535 56.0041 107.448C25.2684 104.36 0.629953 98.8241 1.00421 95.0816C1.37846 91.339 26.6095 90.8088 57.3763 93.8964C88.1276 96.984 112.766 102.52 112.376 106.262Z" fill="#F76A59" stroke="#020106" stroke-miterlimit="10"/>
<path d="M79.9258 90.3254C78.4444 92.4617 75.9805 93.3194 74.4367 92.2434C72.8929 91.1674 72.8461 88.5632 74.3432 86.4269C75.8246 84.2905 78.2884 83.4328 79.8322 84.5088C81.3604 85.5848 81.4072 88.189 79.9258 90.3254Z" fill="white" stroke="#020106" stroke-miterlimit="10"/>
<path d="M49.705 82.7167C50.4379 87.0986 49.4867 90.9191 47.5687 91.2466C45.6506 91.5741 43.5142 88.2682 42.7657 83.8863C42.0328 79.5044 42.984 75.6838 44.9021 75.3564C46.8202 75.0289 48.9721 78.3348 49.705 82.7167Z" fill="white" stroke="#020106" stroke-miterlimit="10"/>
<path d="M56.706 82.3101C57.4389 86.692 56.4877 90.5125 54.5696 90.84C52.6516 91.1674 50.5152 87.8615 49.7667 83.4796C49.0338 79.0977 49.985 75.2772 51.9031 74.9497C53.8211 74.6223 55.9731 77.9282 56.706 82.3101Z" fill="white" stroke="#020106" stroke-miterlimit="10"/>
<path d="M63.2861 81.8267C64.019 86.2086 63.0678 90.0291 61.1497 90.3565C59.2317 90.684 57.0953 87.3781 56.3468 82.9962C55.6139 78.6143 56.5651 74.7938 58.4832 74.4663C60.4012 74.1388 62.5532 77.4292 63.2861 81.8267Z" fill="white" stroke="#020106" stroke-miterlimit="10"/>
<path d="M70.3183 82.2788C71.0512 86.6607 70.1 90.4812 68.1819 90.8087C66.2639 91.1362 64.1275 87.8303 63.379 83.4484C62.6461 79.0665 63.5973 75.2459 65.5154 74.9185C67.4334 74.591 69.5854 77.8813 70.3183 82.2788Z" fill="white" stroke="#020106" stroke-miterlimit="10"/>
<path d="M275.909 269.765C279.184 256.151 281.024 241.103 281.024 225.275C281.024 164.428 254.14 115.089 220.987 115.089C187.834 115.089 160.95 164.428 160.95 225.275C160.95 241.119 162.79 256.151 166.065 269.765H275.909Z" fill="#FCD9E7" stroke="#020106" stroke-miterlimit="10"/>
<path d="M271.856 173.38C271.856 173.38 285.391 180.584 293.079 191.391L333.951 179.914C333.951 179.914 320.384 157.989 297.071 142.925C273.774 127.877 253.252 121.686 247.233 120.111C241.214 118.536 228.037 112.969 230.719 124.274C233.401 135.596 260.16 167.439 271.856 173.38Z" fill="#FCD9E7"/>
<path d="M266.32 170.837C266.32 170.837 284.175 177.511 292.923 191.421L333.576 179.273C331.736 176.357 329.787 173.535 327.776 170.837C309.78 146.666 272.448 124.57 234.664 117.1" stroke="#020106" stroke-miterlimit="10"/>
<path d="M296.603 199.623L337.366 185.604L336.243 183.64L334.824 181.254L330.769 175.016L291.005 188.661C291.005 188.661 294.638 194.056 296.603 199.623Z" fill="#020106" stroke="#020106" stroke-miterlimit="10"/>
<path d="M246.532 119.611C246.532 134.534 246.532 147.945 246.532 162.868C246.532 164.958 246.532 167.032 246.532 169.122C246.532 172.927 252.458 172.942 252.458 169.122C252.458 154.697 252.458 140.288 252.458 125.864C252.458 123.774 252.458 121.7 252.458 119.611C252.458 115.806 246.532 115.79 246.532 119.611Z" fill="white" stroke="#020106" stroke-miterlimit="10"/>
<path d="M169.793 126.067C174.143 139.478 178.494 152.888 182.845 166.299C183.469 168.233 184.108 170.166 184.732 172.116C185.886 175.656 191.515 173.831 190.361 170.291C185.854 156.413 181.816 143.953 177.309 130.059C176.685 128.125 176.046 126.192 175.422 124.242C174.268 120.702 168.639 122.527 169.793 126.067Z" fill="white" stroke="#020106" stroke-miterlimit="10"/>
<path d="M311.962 269.765C307.939 264.026 301.249 258.35 291.269 252.986C246.265 228.847 257.056 156.756 257.056 156.756H180.131L154.229 269.749H311.962V269.765Z" fill="white" stroke="#020106" stroke-miterlimit="10"/>
<path d="M225.729 178.54C225.729 178.54 228.738 162.915 234.477 163.383C240.2 163.866 231.249 171.819 231.249 171.819C231.249 171.819 237.237 166.767 239.685 170.4C241.229 172.693 235.241 176.529 235.241 176.529C235.241 176.529 242.492 171.227 244.036 176.466C245.58 181.69 227.849 183.031 225.729 178.54Z" fill="#46B7A1" stroke="#020106" stroke-miterlimit="10"/>
<path d="M215.579 197.441C226.145 189.845 232.538 180.666 229.858 176.939C227.179 173.212 216.442 176.349 205.876 183.945C195.311 191.54 188.918 200.719 191.598 204.446C194.277 208.173 205.014 205.037 215.579 197.441Z" fill="#FD8D5D" stroke="#020106" stroke-miterlimit="10"/>
<path d="M217.589 179.149C218.166 179.959 218.758 180.77 219.335 181.581C219.429 181.706 219.523 181.799 219.678 181.846C219.819 181.877 220.006 181.862 220.131 181.784C220.38 181.628 220.536 181.254 220.333 180.989C219.756 180.178 219.164 179.367 218.587 178.556C218.493 178.431 218.4 178.338 218.244 178.291C218.103 178.26 217.916 178.275 217.792 178.353C217.558 178.509 217.402 178.883 217.589 179.149Z" fill="#020106"/>
<path d="M224.295 180.24C224.903 181.082 225.496 181.909 226.104 182.751C226.276 183 226.619 183.141 226.899 182.953C227.149 182.798 227.305 182.423 227.102 182.158C226.494 181.316 225.901 180.49 225.293 179.648C225.122 179.398 224.779 179.258 224.498 179.445C224.248 179.601 224.093 179.975 224.295 180.24Z" fill="#020106"/>
<path d="M217.464 187.055C218.15 188.006 218.836 188.957 219.522 189.908C219.694 190.158 220.037 190.298 220.318 190.111C220.567 189.955 220.723 189.581 220.52 189.316C219.834 188.365 219.148 187.413 218.462 186.462C218.29 186.213 217.947 186.072 217.667 186.259C217.433 186.415 217.277 186.79 217.464 187.055Z" fill="#020106"/>
<path d="M210.104 186.228C210.571 186.883 211.039 187.522 211.507 188.177C211.601 188.302 211.694 188.396 211.85 188.442C211.99 188.474 212.178 188.458 212.302 188.38C212.552 188.224 212.708 187.85 212.505 187.585C212.037 186.93 211.569 186.291 211.102 185.636C211.008 185.511 210.914 185.417 210.758 185.37C210.618 185.339 210.431 185.355 210.306 185.433C210.072 185.573 209.916 185.947 210.104 186.228Z" fill="#020106"/>
<path d="M207.328 193.807C207.827 194.509 208.326 195.195 208.825 195.896C208.919 196.021 209.012 196.115 209.168 196.161C209.309 196.193 209.496 196.177 209.62 196.099C209.87 195.943 210.026 195.569 209.823 195.304C209.324 194.602 208.825 193.916 208.326 193.214C208.233 193.089 208.139 192.996 207.983 192.949C207.843 192.918 207.656 192.934 207.531 193.012C207.297 193.167 207.141 193.542 207.328 193.807Z" fill="#020106"/>
<path d="M199.874 194.321C200.326 194.945 200.778 195.569 201.231 196.208C201.324 196.333 201.418 196.427 201.574 196.473C201.714 196.505 201.901 196.489 202.026 196.411C202.276 196.255 202.431 195.881 202.229 195.616C201.776 194.992 201.324 194.368 200.872 193.729C200.778 193.604 200.685 193.511 200.529 193.464C200.389 193.433 200.202 193.448 200.077 193.526C199.843 193.666 199.687 194.056 199.874 194.321Z" fill="#020106"/>
<path d="M198.86 202.009C199.203 202.493 199.562 202.976 199.905 203.475C199.999 203.6 200.092 203.693 200.248 203.74C200.389 203.771 200.576 203.756 200.7 203.678C200.825 203.6 200.934 203.475 200.966 203.335C200.997 203.194 200.997 203.007 200.903 202.882C200.56 202.399 200.201 201.916 199.858 201.417C199.765 201.292 199.671 201.198 199.515 201.152C199.375 201.12 199.188 201.136 199.063 201.214C198.938 201.292 198.829 201.417 198.798 201.557C198.767 201.713 198.767 201.884 198.86 202.009Z" fill="#020106"/>
<path d="M53.3701 269.765H380.001" stroke="#020106" stroke-miterlimit="10"/>
<path d="M82.687 226.96C73.3462 226.96 65.752 220.722 65.752 213.065C65.752 205.409 73.3462 199.171 82.687 199.171C92.0278 199.171 99.622 205.409 99.622 213.065C99.622 220.738 92.0278 226.96 82.687 226.96ZM82.687 203.912C75.966 203.912 70.4925 208.013 70.4925 213.065C70.4925 218.118 75.966 222.219 82.687 222.219C89.408 222.219 94.8814 218.118 94.8814 213.065C94.8814 208.029 89.408 203.912 82.687 203.912Z" fill="#F76A59" stroke="#020106" stroke-miterlimit="10"/>
<path d="M167.94 226.96C158.599 226.96 151.005 220.722 151.005 213.065C151.005 205.409 158.599 199.171 167.94 199.171C177.281 199.171 184.875 205.409 184.875 213.065C184.875 220.738 177.281 226.96 167.94 226.96ZM167.94 203.912C161.219 203.912 155.745 208.013 155.745 213.065C155.745 218.118 161.219 222.219 167.94 222.219C174.661 222.219 180.134 218.118 180.134 213.065C180.134 208.029 174.676 203.912 167.94 203.912Z" fill="#F76A59" stroke="#020106" stroke-miterlimit="10"/>
<path d="M160.299 242.382H89.4398C82.7812 242.382 77.3701 236.987 77.3701 230.312V186.478H172.353V230.312C172.368 236.971 166.957 242.382 160.299 242.382Z" fill="#F76A59" stroke="#020106" stroke-miterlimit="10"/>
<path d="M86.2265 226.648C87.7547 224.714 90.546 224.387 92.4797 225.899C94.4133 227.427 94.7408 230.219 93.2282 232.152C91.7 234.086 88.9087 234.414 86.975 232.901C85.0258 231.388 84.6983 228.581 86.2265 226.648Z" fill="white"/>
<path d="M100.138 210.976C101.666 209.042 104.457 208.715 106.391 210.227C108.324 211.756 108.652 214.547 107.139 216.481C105.611 218.414 102.82 218.742 100.886 217.229C98.9369 215.716 98.6094 212.909 100.138 210.976Z" fill="white"/>
<path d="M81.7676 198.781C83.2958 196.848 86.0871 196.52 88.0208 198.033C89.9544 199.561 90.2819 202.352 88.7693 204.286C87.2411 206.22 84.4498 206.547 82.5161 205.034C80.5825 203.522 80.2394 200.715 81.7676 198.781Z" fill="white"/>
<path d="M124.058 228.956C125.586 227.022 128.377 226.694 130.311 228.207C132.244 229.735 132.572 232.527 131.059 234.46C129.531 236.394 126.74 236.721 124.806 235.209C122.857 233.696 122.529 230.889 124.058 228.956Z" fill="white"/>
<path d="M143.362 211.662C144.891 209.728 147.682 209.401 149.616 210.913C151.549 212.442 151.877 215.233 150.364 217.167C148.836 219.1 146.044 219.428 144.111 217.915C142.177 216.403 141.834 213.596 143.362 211.662Z" fill="white"/>
<path d="M121.375 200.918C122.903 198.984 125.694 198.657 127.628 200.169C129.562 201.697 129.889 204.489 128.377 206.422C126.848 208.356 124.057 208.684 122.123 207.171C120.174 205.658 119.847 202.851 121.375 200.918Z" fill="white"/>
<path d="M154.013 226.648C155.541 224.714 158.332 224.387 160.266 225.899C162.2 227.427 162.527 230.219 161.015 232.152C159.486 234.086 156.695 234.414 154.761 232.901C152.828 231.388 152.5 228.581 154.013 226.648Z" fill="white"/>
<path d="M160.703 198.781C162.231 196.848 165.023 196.52 166.956 198.033C168.89 199.561 169.217 202.352 167.705 204.286C166.177 206.22 163.385 206.547 161.452 205.034C159.518 203.522 159.175 200.715 160.703 198.781Z" fill="white"/>
<path d="M172.368 186.478C172.368 191 151.098 194.665 124.869 194.665C98.6403 194.665 77.3701 191 77.3701 186.478C77.3701 181.955 98.6403 178.291 124.869 178.291C151.098 178.291 172.368 181.955 172.368 186.478Z" fill="white" stroke="#020106" stroke-miterlimit="10"/>
<path d="M84.9172 154.822C87.5698 154.822 89.7201 152.672 89.7201 150.019C89.7201 147.366 87.5698 145.216 84.9172 145.216C82.2646 145.216 80.1143 147.366 80.1143 150.019C80.1143 152.672 82.2646 154.822 84.9172 154.822Z" fill="white" stroke="#020106" stroke-miterlimit="10"/>
<path d="M118.57 139.821C121.196 139.821 123.326 137.691 123.326 135.064C123.326 132.438 121.196 130.308 118.57 130.308C115.943 130.308 113.813 132.438 113.813 135.064C113.813 137.691 115.943 139.821 118.57 139.821Z" fill="white" stroke="#020106" stroke-miterlimit="10"/>
<path d="M138.887 144.764C138.887 146.651 137.359 148.179 135.472 148.179C133.585 148.179 132.057 146.651 132.057 144.764C132.057 142.877 133.585 141.349 135.472 141.349C137.359 141.364 138.887 142.893 138.887 144.764Z" fill="white" stroke="#020106" stroke-miterlimit="10"/>
<path d="M105.89 147.945C105.89 149.458 104.674 150.674 103.162 150.674C101.649 150.674 100.433 149.458 100.433 147.945C100.433 146.432 101.649 145.216 103.162 145.216C104.674 145.216 105.89 146.448 105.89 147.945Z" fill="white" stroke="#020106" stroke-miterlimit="10"/>
<path d="M157.195 148.132C157.195 149.177 156.353 150.019 155.308 150.019C154.263 150.019 153.421 149.177 153.421 148.132C153.421 147.087 154.263 146.245 155.308 146.245C156.353 146.245 157.195 147.087 157.195 148.132Z" fill="white" stroke="#020106" stroke-miterlimit="10"/>
<path d="M145.703 122.979C145.703 125.318 143.8 127.221 141.461 127.221C139.122 127.221 137.22 125.318 137.22 122.979C137.22 120.64 139.122 118.738 141.461 118.738C143.8 118.722 145.703 120.624 145.703 122.979Z" stroke="#020106" stroke-miterlimit="10"/>
<path d="M170.699 188.614C179.541 185.636 179.915 167.671 173.74 161.995C167.565 156.319 151.628 155.851 144.423 161.668C143.643 162.307 142.957 162.993 142.365 163.695C139.589 157.286 132.681 151.142 126.428 157.722C123.683 160.623 122.015 163.336 121.079 165.691C116.837 159.609 108.947 152.997 103.661 157.551C100.448 160.311 99.0915 163.835 98.8264 167.048C95.8012 164.412 91.7468 162.853 88.1914 165.613C85.7275 167.531 84.3396 169.932 83.6691 172.303C81.8446 170.852 79.6147 169.979 77.4003 171.445C70.9756 175.671 77.4003 186.462 77.4003 186.462L77.8682 187.975" fill="white"/>
<path d="M170.699 188.614C179.541 185.636 179.915 167.671 173.74 161.995C167.565 156.319 151.628 155.851 144.423 161.668C143.643 162.307 142.957 162.993 142.365 163.695C139.589 157.286 132.681 151.142 126.428 157.722C123.683 160.623 122.015 163.336 121.079 165.691C116.837 159.609 108.947 152.997 103.661 157.551C100.448 160.311 99.0915 163.835 98.8264 167.048C95.8012 164.412 91.7468 162.853 88.1914 165.613C85.7275 167.531 84.3396 169.932 83.6691 172.303C81.8446 170.852 79.6147 169.979 77.4003 171.445C70.9756 175.671 77.4003 186.462 77.4003 186.462L77.8682 187.975" stroke="#020106" stroke-miterlimit="10"/>
<path d="M94.8804 187.787C94.8804 187.787 88.0347 181.332 94.8804 175.047C101.726 168.763 109.695 180.989 107.636 184.263C105.578 187.538 100.323 177.511 107.964 170.307C115.605 163.102 125.897 176.451 123.324 183.172C120.751 189.877 115.605 184.263 118.568 179.32C120.158 176.653 126.411 166.174 132.072 168.248C137.733 170.322 142.099 183.187 138.887 185.23C135.674 187.288 132.524 177.511 148.368 169.792C164.211 162.073 168.078 180.396 159.58 187.304" stroke="#020106" stroke-miterlimit="10"/>
<path d="M172.368 186.478C172.368 191 151.098 194.664 124.869 194.664C98.6403 194.664 77.3701 191 77.3701 186.478C77.3701 181.955 98.6403 178.291 124.869 178.291C151.098 178.291 172.368 181.955 172.368 186.478Z" stroke="#020106" stroke-miterlimit="10"/>
<path d="M146.31 242.382H104.316C101.727 242.382 99.6221 244.487 99.6221 247.076V248.713C99.6221 251.302 101.727 253.407 104.316 253.407H146.31C148.899 253.407 151.004 251.302 151.004 248.713V247.076C151.004 244.487 148.899 242.382 146.31 242.382ZM107.388 249.805C106.249 249.805 105.329 248.885 105.329 247.746C105.329 246.608 106.249 245.688 107.388 245.688C108.526 245.688 109.446 246.608 109.446 247.746C109.446 248.885 108.511 249.805 107.388 249.805ZM118.382 249.945C117.243 249.945 116.323 249.025 116.323 247.887C116.323 246.748 117.243 245.828 118.382 245.828C119.52 245.828 120.44 246.748 120.44 247.887C120.44 249.025 119.52 249.945 118.382 249.945ZM129.391 249.945C128.253 249.945 127.333 249.025 127.333 247.887C127.333 246.748 128.253 245.828 129.391 245.828C130.529 245.828 131.449 246.748 131.449 247.887C131.449 249.025 130.529 249.945 129.391 249.945ZM140.385 249.945C139.246 249.945 138.326 249.025 138.326 247.887C138.326 246.748 139.246 245.828 140.385 245.828C141.523 245.828 142.443 246.748 142.443 247.887C142.443 249.025 141.523 249.945 140.385 249.945Z" fill="#020106"/>
<path d="M167.44 277.811H85.3844C80.9557 277.811 77.3691 274.225 77.3691 269.796V256.666C77.3691 252.237 80.9557 248.651 85.3844 248.651H167.44C171.868 248.651 175.455 252.237 175.455 256.666V269.796C175.455 274.24 171.868 277.811 167.44 277.811Z" fill="#AE89F0" stroke="#020106" stroke-miterlimit="10"/>
<path d="M166.878 262.264C166.878 265.976 163.869 269.001 160.142 269.001C156.415 269.001 153.405 265.991 153.405 262.264C153.405 258.553 156.415 255.528 160.142 255.528C163.869 255.528 166.878 258.537 166.878 262.264Z" fill="white" stroke="#020106" stroke-miterlimit="10"/>
<path d="M163.853 262.264C163.853 264.307 162.2 265.976 160.142 265.976C158.099 265.976 156.431 264.323 156.431 262.264C156.431 260.221 158.084 258.553 160.142 258.553C162.2 258.553 163.853 260.206 163.853 262.264Z" fill="white" stroke="#020106" stroke-miterlimit="10"/>
<path d="M88.4097 259.301C90.1494 259.301 91.5597 257.891 91.5597 256.151C91.5597 254.412 90.1494 253.001 88.4097 253.001C86.6701 253.001 85.2598 254.412 85.2598 256.151C85.2598 257.891 86.6701 259.301 88.4097 259.301Z" fill="#F76A59" stroke="#020106" stroke-miterlimit="10"/>
<path d="M200.42 119.611C200.42 125.209 208.217 129.747 217.823 129.747C227.444 129.747 235.226 125.209 235.226 119.611C235.226 114.013 227.429 109.475 217.823 109.475C208.201 109.475 200.42 114.013 200.42 119.611Z" fill="#020106" stroke="#1C191B" stroke-miterlimit="10"/>
<path d="M196.412 33.5789H211.71C221.877 33.5789 230.204 43.06 230.204 54.6463V78.3647C230.204 79.0353 230.173 79.6902 230.111 80.3452C230.282 81.0469 230.376 81.7642 230.376 82.5127V96.9527V97.7636V112.204C230.376 117.443 226.088 121.732 220.848 121.732H214.782C209.542 121.732 205.254 117.443 205.254 112.204V99.4166H196.412C186.245 99.4166 177.918 89.9354 177.918 78.3491V54.6463C177.918 43.06 186.245 33.5789 196.412 33.5789Z" fill="white" stroke="black" stroke-miterlimit="10"/>
<path d="M220.536 75.0744C220.536 79.815 216.7 83.6511 211.959 83.6511C207.219 83.6511 203.383 79.815 203.383 75.0744C203.383 70.3339 207.219 66.4977 211.959 66.4977C216.7 66.5133 220.536 70.3494 220.536 75.0744Z" fill="#FCD9E7"/>
<path d="M180.211 69.2736C179.696 69.2736 179.182 69.3359 178.698 69.4607V78.3492C178.698 79.6747 178.745 80.969 179.01 82.2165C179.369 82.2789 179.837 82.3257 180.211 82.3257C183.813 82.3257 186.745 79.4096 186.745 75.7918C186.745 72.1896 183.829 69.2736 180.211 69.2736Z" fill="#FCD9E7"/>
<path d="M226.212 70.6926L223.39 52.1046C223.39 52.1046 171.977 58.5449 155.307 33.579C138.637 8.61306 156.149 -1.2735 164.632 0.129951C173.1 1.549 183.017 13.6811 183.017 13.6811C183.017 13.6811 175.127 2.95246 183.017 1.25272C190.908 -0.447025 199.625 7.75539 204.163 16.2229C204.163 16.2229 238.048 13.0573 249.51 33.5634C260.971 54.0694 252.114 69.1332 231.156 90.3098L231.218 77.6319L226.212 70.6926Z" fill="#FD8D5D"/>
<path d="M249.494 71.0824C249.494 77.7567 244.036 83.1678 237.315 83.1678C230.578 83.1678 225.136 77.7567 225.136 71.0824C225.136 64.4082 230.594 58.9971 237.315 58.9971C244.036 58.9971 249.494 64.4082 249.494 71.0824Z" stroke="black" stroke-width="2" stroke-miterlimit="10"/>
<path d="M176.996 79.4407C176.996 79.4407 182.142 79.6902 184.887 75.7918C187.631 71.8933 197.892 68.3846 204.161 74.5131C210.43 80.6415 216.776 81.0469 219.521 79.1289C222.265 77.2108 223.248 71.5034 224.152 60.8839C225.057 50.2489 230.156 49.2664 232.729 49.9526C235.302 50.6387 226.788 86.2241 225.15 89.8263C221.673 97.4517 217.977 100.461 207.529 101.569C197.081 102.676 187.6 101.802 181.206 93.257C177.183 87.8771 176.996 79.4407 176.996 79.4407Z" fill="#FD8D5D"/>
<path d="M208.544 62.3966C208.544 64.2991 207 65.8429 205.098 65.8429C203.195 65.8429 201.651 64.2991 201.651 62.3966C201.651 60.4942 203.195 58.9504 205.098 58.9504C207 58.9504 208.544 60.4942 208.544 62.3966Z" fill="#0C0C0C"/>
<path d="M185.965 61.8976C185.965 63.5194 184.639 64.8449 183.018 64.8449C181.396 64.8449 180.07 63.5194 180.07 61.8976C180.07 60.2759 181.396 58.9504 183.018 58.9504C184.639 58.9504 185.965 60.2603 185.965 61.8976Z" fill="#0C0C0C"/>
<path d="M200.783 81.795C200.783 81.795 199.222 76.6875 195.571 76.2221C191.92 75.7567 188.917 79.713 188.608 82.87L200.783 81.795Z" fill="#FFFDFD"/>
<path d="M201.631 81.6049C201.054 79.7289 199.962 77.8513 198.443 76.6147C195.771 74.4189 192.167 75.3437 190.024 77.8153C188.791 79.2407 187.937 80.9908 187.733 82.872C187.688 83.3073 188.123 83.8056 188.577 83.7739C192.129 83.4559 195.682 83.1378 199.234 82.8354C199.735 82.7897 200.235 82.744 200.752 82.6989C201.221 82.6522 201.621 82.3691 201.654 81.8553C201.668 81.4345 201.279 80.9222 200.81 80.9533C197.258 81.2714 193.705 81.5895 190.153 81.8919C189.653 81.9376 189.152 81.9832 188.635 82.0284C188.922 82.3344 189.193 82.6243 189.479 82.9304C189.748 80.4741 191.634 77.7443 194.134 77.1726C196.508 76.6279 198.239 78.5114 199.236 80.4326C199.456 80.8457 199.645 81.2576 199.803 81.6842C199.86 81.8421 199.76 81.5579 199.817 81.7315C199.831 81.7787 199.86 81.8265 199.874 81.8894C199.888 81.9367 199.902 81.984 199.931 82.0473C200.271 83.0729 201.97 82.6772 201.631 81.6049Z" fill="#0C0C0C"/>
<path d="M193.122 58.9504L193.839 70.6926L188.226 67.2775L193.122 58.9504Z" fill="#F76A59"/>
<path d="M249.494 71.0824C249.494 77.7567 244.036 83.1678 237.315 83.1678C230.578 83.1678 225.136 77.7567 225.136 71.0824C225.136 64.4082 230.594 58.9971 237.315 58.9971C244.036 58.9971 249.494 64.4082 249.494 71.0824Z" fill="white"/>
<path d="M231.794 72.673C231.778 72.4079 231.794 72.1428 231.81 71.8933C231.81 71.7685 231.825 71.6438 231.841 71.5346C231.841 71.4722 231.856 71.3943 231.856 71.3319C231.887 71.0044 231.81 71.5658 231.856 71.3163C231.919 70.9732 231.965 70.6458 232.059 70.3183C232.106 70.1467 232.153 69.9752 232.215 69.8037C232.246 69.7101 232.277 69.6166 232.309 69.523C232.324 69.4762 232.34 69.4294 232.355 69.3982C232.433 69.1799 232.324 69.4138 232.34 69.445C232.309 69.3826 232.574 68.9772 232.605 68.8992C232.714 68.6965 232.839 68.5094 232.963 68.3223C233.01 68.2443 233.229 67.9948 233.01 68.2443C233.073 68.1663 233.135 68.0883 233.213 68.0104C233.369 67.8388 233.54 67.6673 233.712 67.527C233.774 67.4802 234.071 67.2619 233.806 67.449C233.899 67.3866 233.993 67.3242 234.086 67.2619C234.305 67.1215 234.523 66.9968 234.757 66.8876C234.772 66.872 234.991 66.7785 234.835 66.8564C234.679 66.9188 234.96 66.8096 234.991 66.794C235.131 66.7473 235.287 66.7005 235.443 66.6537C235.599 66.6069 235.755 66.5757 235.926 66.5289C235.989 66.5134 236.035 66.5134 236.098 66.4978C236.145 66.4822 236.519 66.4354 236.238 66.4666C237.034 66.3574 237.844 66.3886 238.655 66.4666C239.232 66.5289 239.731 65.9364 239.731 65.3906C239.731 64.7668 239.232 64.377 238.655 64.3146C236.082 64.0495 233.291 64.5953 231.576 66.6849C230.422 68.0883 229.876 69.8193 229.72 71.6126C229.689 71.9712 229.673 72.3299 229.689 72.6886C229.72 73.2655 230.157 73.7645 230.765 73.7645C231.279 73.7489 231.825 73.2655 231.794 72.673Z" fill="#020202"/>
<path d="M336.602 184.279L296.666 197.331C297.305 200.2 297.851 207.046 297.43 210.664C294.342 237.704 262.967 243.364 258.086 243.879C253.205 244.394 211.788 242.6 196.88 253.906C181.957 265.227 175.704 277.39 179.571 280.228C181.879 281.928 185.325 278.591 187.726 275.659C185.247 279.371 182.253 284.829 184.202 287.261C186.136 289.678 190.44 284.953 193.371 281.086C190.892 285.016 188.225 290.489 191.235 292.236C194.276 293.998 197.707 288.868 199.859 284.735C198.143 288.977 196.599 294.684 200.342 295.323C205.94 296.29 203.071 272.946 242.165 275.769C281.259 278.591 331.144 288.119 344.773 258.288C355.096 235.63 350.512 206.22 336.602 184.279Z" fill="white"/>
<path d="M242.149 275.753C281.243 278.575 331.128 288.103 344.758 258.272C356.437 232.714 348.843 204.504 335.105 181.737L295.06 195.429C297.056 199.873 298.069 204.941 297.43 210.648C294.342 237.688 262.967 243.349 258.086 243.863C253.205 244.378 211.788 242.585 196.88 253.89C181.957 265.211 175.704 277.375 179.571 280.213C181.879 281.913 185.325 278.575 187.726 275.644C185.247 279.355 182.253 284.813 184.202 287.246C186.136 289.663 190.44 284.938 193.371 281.071C190.892 285 188.225 290.474 191.235 292.22C194.276 293.982 197.707 288.852 199.859 284.719C198.143 288.961 196.599 294.668 200.342 295.308C205.925 296.275 203.055 272.93 242.149 275.753Z" stroke="#020106" stroke-miterlimit="10"/>
</svg>
