<svg width="285" height="272" viewBox="0 0 285 272" fill="none" xmlns="http://www.w3.org/2000/svg">
<path d="M142.978 101.385C142.978 101.385 105.094 119.579 90.8872 92.9457C76.6807 66.3121 99.3312 33.5995 117.731 28.8506C136.131 24.1018 150.623 76.3247 142.978 101.385Z" fill="#FDE084"/>
<path d="M159.323 103.488C159.323 103.488 175.84 115.889 201.087 106.391C226.333 96.8935 210.815 50.4779 201.087 36.2314C191.359 21.9848 169.507 13.2882 159.78 17.7652C150.066 22.2566 142.05 74.3937 159.323 103.488Z" fill="#FDE084"/>
<path d="M102.897 65.1536C102.897 65.1536 108.987 51.2074 114.122 52.0656C119.257 52.9382 117.816 61.9781 117.103 66.9129C116.39 71.8334 114.008 78.0698 119.414 83.8343C124.82 89.5987 98.1612 80.9878 102.897 65.1536Z" fill="white" stroke="black" stroke-miterlimit="10"/>
<path d="M130.696 26.2474H146.201C156.513 26.2474 164.943 35.8738 164.943 47.6601V71.7762C164.943 72.4628 164.915 73.1207 164.858 73.793C165.029 74.5082 165.129 75.2377 165.129 75.9958V90.6714V91.4868V106.162C165.129 111.483 160.778 115.846 155.472 115.846H149.325C144.019 115.846 139.668 111.483 139.668 106.162V93.1746H130.696C120.384 93.1746 111.954 83.5482 111.954 71.7619V47.6458C111.94 35.8738 120.384 26.2474 130.696 26.2474Z" fill="white" stroke="black" stroke-miterlimit="10"/>
<path d="M155.131 68.4148C155.131 73.2352 151.237 77.1258 146.444 77.1258C141.652 77.1258 137.758 73.2209 137.758 68.4148C137.758 63.6088 141.652 59.7039 146.444 59.7039C151.237 59.7039 155.131 63.6088 155.131 68.4148Z" fill="#FCD9E7"/>
<path d="M114.28 62.5074C113.752 62.5074 113.238 62.5789 112.739 62.6933V71.7333C112.739 73.0778 112.796 74.3938 113.067 75.6668C113.424 75.724 113.895 75.7813 114.28 75.7813C117.931 75.7813 120.898 72.8061 120.898 69.1443C120.884 65.4826 117.931 62.5074 114.28 62.5074Z" fill="#FCD9E7"/>
<path d="M142.977 55.5271C142.977 57.4581 141.408 59.0315 139.483 59.0315C137.557 59.0315 135.988 57.4581 135.988 55.5271C135.988 53.5961 137.557 52.0227 139.483 52.0227C141.408 52.0227 142.977 53.5961 142.977 55.5271Z" fill="#0C0C0C"/>
<path d="M120.084 55.0122C120.084 56.6714 118.743 58.0017 117.103 58.0017C115.449 58.0017 114.122 56.6571 114.122 55.0122C114.122 53.353 115.463 52.0227 117.103 52.0227C118.758 52.0227 120.084 53.3673 120.084 55.0122Z" fill="#0C0C0C"/>
<path d="M122.908 71.1325C122.908 71.1325 124.663 76.2675 128.385 76.6251C132.094 76.9827 135.018 72.849 135.218 69.6306L122.908 71.1325Z" fill="#FFFDFD"/>
<path d="M122.138 71.3471C122.78 73.2066 123.935 75.066 125.504 76.2676C128.257 78.3845 131.823 77.3403 133.891 74.78C135.075 73.3067 135.874 71.5187 136.017 69.6306C136.045 69.2301 135.631 68.7867 135.218 68.8296C131.623 69.273 128.043 69.7164 124.449 70.1456C123.935 70.2028 123.436 70.2743 122.923 70.3315C122.495 70.3887 122.138 70.6605 122.124 71.1325C122.124 71.5187 122.495 71.9764 122.923 71.9335C126.517 71.4901 130.097 71.0467 133.692 70.6176C134.205 70.5604 134.704 70.4888 135.218 70.4316C134.947 70.1599 134.69 69.9024 134.419 69.6306C134.234 72.1767 132.379 75.0517 129.826 75.724C127.401 76.3677 125.547 74.4939 124.449 72.5486C124.221 72.1481 124.007 71.7333 123.821 71.3042C123.764 71.1611 123.864 71.4043 123.793 71.2326C123.778 71.1754 123.75 71.1325 123.736 71.0753C123.721 71.0324 123.693 70.9752 123.679 70.918C123.336 69.9596 121.796 70.3744 122.138 71.3471Z" fill="#0C0C0C"/>
<path d="M127.359 52.0227L128.072 63.9663L122.381 60.4905L127.359 52.0227Z" fill="#F76A59"/>
<path d="M169.451 23.0433L169.436 23.029C168.823 14.0606 163.717 5.75009 157.156 5.63566C142.692 5.37819 142.963 16.1918 142.963 16.1918C118.259 -14.4039 86.3941 3.79048 96.6496 26.2474C106.905 48.7042 146.558 45.1998 146.558 45.1998C148.583 45.2427 150.48 44.5418 152.192 44.8851C156.899 45.8292 160.165 51.6365 161.592 59.0315C165.129 77.3832 178.85 37.2898 169.451 23.0433Z" fill="#FDE084"/>
<path d="M172.132 50.4493C169.822 50.4493 167.639 51.0214 165.714 52.0227V55.8275C167.511 54.4972 169.722 53.6819 172.132 53.6819C178.052 53.6819 182.873 58.4594 182.873 64.3382C182.873 70.2171 178.052 75.0088 172.132 75.0088C169.722 75.0088 167.497 74.2078 165.714 72.8632V76.668C167.639 77.6693 169.822 78.2415 172.132 78.2415C179.835 78.2415 186.096 72.005 186.096 64.3382C186.096 56.6857 179.835 50.4493 172.132 50.4493Z" fill="black"/>
<path d="M184.485 64.3525C184.485 71.1325 178.951 76.6395 172.133 76.6395C165.315 76.6395 159.78 71.1468 159.78 64.3525C159.78 57.5726 165.315 52.0656 172.133 52.0656C178.965 52.0799 184.485 57.5726 184.485 64.3525Z" fill="white"/>
<path d="M166.442 65.9832C166.427 65.7114 166.442 65.454 166.456 65.1822C166.456 65.0534 166.47 64.939 166.484 64.8103C166.484 64.7388 166.499 64.6672 166.513 64.61C166.541 64.2953 166.484 64.8103 166.513 64.5671C166.57 64.2238 166.627 63.8805 166.713 63.5516C166.755 63.3799 166.812 63.2083 166.869 63.0366C166.898 62.9365 166.941 62.8364 166.969 62.7505C167.012 62.6504 167.126 62.4073 167.012 62.6361C167.197 62.2356 167.397 61.8494 167.64 61.4918C167.682 61.4346 167.896 61.1771 167.711 61.3917C167.782 61.3059 167.839 61.2344 167.911 61.1485C168.068 60.9769 168.239 60.8052 168.41 60.6479C168.467 60.605 168.752 60.3904 168.524 60.5478C168.624 60.4763 168.709 60.419 168.809 60.3475C169.023 60.2045 169.251 60.0757 169.494 59.9613C169.508 59.9613 169.722 59.8612 169.58 59.9184C169.451 59.9756 169.722 59.8612 169.751 59.8612C169.893 59.804 170.05 59.7611 170.207 59.7182C170.364 59.6752 170.521 59.6323 170.692 59.6037C170.749 59.5894 170.806 59.5751 170.863 59.5751C170.906 59.5751 171.263 59.5179 171.034 59.5465C171.847 59.4321 172.675 59.4607 173.473 59.5465C174.001 59.6037 174.458 59.0602 174.458 58.5595C174.458 57.9874 174.001 57.6298 173.473 57.5726C170.892 57.3008 168.096 57.8444 166.37 59.947C165.215 61.3488 164.673 63.0938 164.516 64.8818C164.487 65.2394 164.459 65.6113 164.487 65.9689C164.516 66.4981 164.915 66.9558 165.472 66.9558C165.971 66.9558 166.47 66.5124 166.442 65.9832Z" fill="#020202"/>
<path d="M254.162 230.347C244.649 155.682 179.821 100.927 136.074 116.804C101.271 129.449 86.0093 199.437 80.8887 230.347H254.162Z" fill="#E3D5F8" stroke="#020106" stroke-miterlimit="10"/>
<path d="M165.315 122.497H141.21C136.018 122.497 131.824 118.278 131.824 113.085V110.596C131.824 105.39 136.032 101.185 141.21 101.185H165.329C170.521 101.185 174.715 105.404 174.715 110.596V113.085C174.715 118.278 170.507 122.497 165.315 122.497Z" fill="#AE89F0" stroke="#020106" stroke-miterlimit="10"/>
<path d="M136.074 102.257V121.424" stroke="#020106" stroke-miterlimit="10"/>
<path d="M140.896 101.185V122.497" stroke="#020106" stroke-miterlimit="10"/>
<path d="M145.974 101.185V122.497" stroke="#020106" stroke-miterlimit="10"/>
<path d="M151.051 101.185V122.497" stroke="#020106" stroke-miterlimit="10"/>
<path d="M156.129 101.185V122.497" stroke="#020106" stroke-miterlimit="10"/>
<path d="M161.207 101.185V122.497" stroke="#020106" stroke-miterlimit="10"/>
<path d="M166.284 101.185V122.497" stroke="#020106" stroke-miterlimit="10"/>
<path d="M171.362 102.858V120.824" stroke="#020106" stroke-miterlimit="10"/>
<path d="M222.74 56.7C220.472 55.1838 218.161 64.6529 217.006 70.9323C217.419 65.7543 217.876 57.358 215.922 56.7429C213.853 56.0993 211.757 65.2108 210.758 70.8035C211.172 65.6256 211.671 56.9003 209.831 56.7429C207.478 56.5427 205.723 64.5671 204.71 70.8035C205.295 65.3538 205.609 58.7169 203.741 58.345C200.531 57.7013 199.576 61.5633 197.978 70.5604C196.381 79.5574 193.813 85.6651 181.632 90.8002C170.977 95.3058 158.354 101.771 146.572 140.978L180.99 142.608C181.033 141.607 181.076 140.62 181.147 139.633C183.543 103.001 204.069 104.289 213.811 96.8936C223.538 89.5414 227.133 59.6466 222.74 56.7Z" fill="white" stroke="#020106" stroke-miterlimit="10"/>
<path d="M205.196 230.348C189.777 210.379 179.436 174.148 181.033 141.722L147.015 139.605C145.189 145.569 143.363 152.278 141.58 159.916C133.978 192.443 138.927 216.144 144.447 230.362H205.196V230.348Z" fill="#E3D5F8" stroke="#020106" stroke-miterlimit="10"/>
<path d="M144.147 149.631H180.876C180.848 146.284 180.933 142.952 181.147 139.676C181.304 137.23 181.546 134.97 181.86 132.853L149.753 131.294C147.87 136.615 145.987 142.666 144.147 149.631Z" fill="#AE89F0" stroke="#020106" stroke-miterlimit="10"/>
<path d="M154.888 131.537L150.681 149.631" stroke="#020106" stroke-miterlimit="10"/>
<path d="M161.606 131.866L159.324 149.631" stroke="#020106" stroke-miterlimit="10"/>
<path d="M168.453 131.866L167.383 149.631" stroke="#020106" stroke-miterlimit="10"/>
<path d="M174.715 132.496L174.102 149.145" stroke="#020106" stroke-miterlimit="10"/>
<path d="M107.305 71.0467C105.907 62.8792 113.795 54.0967 111.171 52.0227C108.546 49.9487 93.9687 63.2368 98.1051 76.6394C102.242 90.0421 117.247 92.4165 111.984 112.456C110.115 119.579 106.036 129.277 100.944 139.776L135.19 140.663C137.43 116.59 135.062 98.9533 132.309 93.1603C129.057 86.3517 108.703 79.2141 107.305 71.0467Z" fill="white" stroke="black" stroke-miterlimit="10"/>
<path d="M111.769 230.347C118.33 211.652 130.169 176.093 133.535 154.123C134.334 148.945 134.905 143.996 135.318 139.276L102.626 136.257C93.2837 156.125 79.6905 179.712 70.3194 194.216C63.1448 205.316 59.365 218.847 58.9941 230.347H111.769Z" fill="#E3D5F8" stroke="#020106" stroke-miterlimit="10"/>
<path d="M134.249 149.088C135.062 142.866 135.576 136.987 135.847 131.552H104.795C102.427 136.83 99.6887 142.465 96.7646 148.187L134.249 149.088Z" fill="#AE89F0" stroke="black" stroke-miterlimit="10"/>
<path d="M109.203 131.866L104.596 149.088" stroke="black" stroke-miterlimit="10"/>
<path d="M115.779 131.866L113.554 148.587" stroke="black" stroke-miterlimit="10"/>
<path d="M121.755 131.537L120.913 148.759" stroke="black" stroke-miterlimit="10"/>
<path d="M128.929 131.537L127.617 148.916" stroke="black" stroke-miterlimit="10"/>
<path d="M8.91406 230.347H284.999" stroke="#020106" stroke-miterlimit="10"/>
<path d="M72.4157 271.271C112.016 271.271 144.119 262.503 144.119 251.689C144.119 240.874 112.016 232.107 72.4157 232.107C32.8154 232.107 0.712891 240.874 0.712891 251.689C0.712891 262.503 32.8154 271.271 72.4157 271.271Z" fill="white" stroke="#020106" stroke-miterlimit="10"/>
<path d="M72.4154 263.017C101.87 263.017 125.747 256.498 125.747 248.456C125.747 240.414 101.87 233.895 72.4154 233.895C42.9613 233.895 19.084 240.414 19.084 248.456C19.084 256.498 42.9613 263.017 72.4154 263.017Z" fill="white" stroke="#020106" stroke-miterlimit="10"/>
<path d="M101.299 251.689H43.7881C37.9115 251.689 33.1475 246.911 33.1475 241.018V199.623C33.1475 193.73 37.9115 188.952 43.7881 188.952H101.299C107.175 188.952 111.939 193.73 111.939 199.623V241.018C111.939 246.911 107.175 251.689 101.299 251.689Z" fill="#C9727B" stroke="#020106" stroke-miterlimit="10"/>
<path d="M111.939 231.892V215.929C106.077 213.426 99.1592 212.496 93.682 215.972C83.8401 222.209 66.1818 227.93 54.5998 218.447C47.1115 212.296 38.3822 213.111 33.1475 214.456V230.133C38.7816 229.003 45.243 229.732 51.1766 235.053C57.7664 240.961 84.1254 243.95 93.6677 236.641C100.443 231.449 106.804 230.848 111.939 231.892Z" fill="#F76A59" stroke="#020106" stroke-miterlimit="10"/>
<path d="M44.4727 225.026C44.4727 226.557 43.2318 227.801 41.7056 227.801C40.1794 227.801 38.9385 226.557 38.9385 225.026C38.9385 223.496 40.1794 222.252 41.7056 222.252C43.2461 222.266 44.4727 223.496 44.4727 225.026Z" fill="#FD8D5D"/>
<path d="M70.1758 231.721C70.1758 234.71 67.7653 237.127 64.7842 237.127C61.8031 237.127 59.3926 234.71 59.3926 231.721C59.3926 228.731 61.8031 226.314 64.7842 226.314C67.7653 226.314 70.1758 228.731 70.1758 231.721Z" fill="#FD8D5D"/>
<path d="M53.6437 231.721C53.6437 232.479 53.0303 233.079 52.2886 233.079C51.5327 233.079 50.9336 232.464 50.9336 231.721C50.9336 230.963 51.5469 230.362 52.2886 230.362C53.0303 230.347 53.6437 230.963 53.6437 231.721Z" fill="#FD8D5D"/>
<path d="M88.9895 234.91C88.9895 236.97 87.3207 238.644 85.2667 238.644C83.2128 238.644 81.5439 236.97 81.5439 234.91C81.5439 232.851 83.2128 231.177 85.2667 231.177C87.3207 231.177 88.9895 232.851 88.9895 234.91Z" fill="#FD8D5D"/>
<path d="M93.796 231.706C95.0328 231.706 96.0354 230.701 96.0354 229.461C96.0354 228.22 95.0328 227.215 93.796 227.215C92.5592 227.215 91.5566 228.22 91.5566 229.461C91.5566 230.701 92.5592 231.706 93.796 231.706Z" fill="#FD8D5D"/>
<path d="M87.5061 224.74C87.5061 225.985 86.5076 226.986 85.2667 226.986C84.0258 226.986 83.0273 225.985 83.0273 224.74C83.0273 223.496 84.0258 222.495 85.2667 222.495C86.5076 222.495 87.5061 223.496 87.5061 224.74Z" fill="#FD8D5D"/>
<path d="M52.6174 221.465C52.6174 222.709 51.619 223.711 50.378 223.711C49.1371 223.711 48.1387 222.709 48.1387 221.465C48.1387 220.22 49.1371 219.219 50.378 219.219C51.619 219.219 52.6174 220.235 52.6174 221.465Z" fill="#FD8D5D"/>
<path d="M110.37 224.311C110.37 226.9 108.274 228.989 105.706 228.989C103.124 228.989 101.042 226.886 101.042 224.311C101.042 221.737 103.139 219.634 105.706 219.634C108.274 219.62 110.37 221.722 110.37 224.311Z" fill="#FD8D5D"/>
<path d="M98.261 219.691C98.261 220.678 97.4622 221.465 96.4923 221.465C95.5081 221.465 94.7236 220.664 94.7236 219.691C94.7236 218.704 95.5224 217.917 96.4923 217.917C97.4765 217.903 98.261 218.704 98.261 219.691Z" fill="#FD8D5D"/>
<path d="M37.6973 217.617C37.6973 218.175 37.2409 218.633 36.6846 218.633C36.1283 218.633 35.6719 218.175 35.6719 217.617C35.6719 217.059 36.1283 216.602 36.6846 216.602C37.2409 216.587 37.6973 217.045 37.6973 217.617Z" fill="#FD8D5D"/>
<path d="M27.7702 204.586C25.1457 200.367 30.0666 190.469 42.9894 187.436C55.9121 184.404 89.7167 184.69 104.964 187.436C109.586 188.266 117.588 191.255 117.716 201.282C117.844 211.309 101.941 217.302 91.5568 203.127C91.5568 203.127 91.2287 213.812 80.9304 214.599C70.6321 215.386 70.9602 202.598 70.9602 202.598C70.9602 202.598 69.8904 213.669 61.0613 212.625C52.2179 211.567 52.2749 200.367 52.2749 200.367C52.2749 200.367 35.0446 216.258 27.7702 204.586Z" fill="#FAE9EF" stroke="#020106" stroke-miterlimit="10"/>
<path d="M73.1707 197.334C79.8508 197.334 85.2662 191.904 85.2662 185.205C85.2662 178.506 79.8508 173.075 73.1707 173.075C66.4905 173.075 61.0752 178.506 61.0752 185.205C61.0752 191.904 66.4905 197.334 73.1707 197.334Z" fill="#F76A59" stroke="#020106" stroke-miterlimit="10"/>
<path d="M69.0632 179.226L55.7695 161.904" stroke="#020106" stroke-miterlimit="10"/>
<path d="M50.9692 176.019C56.7105 175.008 60.9232 171.666 60.3784 168.554C59.8335 165.442 54.7376 163.738 48.9962 164.749C43.2549 165.76 39.0422 169.102 39.5871 172.214C40.1319 175.326 45.2278 177.03 50.9692 176.019Z" fill="#46B7A1" stroke="#020106" stroke-miterlimit="10"/>
<path d="M60.3914 168.555L39.6094 172.217" stroke="#020106" stroke-miterlimit="10"/>
<path d="M42.9893 166.982L50.0212 170.544" stroke="#020106" stroke-miterlimit="10"/>
<path d="M37.4135 260.772C44.6608 260.772 50.5359 254.841 50.5359 247.526C50.5359 240.211 44.6608 234.281 37.4135 234.281C30.1661 234.281 24.291 240.211 24.291 247.526C24.291 254.841 30.1661 260.772 37.4135 260.772Z" fill="#F76A59" stroke="#020106" stroke-miterlimit="10"/>
<path d="M32.963 241.004L18.5283 222.094" stroke="#020106" stroke-miterlimit="10"/>
<path d="M72.0434 265.925C78.0293 264.051 81.3784 257.702 79.5238 251.745C77.6693 245.787 71.3134 242.477 65.3276 244.351C59.3417 246.225 55.9926 252.573 57.8472 258.531C59.7017 264.488 66.0576 267.799 72.0434 265.925Z" fill="#F76A59" stroke="#020106" stroke-miterlimit="10"/>
<path d="M72.8867 249.801L84.6541 233.079" stroke="#020106" stroke-miterlimit="10"/>
<path d="M253.877 216.058H248.528V220.85H253.877C255.246 220.85 256.373 221.965 256.373 223.353V240.575C256.373 241.948 255.261 243.078 253.877 243.078H248.528V247.87H253.877C257.885 247.87 261.137 244.594 261.137 240.575V223.353C261.152 219.319 257.885 216.058 253.877 216.058Z" fill="white" stroke="black" stroke-miterlimit="10"/>
<path d="M200.331 208.992V255.894C200.331 261.258 204.667 265.606 210.016 265.606H238.857C244.206 265.606 248.542 261.258 248.542 255.894V208.992H200.331Z" fill="white" stroke="black" stroke-miterlimit="10"/>
<path d="M248.528 208.32C248.528 211.238 237.745 213.598 224.423 213.598C211.115 213.598 200.317 211.238 200.317 208.32C200.317 205.402 211.101 203.042 224.423 203.042C237.745 203.027 248.528 205.402 248.528 208.32Z" fill="white" stroke="black" stroke-miterlimit="10"/>
<path d="M224.423 255.122C224.423 255.122 203.199 236.841 209.503 228.974C215.822 221.122 224.423 237.113 224.423 237.113C224.423 237.113 229.757 220.735 237.117 223.696C244.492 226.671 224.423 255.122 224.423 255.122Z" fill="#FCD9E7" stroke="black" stroke-miterlimit="10"/>
<path d="M231.44 191.828C233.309 185.577 232.838 182.501 253.364 177.767C273.875 173.018 281.249 153.15 279.837 138.56C278.439 123.971 268.24 109.667 250.639 115.345C241.896 118.178 232.225 130.994 240.869 145.24C249.498 159.487 249.07 164.936 240.869 167.754C232.667 170.572 216.364 178.31 217.063 190.44C217.776 202.555 228.331 202.226 231.44 191.828Z" stroke="black" stroke-miterlimit="10"/>
</svg>
