<svg width="285" height="246" viewBox="0 0 285 246" fill="none" xmlns="http://www.w3.org/2000/svg">
<g clip-path="url(#clip0)">
<path d="M137.529 134.312C137.529 134.312 162.822 167.021 202.128 159.672C241.434 152.324 255.209 57.955 255.209 57.955L273.633 84.8906C273.633 84.8906 255.751 173.487 228.933 198.872C202.115 224.257 127.422 192.746 127.422 192.746L137.529 134.312Z" fill="white" stroke="#020106" stroke-miterlimit="10"/>
<path d="M264.03 123.737C269.751 103.533 273.645 84.8906 273.645 84.8906L255.221 57.955C255.221 57.955 251.037 86.6048 240.703 113.566L264.03 123.737Z" fill="#B67563" stroke="#020106" stroke-miterlimit="10"/>
<path d="M235.449 125.855L260.276 135.787C261.75 131.124 263.124 126.548 264.384 122.162L241.41 111.688C239.621 116.502 237.629 121.279 235.449 125.855Z" fill="#FCD9E7" stroke="#020106" stroke-miterlimit="10"/>
<path d="M164.801 165.08C164.801 167.197 163.087 168.912 160.97 168.912C158.853 168.912 157.139 167.197 157.139 165.08C157.139 162.962 158.853 161.248 160.97 161.248C163.087 161.235 164.801 162.95 164.801 165.08Z" fill="#FCD9E7"/>
<path d="M173.66 180.218C174.996 180.218 176.079 179.134 176.079 177.798C176.079 176.461 174.996 175.378 173.66 175.378C172.324 175.378 171.24 176.461 171.24 177.798C171.24 179.134 172.324 180.218 173.66 180.218Z" fill="#FCD9E7"/>
<path d="M182.607 167.727C182.607 169.189 181.423 170.374 179.961 170.374C178.499 170.374 177.314 169.189 177.314 167.727C177.314 166.265 178.499 165.08 179.961 165.08C181.423 165.08 182.607 166.265 182.607 167.727Z" fill="#FCD9E7"/>
<path d="M200.439 170.222C200.439 171.836 199.141 173.134 197.528 173.134C195.915 173.134 194.617 171.836 194.617 170.222C194.617 168.609 195.915 167.311 197.528 167.311C199.141 167.311 200.439 168.609 200.439 170.222Z" fill="#FCD9E7"/>
<path d="M229.665 168.496C229.665 169.239 229.061 169.857 228.304 169.857C227.561 169.857 226.943 169.252 226.943 168.496C226.943 167.739 227.548 167.134 228.304 167.134C229.061 167.134 229.665 167.739 229.665 168.496Z" fill="#FCD9E7"/>
<path d="M229.664 155.5C229.664 157.026 228.429 158.261 226.904 158.261C225.38 158.261 224.145 157.026 224.145 155.5C224.145 153.975 225.38 152.74 226.904 152.74C228.429 152.74 229.664 153.975 229.664 155.5Z" fill="#FCD9E7"/>
<path d="M243.753 164.487C243.753 166.277 242.304 167.727 240.514 167.727C238.725 167.727 237.275 166.277 237.275 164.487C237.275 162.698 238.725 161.248 240.514 161.248C242.304 161.235 243.753 162.685 243.753 164.487Z" fill="#FCD9E7"/>
<path d="M240.515 152.4C240.515 153.799 239.381 154.933 237.982 154.933C236.583 154.933 235.449 153.799 235.449 152.4C235.449 151.001 236.583 149.866 237.982 149.866C239.381 149.866 240.515 151.001 240.515 152.4Z" fill="#FCD9E7"/>
<path d="M236.217 140.426C237.498 140.426 238.536 139.387 238.536 138.106C238.536 136.825 237.498 135.787 236.217 135.787C234.937 135.787 233.898 136.825 233.898 138.106C233.898 139.387 234.937 140.426 236.217 140.426Z" fill="#FCD9E7"/>
<path d="M254.415 145.278C254.415 146.854 253.129 148.139 251.554 148.139C249.979 148.139 248.693 146.854 248.693 145.278C248.693 143.703 249.979 142.417 251.554 142.417C253.142 142.404 254.415 143.69 254.415 145.278Z" fill="#FCD9E7"/>
<path d="M246.702 137.337C247.802 137.337 248.693 136.446 248.693 135.346C248.693 134.246 247.802 133.355 246.702 133.355C245.602 133.355 244.711 134.246 244.711 135.346C244.711 136.446 245.602 137.337 246.702 137.337Z" fill="#FCD9E7"/>
<path d="M245.295 30.2843L241.291 32.6248L280.12 99.0665L284.123 96.7259L245.295 30.2843Z" fill="#E3D5F8" stroke="#020106" stroke-miterlimit="10"/>
<path d="M247.857 39.2752C253.229 36.1349 252.638 25.1269 246.537 14.6882C240.437 4.24953 231.137 -1.66701 225.765 1.47329C220.394 4.61358 220.984 15.6215 227.085 26.0602C233.185 36.4989 242.485 42.4155 247.857 39.2752Z" fill="#E3D5F8" stroke="#020106" stroke-miterlimit="10"/>
<path d="M242.922 16.8017C246.753 23.3433 247.118 30.2505 243.754 32.2168C240.389 34.1831 234.554 30.4774 230.723 23.9357C226.892 17.3941 226.526 10.4869 229.891 8.52057C233.268 6.55429 239.103 10.26 242.922 16.8017Z" stroke="#020106" stroke-miterlimit="10"/>
<path d="M267.433 61.6481C266.135 66.2361 263.942 69.6141 262.518 69.2107C261.094 68.8074 260.98 64.774 262.278 60.186C263.576 55.6106 265.769 52.22 267.193 52.6234C268.617 53.0267 268.731 57.0601 267.433 61.6481Z" fill="#B67563" stroke="#020106" stroke-miterlimit="10"/>
<path d="M271.403 65.8958C270.105 70.4838 267.913 73.8618 266.489 73.4584C265.064 73.0551 264.951 69.0217 266.249 64.4337C267.547 59.8457 269.74 56.4677 271.164 56.871C272.588 57.2744 272.701 61.3204 271.403 65.8958Z" fill="#B67563" stroke="#020106" stroke-miterlimit="10"/>
<path d="M275.386 69.9418C274.088 74.5298 271.895 77.9078 270.471 77.5044C269.047 77.1011 268.933 73.0677 270.232 68.4797C271.53 63.8917 273.722 60.5137 275.146 60.9171C276.57 61.3204 276.684 65.3664 275.386 69.9418Z" fill="#B67563" stroke="#020106" stroke-miterlimit="10"/>
<path d="M279.052 75.4877C277.754 80.0757 275.561 83.4537 274.137 83.0504C272.713 82.647 272.599 78.6136 273.898 74.0256C275.196 69.4376 277.388 66.0596 278.812 66.463C280.236 66.8663 280.35 70.9123 279.052 75.4877Z" fill="#B67563" stroke="#020106" stroke-miterlimit="10"/>
<path d="M251.125 75.3491C251.125 75.3491 255.574 50.5688 258.409 49.863C261.245 49.1571 259.266 64.3076 259.266 64.3076L258.409 79.1178" fill="#B67563"/>
<path d="M250.949 79.4951C250.949 79.4951 255.574 50.6941 258.41 49.8748C261.245 49.0681 259.267 66.6387 259.267 66.6387L258.41 83.8311" stroke="#020106" stroke-miterlimit="10"/>
<path d="M164.637 237.668C164.738 234.845 164.801 231.984 164.801 229.097C164.801 169.605 142.18 121.368 114.266 121.368C86.3515 121.368 63.7305 169.605 63.7305 229.097C63.7305 231.984 63.7809 234.845 63.8943 237.668H164.637Z" fill="white" stroke="#020106" stroke-miterlimit="10"/>
<path d="M74.1905 193.465C76.014 193.465 77.4922 191.986 77.4922 190.163C77.4922 188.339 76.014 186.86 74.1905 186.86C72.3669 186.86 70.8887 188.339 70.8887 190.163C70.8887 191.986 72.3669 193.465 74.1905 193.465Z" fill="#FCD9E7"/>
<path d="M99.6463 179.537C99.6463 181.012 98.4617 182.197 96.9872 182.197C95.5127 182.197 94.3281 181.012 94.3281 179.537C94.3281 178.075 95.5127 176.877 96.9872 176.877C98.4491 176.877 99.6463 178.075 99.6463 179.537Z" fill="#FCD9E7"/>
<path d="M86.3765 172.239C86.3765 173.499 85.3557 174.52 84.0955 174.52C82.8352 174.52 81.8145 173.499 81.8145 172.239C81.8145 170.979 82.8352 169.958 84.0955 169.958C85.3557 169.958 86.3765 170.979 86.3765 172.239Z" fill="#FCD9E7"/>
<path d="M123.603 214.754C123.603 216.884 121.877 218.611 119.747 218.611C117.617 218.611 115.891 216.884 115.891 214.754C115.891 212.624 117.617 210.897 119.747 210.897C121.877 210.897 123.603 212.624 123.603 214.754Z" fill="#FCD9E7"/>
<path d="M105.721 230.081C105.721 231.757 104.36 233.118 102.684 233.118C101.008 233.118 99.6465 231.757 99.6465 230.081C99.6465 228.404 101.008 227.043 102.684 227.043C104.36 227.043 105.721 228.404 105.721 230.081Z" fill="#FCD9E7"/>
<path d="M72.7154 233.005C72.7154 234.883 71.1905 236.408 69.3128 236.408C67.435 236.408 65.9102 234.883 65.9102 233.005C65.9102 231.127 67.435 229.602 69.3128 229.602C71.1905 229.602 72.7154 231.127 72.7154 233.005Z" fill="#FCD9E7"/>
<path d="M135.564 235.286C137.679 235.286 139.395 233.571 139.395 231.455C139.395 229.338 137.679 227.623 135.564 227.623C133.448 227.623 131.732 229.338 131.732 231.455C131.732 233.571 133.448 235.286 135.564 235.286Z" fill="#FCD9E7"/>
<path d="M152.147 215.258C152.147 216.985 150.748 218.384 149.022 218.384C147.295 218.384 145.896 216.985 145.896 215.258C145.896 213.531 147.295 212.132 149.022 212.132C150.748 212.132 152.147 213.531 152.147 215.258Z" fill="#FCD9E7"/>
<path d="M161.17 229.072C161.17 230.383 160.111 231.455 158.788 231.455C157.465 231.455 156.406 230.396 156.406 229.072C156.406 227.761 157.465 226.69 158.788 226.69C160.111 226.69 161.17 227.761 161.17 229.072Z" fill="#FCD9E7"/>
<path d="M160.212 197.498C160.212 199.729 158.41 201.532 156.179 201.532C153.949 201.532 152.146 199.729 152.146 197.498C152.146 195.267 153.949 193.465 156.179 193.465C158.41 193.465 160.212 195.267 160.212 197.498Z" fill="#FCD9E7"/>
<path d="M105.129 165.886C106.451 165.886 107.523 164.814 107.523 163.492C107.523 162.169 106.451 161.097 105.129 161.097C103.806 161.097 102.734 162.169 102.734 163.492C102.734 164.814 103.806 165.886 105.129 165.886Z" fill="#FCD9E7"/>
<path d="M129.59 154.87C129.59 156.622 128.166 158.046 126.414 158.046C124.662 158.046 123.238 156.622 123.238 154.87C123.238 153.118 124.662 151.694 126.414 151.694C128.166 151.694 129.59 153.118 129.59 154.87Z" fill="#FCD9E7"/>
<path d="M146.514 167.059C146.514 169.025 144.913 170.626 142.947 170.626C140.981 170.626 139.381 169.025 139.381 167.059C139.381 165.092 140.981 163.492 142.947 163.492C144.926 163.492 146.514 165.092 146.514 167.059Z" fill="#FCD9E7"/>
<path d="M141.978 153.446C141.978 154.416 141.184 155.211 140.214 155.211C139.243 155.211 138.449 154.416 138.449 153.446C138.449 152.475 139.243 151.681 140.214 151.681C141.184 151.694 141.978 152.475 141.978 153.446Z" fill="#FCD9E7"/>
<path d="M113.634 146.11C113.634 146.955 112.953 147.635 112.109 147.635C111.265 147.635 110.584 146.955 110.584 146.11C110.584 145.266 111.265 144.585 112.109 144.585C112.953 144.585 113.634 145.266 113.634 146.11Z" fill="#FCD9E7"/>
<path d="M129.817 138.913C129.817 140.224 128.758 141.283 127.447 141.283C126.137 141.283 125.078 140.224 125.078 138.913C125.078 137.602 126.137 136.543 127.447 136.543C128.758 136.543 129.817 137.602 129.817 138.913Z" fill="#FCD9E7"/>
<path d="M127.433 193.49C127.433 193.49 125.152 198.847 129.323 202.074C133.495 205.3 138.51 198.645 138.51 198.645L127.433 193.49Z" fill="#FDE084" stroke="#020106" stroke-miterlimit="10"/>
<path d="M130.408 163.655L125.833 161.525C125.833 161.525 113.861 183.117 125.115 194.335C136.356 205.552 155.776 201.973 162.581 178.617L130.408 163.655Z" fill="#FDE084" stroke="#020106" stroke-miterlimit="10"/>
<path d="M162.568 178.617C161.623 180.659 152.625 178.478 142.48 173.764C132.336 169.05 124.875 163.567 125.833 161.525C126.778 159.483 135.776 161.664 145.921 166.378C156.066 171.105 163.514 176.588 162.568 178.617Z" fill="white" stroke="#020106" stroke-miterlimit="10"/>
<path d="M154.558 174.899C155.093 173.75 150.886 170.66 145.162 167.997C139.438 165.334 134.365 164.106 133.831 165.255C133.296 166.404 137.503 169.494 143.227 172.157C148.951 174.82 154.024 176.048 154.558 174.899Z" fill="#FDE084" stroke="#020106" stroke-width="0.5" stroke-miterlimit="10"/>
<path d="M134.201 165.37L154.566 174.899" stroke="#020106" stroke-width="0.5" stroke-miterlimit="10"/>
<path d="M143.236 172.163L145.379 168.092" stroke="#020106" stroke-width="0.5" stroke-miterlimit="10"/>
<path d="M139.947 165.886L149.273 174.52" stroke="#020106" stroke-width="0.5" stroke-miterlimit="10"/>
<path d="M137.881 169.29L150.118 170.626" stroke="#020106" stroke-width="0.5" stroke-miterlimit="10"/>
<path d="M126.451 180.785C126.451 180.797 126.438 180.81 126.438 180.81C126.388 180.886 126.362 180.961 126.362 181.05C126.35 181.138 126.35 181.213 126.375 181.302C126.4 181.39 126.438 181.453 126.488 181.516C126.539 181.579 126.589 181.642 126.665 181.68C126.816 181.755 126.992 181.793 127.156 181.743C127.207 181.718 127.257 181.705 127.307 181.68C127.408 181.629 127.471 181.554 127.534 181.453C127.61 181.276 127.698 181.1 127.774 180.923C127.408 180.709 127.043 180.495 126.69 180.293C126.589 180.52 126.488 180.734 126.375 180.961C126.324 181.037 126.299 181.113 126.299 181.201C126.287 181.289 126.287 181.365 126.312 181.453C126.337 181.541 126.375 181.604 126.425 181.667C126.476 181.73 126.526 181.793 126.602 181.831C126.753 181.907 126.929 181.944 127.093 181.894C127.144 181.869 127.194 181.856 127.244 181.831C127.345 181.781 127.408 181.705 127.471 181.604C127.572 181.377 127.673 181.163 127.786 180.936C127.837 180.86 127.862 180.785 127.862 180.697C127.875 180.608 127.875 180.533 127.849 180.445C127.824 180.356 127.786 180.293 127.736 180.23C127.686 180.167 127.635 180.104 127.56 180.066C127.408 179.991 127.232 179.953 127.068 180.003C127.018 180.029 126.967 180.041 126.917 180.066C126.816 180.117 126.753 180.192 126.69 180.293C126.614 180.47 126.526 180.646 126.451 180.823C126.816 181.037 127.181 181.251 127.534 181.453C127.534 181.44 127.547 181.428 127.547 181.428C127.597 181.352 127.623 181.276 127.623 181.188C127.635 181.1 127.635 181.024 127.61 180.936C127.585 180.848 127.547 180.785 127.497 180.722C127.446 180.659 127.396 180.596 127.32 180.558C127.169 180.482 126.992 180.445 126.829 180.495C126.778 180.52 126.728 180.533 126.677 180.558C126.577 180.608 126.501 180.684 126.451 180.785Z" fill="#020106"/>
<path d="M130.143 173.31C130.017 173.588 129.891 173.865 129.765 174.142C130.155 174.243 130.546 174.357 130.937 174.457C130.924 174.344 130.937 174.218 130.949 174.105C130.937 174.155 130.937 174.218 130.924 174.268C130.949 174.104 130.987 173.941 131.063 173.777C131.037 173.827 131.025 173.878 131 173.928C131.037 173.827 131.1 173.726 131.151 173.638C130.785 173.424 130.42 173.21 130.067 173.008C129.928 173.31 129.777 173.613 129.639 173.928C129.588 174.004 129.563 174.079 129.563 174.168C129.55 174.256 129.55 174.331 129.576 174.42C129.613 174.571 129.727 174.722 129.865 174.798C130.017 174.873 130.193 174.911 130.357 174.861C130.508 174.81 130.659 174.722 130.735 174.571C130.874 174.268 131.025 173.966 131.163 173.651C131.214 173.575 131.239 173.499 131.239 173.411C131.252 173.323 131.252 173.247 131.226 173.159C131.189 173.008 131.075 172.857 130.937 172.781C130.785 172.705 130.609 172.668 130.445 172.718C130.281 172.768 130.168 172.869 130.067 173.008C129.79 173.424 129.651 173.953 129.676 174.457C129.689 174.596 129.727 174.722 129.815 174.836C129.891 174.936 130.017 175.037 130.143 175.062C130.256 175.088 130.37 175.088 130.483 175.062C130.571 175.037 130.634 174.999 130.697 174.949C130.76 174.899 130.823 174.848 130.861 174.773C130.987 174.495 131.113 174.218 131.239 173.941C131.289 173.865 131.315 173.789 131.315 173.701C131.327 173.613 131.327 173.537 131.302 173.449C131.264 173.298 131.151 173.147 131.012 173.071C130.861 172.995 130.685 172.958 130.521 173.008C130.37 173.058 130.206 173.159 130.143 173.31Z" fill="#020106"/>
<path d="M126.437 176.424C126.576 176.121 126.727 175.806 126.866 175.504C126.916 175.428 126.941 175.352 126.941 175.264C126.954 175.176 126.954 175.1 126.929 175.012C126.891 174.861 126.777 174.71 126.639 174.634C126.488 174.558 126.311 174.52 126.147 174.571C125.996 174.621 125.845 174.71 125.769 174.861C125.706 174.987 125.643 175.125 125.593 175.252C125.542 175.327 125.517 175.403 125.517 175.491C125.505 175.579 125.505 175.655 125.53 175.743C125.568 175.894 125.681 176.046 125.82 176.121C125.971 176.197 126.147 176.235 126.311 176.184C126.462 176.134 126.614 176.046 126.689 175.894C126.752 175.768 126.815 175.63 126.866 175.504C126.5 175.289 126.135 175.075 125.782 174.873C125.643 175.176 125.492 175.491 125.353 175.794C125.303 175.869 125.278 175.945 125.278 176.033C125.265 176.121 125.265 176.197 125.29 176.285C125.328 176.436 125.442 176.588 125.58 176.663C125.731 176.739 125.908 176.777 126.072 176.726C126.21 176.663 126.374 176.562 126.437 176.424Z" fill="#020106"/>
<path d="M152.435 190.226C152.435 190.226 152.435 190.213 152.422 190.213C152.447 190.263 152.46 190.314 152.485 190.364C152.473 190.314 152.46 190.276 152.447 190.226C152.46 190.276 152.46 190.339 152.473 190.389C152.46 190.339 152.46 190.276 152.473 190.226C152.46 190.276 152.46 190.339 152.447 190.389C152.46 190.339 152.473 190.289 152.485 190.238C152.46 190.289 152.447 190.339 152.422 190.389C152.435 190.377 152.435 190.364 152.447 190.352C152.082 190.137 151.716 189.923 151.364 189.721C151.25 189.961 151.137 190.213 151.023 190.452C150.973 190.528 150.948 190.604 150.948 190.692C150.935 190.78 150.935 190.856 150.96 190.944C150.998 191.095 151.112 191.246 151.25 191.322C151.401 191.398 151.578 191.436 151.742 191.385C151.893 191.335 152.044 191.246 152.12 191.095C152.271 190.768 152.435 190.427 152.586 190.099C152.636 190.024 152.662 189.948 152.662 189.86C152.674 189.772 152.674 189.696 152.649 189.608C152.611 189.457 152.498 189.305 152.359 189.23C152.208 189.154 152.032 189.116 151.868 189.167C151.716 189.217 151.565 189.305 151.49 189.457C151.338 189.784 151.175 190.125 151.023 190.452C151.389 190.667 151.754 190.881 152.107 191.083C152.221 190.843 152.334 190.591 152.447 190.352C152.498 190.276 152.523 190.2 152.523 190.112C152.536 190.024 152.536 189.948 152.51 189.86C152.473 189.709 152.359 189.558 152.221 189.482C152.069 189.406 151.893 189.368 151.729 189.419C151.578 189.469 151.427 189.557 151.351 189.709C151.25 189.898 151.2 190.074 151.2 190.289C151.2 190.389 151.212 190.49 151.238 190.591C151.25 190.692 151.301 190.78 151.338 190.868C151.376 190.944 151.427 191.007 151.502 191.045C151.565 191.095 151.628 191.133 151.716 191.158C151.868 191.196 152.069 191.183 152.208 191.095C152.347 191.007 152.46 190.881 152.498 190.717C152.51 190.667 152.51 190.604 152.523 190.553C152.523 190.44 152.498 190.326 152.435 190.226Z" fill="#020106"/>
<path d="M149.448 186.696C149.524 186.532 149.599 186.369 149.675 186.217C149.725 186.142 149.751 186.066 149.751 185.978C149.763 185.89 149.763 185.814 149.738 185.726C149.7 185.575 149.587 185.423 149.448 185.348C149.297 185.272 149.12 185.234 148.957 185.285C148.805 185.335 148.654 185.423 148.579 185.575C148.427 185.89 148.276 186.217 148.138 186.532C148.503 186.747 148.868 186.961 149.221 187.163C149.373 186.835 149.536 186.495 149.688 186.167C149.738 186.091 149.763 186.016 149.763 185.927C149.776 185.839 149.776 185.764 149.751 185.675C149.713 185.524 149.599 185.373 149.461 185.297C149.31 185.222 149.133 185.184 148.969 185.234C148.818 185.285 148.667 185.373 148.591 185.524C148.44 185.852 148.276 186.192 148.125 186.52C148.074 186.595 148.049 186.671 148.049 186.759C148.037 186.848 148.037 186.923 148.062 187.011C148.1 187.163 148.213 187.314 148.352 187.39C148.503 187.465 148.679 187.503 148.843 187.453C148.994 187.402 149.146 187.314 149.221 187.163C149.373 186.848 149.524 186.52 149.662 186.205C149.297 185.99 148.931 185.776 148.579 185.575C148.503 185.738 148.427 185.902 148.352 186.053C148.301 186.129 148.276 186.205 148.276 186.293C148.264 186.381 148.264 186.457 148.289 186.545C148.327 186.696 148.44 186.848 148.579 186.923C148.73 186.999 148.906 187.037 149.07 186.986C149.221 186.948 149.385 186.848 149.448 186.696Z" fill="#020106"/>
<path d="M153.822 182.612C153.658 182.978 153.482 183.331 153.318 183.696C153.683 183.911 154.049 184.125 154.401 184.327C154.515 184.075 154.641 183.823 154.754 183.558C154.389 183.344 154.023 183.129 153.671 182.928C153.532 183.23 153.393 183.533 153.242 183.835C153.192 183.911 153.166 183.986 153.166 184.075C153.154 184.163 153.154 184.238 153.179 184.327C153.217 184.478 153.33 184.629 153.469 184.705C153.62 184.78 153.797 184.818 153.96 184.768C154.112 184.717 154.263 184.629 154.338 184.478C154.477 184.175 154.616 183.873 154.767 183.57C154.817 183.495 154.843 183.419 154.843 183.331C154.855 183.243 154.855 183.167 154.83 183.079C154.792 182.928 154.679 182.776 154.54 182.701C154.389 182.625 154.212 182.587 154.049 182.638C153.897 182.688 153.746 182.776 153.671 182.928C153.557 183.18 153.431 183.432 153.318 183.696C153.267 183.772 153.242 183.848 153.242 183.936C153.229 184.024 153.229 184.1 153.255 184.188C153.293 184.339 153.406 184.491 153.545 184.566C153.696 184.642 153.872 184.68 154.036 184.629C154.187 184.579 154.338 184.491 154.414 184.339C154.578 183.974 154.754 183.621 154.918 183.255C154.969 183.18 154.994 183.104 154.994 183.016C155.006 182.928 155.006 182.852 154.981 182.764C154.943 182.612 154.83 182.461 154.691 182.386C154.54 182.31 154.364 182.272 154.2 182.323C154.049 182.373 153.885 182.461 153.822 182.612Z" fill="#020106"/>
<path d="M141.988 193.793C141.913 193.956 141.837 194.108 141.762 194.272C141.711 194.347 141.686 194.423 141.686 194.511C141.673 194.599 141.673 194.675 141.699 194.763C141.724 194.851 141.762 194.914 141.812 194.977C141.862 195.04 141.913 195.103 141.988 195.141C142.039 195.166 142.089 195.179 142.14 195.204C142.253 195.229 142.367 195.229 142.48 195.204C142.53 195.179 142.581 195.166 142.631 195.141C142.732 195.091 142.795 195.015 142.858 194.914C142.934 194.751 143.009 194.599 143.085 194.435C143.135 194.36 143.16 194.284 143.16 194.196C143.173 194.108 143.173 194.032 143.148 193.944C143.123 193.856 143.085 193.793 143.034 193.73C142.984 193.667 142.934 193.604 142.858 193.566C142.808 193.541 142.757 193.528 142.707 193.503C142.593 193.477 142.48 193.477 142.367 193.503C142.316 193.528 142.266 193.541 142.215 193.566C142.127 193.616 142.051 193.692 141.988 193.793C141.913 193.956 141.837 194.108 141.762 194.272C141.711 194.347 141.686 194.423 141.686 194.511C141.673 194.599 141.673 194.675 141.699 194.763C141.724 194.851 141.762 194.914 141.812 194.977C141.862 195.04 141.913 195.103 141.988 195.141C142.039 195.166 142.089 195.179 142.14 195.204C142.253 195.229 142.367 195.229 142.48 195.204C142.53 195.179 142.581 195.166 142.631 195.141C142.732 195.091 142.795 195.015 142.858 194.914C142.934 194.751 143.009 194.599 143.085 194.435C143.135 194.36 143.16 194.284 143.16 194.196C143.173 194.108 143.173 194.032 143.148 193.944C143.123 193.856 143.085 193.793 143.034 193.73C142.984 193.667 142.934 193.604 142.858 193.566C142.808 193.541 142.757 193.528 142.707 193.503C142.593 193.477 142.48 193.477 142.367 193.503C142.316 193.528 142.266 193.541 142.215 193.566C142.127 193.616 142.051 193.692 141.988 193.793Z" fill="#020106"/>
<path d="M140.211 184.138C140.148 184.327 140.098 184.528 140.035 184.717C140.009 184.806 140.009 184.881 140.022 184.97C140.022 185.058 140.047 185.133 140.098 185.209C140.135 185.285 140.186 185.348 140.261 185.385C140.324 185.436 140.387 185.474 140.476 185.499C140.526 185.512 140.589 185.512 140.639 185.524C140.753 185.524 140.854 185.499 140.955 185.436C140.992 185.398 141.043 185.373 141.081 185.335C141.156 185.259 141.207 185.159 141.244 185.058C141.307 184.869 141.358 184.667 141.421 184.478C141.446 184.39 141.446 184.314 141.433 184.226C141.433 184.138 141.408 184.062 141.358 183.986C141.32 183.911 141.27 183.848 141.194 183.81C141.131 183.759 141.068 183.722 140.98 183.696C140.929 183.684 140.866 183.684 140.816 183.671C140.702 183.671 140.602 183.696 140.501 183.759C140.463 183.797 140.413 183.823 140.375 183.86C140.299 183.949 140.249 184.037 140.211 184.138Z" fill="#020106"/>
<path d="M97.1628 195.381C81.2461 200.12 53.2061 204.405 53.8362 188.146C54.6176 168.496 90.282 161.777 90.282 161.777L120.263 121.38C120.263 121.38 102.431 115.759 54.605 134.262C6.77941 152.765 -8.19207 196.414 12.2236 218.472C32.6392 240.53 72.1977 234.164 93.0293 226.514C97.4527 224.888 102.884 222.631 108.681 220.06L97.1628 195.381Z" fill="white"/>
<path d="M155.953 193.83C154.92 190.465 139.671 199.679 139.671 199.679C139.671 199.679 156.47 189.431 154.668 187.881C152.853 186.331 138.612 195.116 138.612 195.116C138.612 195.116 152.601 185.549 151.643 183.533C151.076 182.335 145.354 184.982 140.78 187.352C145.317 184.768 150.736 181.339 149.879 180.092C148.455 177.987 126.564 187.881 126.564 187.881C126.564 187.881 135.537 179.096 134.075 178.251C132.626 177.419 116.142 187.616 105.178 192.532C102.217 193.856 97.0626 195.57 91.127 196.994L97.5289 224.787C119.469 216.039 156.911 196.969 155.953 193.83Z" fill="#B67563" stroke="#020106" stroke-miterlimit="10"/>
<path d="M90.295 161.765C90.295 161.765 54.618 168.483 53.8493 188.133C53.0679 207.783 94.2143 197.435 105.178 192.532C116.142 187.616 132.626 177.419 134.075 178.251C135.524 179.083 126.564 187.881 126.564 187.881C126.564 187.881 148.442 177.987 149.878 180.092C151.302 182.197 135.02 190.465 135.02 190.465C135.02 190.465 150.685 181.529 151.643 183.533C152.601 185.549 138.612 195.116 138.612 195.116C138.612 195.116 152.853 186.331 154.667 187.881C156.482 189.431 139.671 199.679 139.671 199.679C139.671 199.679 154.919 190.465 155.953 193.83C156.986 197.196 113.874 218.875 93.0423 226.514C72.1981 234.164 32.6523 240.53 12.2366 218.472C-8.17903 196.414 6.80505 152.765 54.6306 134.249C102.456 115.746 120.288 121.368 120.288 121.368" stroke="#020106" stroke-miterlimit="10"/>
<path d="M98.0702 195.103C94.3147 196.263 89.7905 197.41 85.0898 198.267L92.5252 226.69C92.689 226.627 92.8654 226.577 93.0293 226.514C96.6461 225.19 100.956 223.426 105.569 221.421L98.0702 195.103Z" fill="#FCD9E7" stroke="#020106" stroke-miterlimit="10"/>
<path d="M37.7553 222.367C37.7553 223.703 36.6715 224.787 35.3356 224.787C33.9998 224.787 32.916 223.703 32.916 222.367C32.916 221.031 33.9998 219.947 35.3356 219.947C36.6715 219.947 37.7553 221.031 37.7553 222.367Z" fill="#FCD9E7"/>
<path d="M25.5453 210.897C26.9025 210.897 28.0028 209.796 28.0028 208.439C28.0028 207.081 26.9025 205.981 25.5453 205.981C24.1881 205.981 23.0879 207.081 23.0879 208.439C23.0879 209.796 24.1881 210.897 25.5453 210.897Z" fill="#FCD9E7"/>
<path d="M42.4069 210.909C43.089 210.909 43.6419 210.356 43.6419 209.674C43.6419 208.992 43.089 208.439 42.4069 208.439C41.7248 208.439 41.1719 208.992 41.1719 209.674C41.1719 210.356 41.7248 210.909 42.4069 210.909Z" fill="#FCD9E7"/>
<path d="M60.4918 223.224C60.4918 225.14 58.9417 226.69 57.0262 226.69C55.1106 226.69 53.5605 225.14 53.5605 223.224C53.5605 221.308 55.1106 219.758 57.0262 219.758C58.9417 219.758 60.4918 221.308 60.4918 223.224Z" fill="#FCD9E7"/>
<path d="M67.309 214.186C69.035 214.186 70.4343 212.787 70.4343 211.061C70.4343 209.334 69.035 207.935 67.309 207.935C65.5829 207.935 64.1836 209.334 64.1836 211.061C64.1836 212.787 65.5829 214.186 67.309 214.186Z" fill="#FCD9E7"/>
<path d="M78.8782 222.316C78.8782 223.148 78.2103 223.816 77.3786 223.816C76.5468 223.816 75.8789 223.148 75.8789 222.316C75.8789 221.484 76.5468 220.816 77.3786 220.816C78.2103 220.816 78.8782 221.484 78.8782 222.316Z" fill="#FCD9E7"/>
<path d="M81.0949 207.922C82.3199 207.922 83.313 206.929 83.313 205.704C83.313 204.479 82.3199 203.485 81.0949 203.485C79.87 203.485 78.877 204.479 78.877 205.704C78.877 206.929 79.87 207.922 81.0949 207.922Z" fill="#FCD9E7"/>
<path d="M53.5464 204.116C54.5278 204.116 55.3234 203.32 55.3234 202.338C55.3234 201.357 54.5278 200.561 53.5464 200.561C52.5651 200.561 51.7695 201.357 51.7695 202.338C51.7695 203.32 52.5651 204.116 53.5464 204.116Z" fill="#FCD9E7"/>
<path d="M39.8725 191.625C39.8725 193.553 38.3098 195.103 36.3942 195.103C34.4661 195.103 32.916 193.54 32.916 191.625C32.916 189.696 34.4787 188.146 36.3942 188.146C38.3098 188.146 39.8725 189.696 39.8725 191.625Z" fill="#FCD9E7"/>
<path d="M21.5363 220.98C22.2532 220.98 22.8344 220.399 22.8344 219.682C22.8344 218.965 22.2532 218.384 21.5363 218.384C20.8194 218.384 20.2383 218.965 20.2383 219.682C20.2383 220.399 20.8194 220.98 21.5363 220.98Z" fill="#FCD9E7"/>
<path d="M14.3288 197.839C14.3288 199.351 13.1063 200.574 11.5941 200.574C10.0818 200.574 8.85938 199.351 8.85938 197.839C8.85938 196.326 10.0818 195.103 11.5941 195.103C13.1063 195.103 14.3288 196.326 14.3288 197.839Z" fill="#FCD9E7"/>
<path d="M26.0238 188.322C26.0238 189.923 24.7258 191.209 23.1379 191.209C21.5374 191.209 20.252 189.91 20.252 188.322C20.252 186.734 21.55 185.436 23.1379 185.436C24.7258 185.423 26.0238 186.722 26.0238 188.322Z" fill="#FCD9E7"/>
<path d="M43.0244 179.789C44.0475 179.789 44.8769 178.96 44.8769 177.936C44.8769 176.913 44.0475 176.083 43.0244 176.083C42.0013 176.083 41.1719 176.913 41.1719 177.936C41.1719 178.96 42.0013 179.789 43.0244 179.789Z" fill="#FCD9E7"/>
<path d="M15.4622 177.319C15.4622 177.999 14.9077 178.554 14.2272 178.554C13.5467 178.554 12.9922 177.999 12.9922 177.319C12.9922 176.638 13.5467 176.083 14.2272 176.083C14.9203 176.083 15.4622 176.638 15.4622 177.319Z" fill="#FCD9E7"/>
<path d="M34.1653 165.634C34.1653 167.336 32.7791 168.722 31.0778 168.722C29.3765 168.722 27.9902 167.336 27.9902 165.634C27.9902 163.933 29.3765 162.546 31.0778 162.546C32.7917 162.546 34.1653 163.933 34.1653 165.634Z" fill="#FCD9E7"/>
<path d="M55.098 168.71C55.9471 168.71 56.6355 168.021 56.6355 167.172C56.6355 166.323 55.9471 165.634 55.098 165.634C54.2489 165.634 53.5605 166.323 53.5605 167.172C53.5605 168.021 54.2489 168.71 55.098 168.71Z" fill="#FCD9E7"/>
<path d="M48.7328 158.147C50.09 158.147 51.1903 157.047 51.1903 155.689C51.1903 154.332 50.09 153.232 48.7328 153.232C47.3756 153.232 46.2754 154.332 46.2754 155.689C46.2754 157.047 47.3756 158.147 48.7328 158.147Z" fill="#FCD9E7"/>
<path d="M59.7712 141.535C60.8917 141.535 61.8001 140.626 61.8001 139.505C61.8001 138.385 60.8917 137.476 59.7712 137.476C58.6506 137.476 57.7422 138.385 57.7422 139.505C57.7422 140.626 58.6506 141.535 59.7712 141.535Z" fill="#FCD9E7"/>
<path d="M35.2867 153.912C35.8992 153.912 36.3957 153.416 36.3957 152.803C36.3957 152.191 35.8992 151.694 35.2867 151.694C34.6742 151.694 34.1777 152.191 34.1777 152.803C34.1777 153.416 34.6742 153.912 35.2867 153.912Z" fill="#FCD9E7"/>
<path d="M73.9242 159.496C75.6503 159.496 77.0495 158.097 77.0495 156.37C77.0495 154.644 75.6503 153.244 73.9242 153.244C72.1981 153.244 70.7988 154.644 70.7988 156.37C70.7988 158.097 72.1981 159.496 73.9242 159.496Z" fill="#FCD9E7"/>
<path d="M85.1034 144.585C85.1034 146.274 83.7424 147.635 82.0537 147.635C80.365 147.635 79.0039 146.274 79.0039 144.585C79.0039 142.896 80.365 141.535 82.0537 141.535C83.7298 141.535 85.1034 142.896 85.1034 144.585Z" fill="#FCD9E7"/>
<path d="M93.6221 130.342C93.6221 131.401 92.7651 132.258 91.7066 132.258C90.648 132.258 89.791 131.401 89.791 130.342C89.791 129.283 90.648 128.426 91.7066 128.426C92.7525 128.414 93.6221 129.283 93.6221 130.342Z" fill="#FCD9E7"/>
<path d="M97.8066 146.98C97.8066 148.303 96.7354 149.362 95.4248 149.362C94.1016 149.362 93.043 148.291 93.043 146.98C93.043 145.656 94.1142 144.598 95.4248 144.598C96.748 144.585 97.8066 145.656 97.8066 146.98Z" fill="#FCD9E7"/>
<path d="M105.582 137.174C105.582 138.585 104.447 139.72 103.036 139.72C101.624 139.72 100.49 138.585 100.49 137.174C100.49 135.762 101.624 134.628 103.036 134.628C104.435 134.628 105.582 135.762 105.582 137.174Z" fill="#FCD9E7"/>
<path d="M130.862 48.5647H118.335C110.005 48.5647 103.187 56.329 103.187 65.8075V85.2309C103.187 85.7729 103.213 86.3149 103.263 86.8569C103.124 87.4241 103.049 88.0291 103.049 88.6341V100.457V101.112V112.935C103.049 117.221 106.565 120.738 110.85 120.738H115.815C120.1 120.738 123.616 117.233 123.616 112.935V102.474H130.862C139.192 102.474 146.01 94.7094 146.01 85.2309V65.8075C146.01 56.3164 139.192 48.5647 130.862 48.5647Z" fill="#B67563" stroke="black" stroke-miterlimit="10"/>
<path d="M111.113 82.5336C111.113 86.4158 114.251 89.5543 118.133 89.5543C122.014 89.5543 125.152 86.4158 125.152 82.5336C125.152 78.6514 122.014 75.5129 118.133 75.5129C114.264 75.5129 111.113 78.664 111.113 82.5336Z" fill="#F76A59"/>
<path d="M144.118 77.7817C144.546 77.7817 144.962 77.8322 145.353 77.933V85.2183C145.353 86.3023 145.315 87.3611 145.088 88.382C144.798 88.4325 144.42 88.4703 144.105 88.4703C141.156 88.4703 138.762 86.0754 138.762 83.126C138.774 80.1766 141.169 77.7817 144.118 77.7817Z" fill="#F76A59"/>
<path d="M120.932 72.1476C120.932 73.7105 122.192 74.971 123.755 74.971C125.317 74.971 126.577 73.7105 126.577 72.1476C126.577 70.5846 125.317 69.3242 123.755 69.3242C122.204 69.3242 120.932 70.5972 120.932 72.1476Z" fill="#0C0C0C"/>
<path d="M139.42 71.7442C139.42 73.0803 140.504 74.1517 141.827 74.1517C143.163 74.1517 144.234 73.0677 144.234 71.7442C144.234 70.4082 143.15 69.3368 141.827 69.3368C140.504 69.3242 139.42 70.4082 139.42 71.7442Z" fill="#0C0C0C"/>
<path d="M137.152 84.7268C137.152 84.7268 135.728 88.861 132.729 89.1509C129.729 89.4408 127.373 86.1132 127.209 83.5167L137.152 84.7268Z" fill="#FFFDFD"/>
<path d="M136.472 84.5377C136.434 84.6385 136.396 84.7394 136.358 84.8402C136.434 84.6637 136.283 85.0167 136.245 85.0797C136.169 85.2435 136.094 85.4074 136.005 85.5586C135.615 86.3023 135.136 86.9956 134.518 87.5501C133.812 88.193 132.918 88.5585 131.947 88.4199C130.889 88.2686 129.994 87.588 129.313 86.7939C128.545 85.8864 128.003 84.6889 127.915 83.4915C127.675 83.731 127.448 83.9579 127.209 84.1974C130.107 84.5503 133.006 84.9032 135.904 85.2688C136.32 85.3192 136.724 85.3696 137.139 85.42C137.518 85.4704 137.845 85.0671 137.845 84.7142C137.845 84.2982 137.518 84.0587 137.139 84.0083C134.241 83.6554 131.342 83.3025 128.444 82.9369C128.028 82.8865 127.625 82.8361 127.209 82.7857C126.843 82.7479 126.478 83.1386 126.503 83.4915C126.692 86.088 128.444 88.8358 131.015 89.6425C133.523 90.424 135.678 88.8106 136.925 86.7561C137.278 86.1763 137.593 85.546 137.82 84.8906C138.122 84.0461 136.761 83.6806 136.472 84.5377Z" fill="#0C0C0C"/>
<path d="M133.56 69.3242L132.98 78.9413L137.568 76.1432L133.56 69.3242Z" fill="#F76A59"/>
<path d="M107.358 64.8874C107.358 64.8874 121.952 70.7737 124.069 65.9336C126.186 61.0935 121.914 58.976 121.914 58.976C121.914 58.976 136.684 67.1814 139.935 62.2657C143.186 57.35 135.726 54.1233 135.726 54.1233C135.726 54.1233 147.975 61.1565 157.704 57.1735C167.446 53.1906 159.985 41.3928 143.464 37.8258C126.942 34.2587 93.0295 32.6328 94.945 70.2821C94.945 70.2821 96.7724 83.0756 101.183 82.521C105.569 81.9916 107.358 64.8874 107.358 64.8874Z" fill="#020106" stroke="#020106" stroke-miterlimit="10"/>
<path d="M95.386 53.9468C94.6046 57.5391 91.3532 59.8709 88.1271 59.1776C84.9009 58.4718 82.9223 54.993 83.7037 51.4007C84.485 47.8085 87.7364 45.4767 90.9626 46.1699C94.1887 46.8758 96.1673 50.3546 95.386 53.9468Z" fill="#020106" stroke="#020106" stroke-miterlimit="10"/>
<path d="M80.7695 49.5691C84.3396 36.0685 69.2707 20.3724 47.1122 14.5109C24.9537 8.64946 4.09667 14.8422 0.526627 28.3428C-3.04341 41.8434 12.0255 57.5394 34.184 63.4009C56.3424 69.2624 77.1995 63.0697 80.7695 49.5691Z" fill="#020106"/>
<path d="M97.3767 68.0638C99.2418 68.0638 101.006 68.5301 102.569 69.3242V72.3871C101.12 71.3157 99.33 70.6603 97.3767 70.6603C92.6004 70.6603 88.7063 74.5172 88.7063 79.2438C88.7063 83.9831 92.6004 87.84 97.3767 87.84C99.3174 87.84 101.12 87.1972 102.569 86.1132V89.1761C101.019 89.9828 99.2544 90.4365 97.3767 90.4365C91.1638 90.4365 86.0977 85.4074 86.0977 79.2312C86.1103 73.0929 91.1638 68.0638 97.3767 68.0638Z" fill="black"/>
<path d="M87.4082 79.2691C87.4082 84.7394 91.8694 89.1635 97.3766 89.1635C102.884 89.1635 107.345 84.7394 107.345 79.2691C107.345 73.7987 102.884 69.3746 97.3766 69.3746C91.8694 69.3746 87.4082 73.7987 87.4082 79.2691Z" fill="#B67563"/>
<path d="M103.64 80.5673C103.69 79.7354 103.551 78.8405 103.325 78.0464C102.871 76.4457 101.85 74.9836 100.3 74.2777C99.0524 73.6979 97.6661 73.5845 96.3051 73.7231C95.8388 73.7735 95.4355 74.0886 95.4355 74.5928C95.4355 75.0214 95.8388 75.5129 96.3051 75.4625C96.8974 75.3995 97.5023 75.3869 98.0946 75.4373C98.1576 75.4373 98.2206 75.4499 98.2836 75.4625C98.0694 75.4373 98.3088 75.4625 98.3341 75.4751C98.4475 75.5003 98.5609 75.5129 98.6743 75.5381C98.9012 75.5886 99.128 75.6642 99.3548 75.7398C99.3926 75.7524 99.4304 75.765 99.4683 75.7902C99.254 75.702 99.4431 75.7776 99.4809 75.8028C99.5691 75.8407 99.6573 75.8911 99.7455 75.9289C99.9219 76.0297 100.098 76.1432 100.262 76.2566C100.048 76.1053 100.287 76.2818 100.338 76.3196C100.401 76.3826 100.464 76.4331 100.527 76.4961C100.665 76.6221 100.779 76.7734 100.905 76.912C100.728 76.6978 100.905 76.9246 100.943 76.975C100.993 77.0381 101.031 77.1137 101.081 77.1767C101.17 77.328 101.258 77.4792 101.333 77.6431C101.371 77.7187 101.396 77.8069 101.447 77.8826C101.51 77.9834 101.359 77.6683 101.422 77.8195C101.434 77.8574 101.447 77.8952 101.459 77.9204C101.522 78.0842 101.573 78.2481 101.623 78.4119C101.711 78.6892 101.774 78.9665 101.825 79.2564C101.837 79.3195 101.85 79.3825 101.85 79.4455C101.888 79.6598 101.825 79.2186 101.85 79.4203C101.863 79.5337 101.875 79.6598 101.888 79.7732C101.913 80.0379 101.926 80.3026 101.9 80.5547C101.875 81.0211 102.316 81.4244 102.77 81.4244C103.274 81.437 103.614 81.0337 103.64 80.5673Z" fill="#020202"/>
<path d="M121.575 128.414H104.864C100.554 128.414 97.0508 124.91 97.0508 120.599V118.973C97.0508 114.662 100.554 111.158 104.864 111.158H121.562C125.872 111.158 129.376 114.662 129.376 118.973V120.599C129.388 124.91 125.885 128.414 121.575 128.414Z" fill="#FCD9E7" stroke="#020106" stroke-miterlimit="10"/>
<path d="M8.87305 237.669H253.621" stroke="#020106" stroke-miterlimit="10"/>
<path d="M173.018 199.792C173.018 199.792 166.729 196.881 169.489 189.318C172.249 181.755 184.473 190.679 184.473 190.679C184.473 190.679 179.634 183.016 184.473 178.024C189.313 173.033 196.509 177.873 196.509 177.873C196.509 177.873 198.84 170.676 205.418 170.21C211.997 169.743 212.387 176.109 212.387 176.109C212.387 176.109 215.551 168.092 222.205 169.012C228.859 169.932 227.699 179.134 227.699 179.134C227.699 179.134 232.74 170.008 238.94 174.823C245.141 179.638 241.272 185.234 241.272 185.234C241.272 185.234 245.431 181.554 248.001 184.478C250.572 187.39 250.043 189.331 250.043 189.331C250.043 189.331 256.193 186.041 259.885 190.692C263.565 195.343 252.16 208.199 246.035 210.317C239.898 212.422 178.828 206.775 173.018 199.792Z" fill="#FDE084" stroke="#020106" stroke-miterlimit="10"/>
<path d="M213.433 174.432C213.433 174.432 197.113 162.471 204.384 154.253C211.656 146.035 218.864 167.525 218.864 167.525C218.864 167.525 221.775 157.631 225.682 159.093C229.589 160.542 223.124 179.966 213.433 174.432Z" fill="#46B7A1" stroke="#020106" stroke-miterlimit="10"/>
<path d="M194.732 189.318C195.7 189.318 196.484 188.534 196.484 187.566C196.484 186.598 195.7 185.814 194.732 185.814C193.765 185.814 192.98 186.598 192.98 187.566C192.98 188.534 193.765 189.318 194.732 189.318Z" fill="#46B7A1" stroke="#020106" stroke-miterlimit="10"/>
<path d="M231.771 187.276C231.771 188.411 230.851 189.318 229.729 189.318C228.595 189.318 227.688 188.398 227.688 187.276C227.688 186.142 228.607 185.234 229.729 185.234C230.863 185.234 231.771 186.142 231.771 187.276Z" fill="#46B7A1" stroke="#020106" stroke-miterlimit="10"/>
<path d="M220.29 193.225C220.29 194.36 219.37 195.267 218.249 195.267C217.114 195.267 216.207 194.347 216.207 193.225C216.207 192.091 217.127 191.183 218.249 191.183C219.37 191.183 220.29 192.104 220.29 193.225Z" fill="#46B7A1" stroke="#020106" stroke-miterlimit="10"/>
<path d="M252.073 193.73C252.073 194.864 251.153 195.771 250.032 195.771C248.898 195.771 247.99 194.851 247.99 193.73C247.99 192.595 248.91 191.688 250.032 191.688C251.166 191.688 252.073 192.595 252.073 193.73Z" fill="#46B7A1" stroke="#020106" stroke-miterlimit="10"/>
<path d="M217.025 179.777C217.025 180.747 216.244 181.529 215.273 181.529C214.303 181.529 213.521 180.747 213.521 179.777C213.521 178.806 214.303 178.024 215.273 178.024C216.231 178.024 217.025 178.806 217.025 179.777Z" fill="#46B7A1" stroke="#020106" stroke-miterlimit="10"/>
<path d="M191.618 193.78C191.618 197.095 188.934 199.792 185.607 199.792C182.293 199.792 179.596 197.108 179.596 193.78C179.596 190.465 182.28 187.768 185.607 187.768C188.921 187.78 191.618 190.465 191.618 193.78Z" fill="#F76A59" stroke="#020106" stroke-miterlimit="10"/>
<path d="M212.362 187.692C212.362 190.73 209.905 193.188 206.868 193.188C203.83 193.188 201.373 190.73 201.373 187.692C201.373 184.654 203.83 182.197 206.868 182.197C209.905 182.197 212.362 184.654 212.362 187.692Z" fill="#F76A59" stroke="#020106" stroke-miterlimit="10"/>
<path d="M246.022 193.465C246.022 196.603 243.476 199.149 240.338 199.149C237.2 199.149 234.654 196.603 234.654 193.465C234.654 190.326 237.2 187.78 240.338 187.78C243.476 187.78 246.022 190.326 246.022 193.465Z" fill="#F76A59" stroke="#020106" stroke-miterlimit="10"/>
<path d="M231.769 177.873C231.769 180.52 229.627 182.663 226.98 182.663C224.334 182.663 222.191 180.52 222.191 177.873C222.191 175.226 224.334 173.084 226.98 173.084C229.627 173.084 231.769 175.226 231.769 177.873Z" fill="#F76A59" stroke="#020106" stroke-miterlimit="10"/>
<path d="M200.061 177.306C200.061 179.638 198.17 181.529 195.839 181.529C193.508 181.529 191.617 179.638 191.617 177.306C191.617 174.974 193.508 173.084 195.839 173.084C198.17 173.084 200.061 174.974 200.061 177.306Z" fill="#F76A59" stroke="#020106" stroke-miterlimit="10"/>
<path d="M168.027 201.532C169.199 225.946 188.115 245.37 211.303 245.37C234.479 245.37 253.408 225.959 254.58 201.532H168.027Z" fill="#5DE3E0"/>
<path d="M244.977 201.532H243.792V211.224H235.84V201.532H234.656V211.224H224.99V201.532H223.805V211.224H214.719V201.532H213.534V211.224H205.419V201.532H204.234V211.224H195.929V201.532H194.744V211.224H184.499V201.532H183.314V211.224H175.98V201.532H174.795V211.224H169.527C169.628 211.628 169.729 212.019 169.842 212.409H174.795V221.295H173.333C173.535 221.699 173.736 222.089 173.951 222.48H174.795V223.942C175.173 224.585 175.576 225.215 175.98 225.833V222.48H183.314V230.043L179.168 230.081C179.508 230.484 179.849 230.875 180.189 231.265L183.314 231.24V234.379C183.705 234.732 184.096 235.085 184.499 235.425V231.215L194.744 231.127V239.496H190.233C190.939 239.912 191.644 240.315 192.363 240.681H194.732V241.828C195.123 242.004 195.526 242.168 195.916 242.319V240.668H204.221V244.702C204.612 244.777 205.015 244.84 205.406 244.891V240.668H213.522V245.269C213.925 245.244 214.316 245.206 214.706 245.181V240.668H223.793V243.378C224.196 243.252 224.587 243.101 224.977 242.962V240.668H230.258C230.976 240.29 231.694 239.899 232.387 239.484H224.977V230.849L234.643 230.761V238.047C235.046 237.769 235.437 237.479 235.828 237.19V230.749L242.923 230.686C243.629 229.879 244.322 229.034 244.977 228.177V222.455H248.707C248.922 222.064 249.123 221.661 249.325 221.27H244.977V212.384H252.816C252.929 211.993 253.03 211.59 253.118 211.199H244.977V201.532ZM183.276 221.308H175.942V212.422H183.276V221.308ZM194.707 229.955L184.461 230.043V222.493H194.707V229.955ZM194.707 221.308H184.461V212.422H194.707V221.308ZM204.209 239.521H195.904V231.139L204.209 231.064V239.521ZM204.209 229.866L195.904 229.942V222.493H204.209V229.866ZM204.209 221.308H195.904V212.422H204.209V221.308ZM213.522 239.521H205.406V231.051L213.522 230.976V239.521ZM213.522 229.791L205.406 229.866V222.505H213.522V229.791ZM213.522 221.308H205.406V212.422H213.522V221.308ZM223.793 239.521H214.706V230.976L223.793 230.9V239.521ZM223.793 229.703L214.706 229.778V222.493H223.793V229.703ZM223.793 221.308H214.706V212.422H223.793V221.308ZM234.656 229.614L224.99 229.703V222.505H234.656V229.614ZM234.656 221.308H224.99V212.422H234.656V221.308ZM243.792 229.526L235.84 229.589V222.48H243.792V229.526ZM243.792 221.308H235.84V212.422H243.792V221.308Z" fill="white"/>
<path d="M168.027 201.532C169.199 225.946 188.115 245.37 211.303 245.37C234.479 245.37 253.408 225.959 254.58 201.532H168.027Z" stroke="#020106" stroke-miterlimit="10"/>
<path d="M259.091 205.414H165.645C163.503 205.414 161.764 203.674 161.764 201.532C161.764 199.389 163.503 197.65 165.645 197.65H259.091C261.233 197.65 262.972 199.389 262.972 201.532C262.972 203.674 261.233 205.414 259.091 205.414Z" fill="white" stroke="#020106" stroke-miterlimit="10"/>
</g>
<defs>
<clipPath id="clip0">
<rect width="285" height="246" fill="white"/>
</clipPath>
</defs>
</svg>
