<svg width="35" height="32" viewBox="0 0 35 32" fill="none" xmlns="http://www.w3.org/2000/svg">
<path d="M32.4349 15.2622L32.4392 15.2937C31.861 15.3734 31.3869 15.8268 31.2801 16.4298L28.9602 29.5216C28.8425 30.1867 28.2771 30.67 27.6184 30.67H7.25757C6.59891 30.67 6.03346 30.1867 5.91574 29.5216L3.5959 16.4298C3.48909 15.8268 3.015 15.3734 2.43677 15.2937L2.44103 15.2622C1.43879 15.1278 0.664795 14.248 0.664795 13.1826C0.664795 12.0235 1.58048 11.0841 2.71031 11.0841H32.1657C33.2955 11.0841 34.2112 12.0235 34.2112 13.1826C34.2112 14.248 33.4372 15.1278 32.4349 15.2622ZM25.62 25.7736V20.1776C25.62 19.4054 25.009 18.7786 24.2564 18.7786C23.5029 18.7786 22.8927 19.4046 22.8927 20.1776V25.7736C22.8927 26.5466 23.5029 27.1726 24.2564 27.1726C25.0098 27.1726 25.62 26.5466 25.62 25.7736ZM18.8017 25.7736V20.1776C18.8017 19.4054 18.1907 18.7786 17.438 18.7786C16.6845 18.7786 16.0743 19.4046 16.0743 20.1776V25.7736C16.0743 26.5466 16.6845 27.1726 17.438 27.1726C18.1915 27.1726 18.8017 26.5466 18.8017 25.7736ZM11.9833 25.7736V20.1776C11.9833 19.4054 11.3723 18.7786 10.6196 18.7786C9.86613 18.7786 9.25594 19.4046 9.25594 20.1776V25.7736C9.25594 26.5466 9.86613 27.1726 10.6196 27.1726C11.3731 27.1726 11.9833 26.5466 11.9833 25.7736Z" fill="#FF4F63"/>
<path d="M21.3572 2.01027L27.7861 11.0841H24.6662L18.9734 3.36992C18.6072 2.6942 18.8445 1.84223 19.5026 1.46734C20.1626 1.09245 20.9931 1.33591 21.3572 2.01027Z" fill="#424D63"/>
<path d="M15.3733 1.46734C16.0315 1.84223 16.2688 2.6942 15.9025 3.36992L10.2097 11.0841H7.08972L13.5188 2.01027C13.8842 1.33591 14.7133 1.09245 15.3733 1.46734Z" fill="#424D63"/>
<path d="M17.455 15.9805C17.8314 15.9805 18.1368 15.6671 18.1368 15.281C18.1368 14.895 17.8314 14.5815 17.455 14.5815C17.0787 14.5815 16.7732 14.895 16.7732 15.281C16.7732 15.6671 17.0787 15.9805 17.455 15.9805Z" fill="black"/>
<path d="M32.1827 10.3846H28.1505L21.9479 1.6302C21.3908 0.650632 20.1635 0.301976 19.1886 0.855836C18.2005 1.41899 17.8452 2.69584 18.3944 3.70984C18.4101 3.73853 18.4274 3.76613 18.4469 3.79236L23.3119 10.3846H11.5981L16.4632 3.79236C16.4823 3.76613 16.4999 3.73853 16.5156 3.70984C17.0635 2.6983 16.7122 1.42035 15.7206 0.85529C14.7479 0.302523 13.5206 0.650905 12.9624 1.62966L6.7595 10.3846H2.72735C1.22358 10.3846 0 11.6399 0 13.1826C0 14.3993 0.76973 15.4587 1.85401 15.8336C1.9696 15.9254 2.11396 15.9806 2.2711 15.9806C2.30253 15.9806 2.33209 15.9825 2.36299 15.9868C2.6565 16.0273 2.88902 16.2557 2.94228 16.5546L5.26186 29.6467C5.43898 30.6449 6.28541 31.3695 7.27461 31.3695H27.6354C28.6246 31.3695 29.4711 30.6449 29.6482 29.6465L31.9677 16.5549C32.021 16.2557 32.2538 16.0273 32.5484 15.9868C32.5782 15.9825 32.6078 15.9806 32.6389 15.9806C32.7971 15.9806 32.9426 15.9248 33.0582 15.8319C34.1432 15.4546 34.91 14.3971 34.91 13.1826C34.91 11.6399 33.6865 10.3846 32.1827 10.3846ZM19.5679 2.99368C19.4121 2.66278 19.533 2.25975 19.85 2.07941C20.18 1.89169 20.596 2.01274 20.7779 2.3491C20.7912 2.37424 20.8064 2.39828 20.8227 2.42124L26.4646 10.3846H25.0221L19.5679 2.99368ZM14.0874 2.42151C14.1036 2.39856 14.1183 2.37478 14.1319 2.35019C14.3143 2.01356 14.7306 1.89224 15.0593 2.07886C15.3767 2.25975 15.4982 2.66223 15.3421 2.99368L9.88796 10.3846H8.44545L14.0874 2.42151ZM32.1827 14.5816H20.2002C19.8766 14.5816 19.5826 14.8043 19.5152 15.1286C19.4198 15.5871 19.7562 15.9806 20.184 15.9806H30.709C30.6733 16.0847 30.6451 16.1929 30.6254 16.3044L28.3069 29.3964C28.248 29.729 27.966 29.9705 27.6362 29.9705H7.27461C6.94461 29.9705 6.66256 29.729 6.60343 29.3964L4.28385 16.3044C4.26414 16.1929 4.23591 16.0847 4.20022 15.9806H14.7064C15.0481 15.9806 15.3536 15.7319 15.4023 15.3849C15.4628 14.9524 15.1376 14.5816 14.7277 14.5816H2.72735C1.89556 14.5816 1.24781 13.8189 1.38125 12.9571C1.48672 12.2738 2.08306 11.7836 2.75771 11.7836H32.151C32.8661 11.7836 33.4843 12.3352 33.5418 13.0667C33.6071 13.8966 32.9636 14.5816 32.1827 14.5816Z" fill="black"/>
<path d="M15.3925 20.2204V25.7312C15.3925 26.8351 16.2072 27.7829 17.2803 27.866C18.4791 27.9586 19.4835 26.9843 19.4835 25.7735V20.1775C19.4835 18.9674 18.4861 17.9971 17.288 18.0845C16.2437 18.1608 15.3925 19.1461 15.3925 20.2204ZM18.1198 25.7735C18.1198 26.194 17.7565 26.5288 17.3352 26.4654C16.9975 26.4143 16.7561 26.1011 16.7561 25.7511V20.1994C16.7561 19.8491 16.9983 19.5357 17.3365 19.4857C17.7579 19.4231 18.1198 19.7573 18.1198 20.1775V25.7735Z" fill="black"/>
<path d="M26.3019 25.7312V20.2202C26.3019 19.116 25.4871 18.1681 24.414 18.0854C23.2152 17.9925 22.2108 18.9671 22.2108 20.1776V25.7735C22.2108 26.9843 23.2152 27.9587 24.414 27.866C25.4871 27.783 26.3019 26.8351 26.3019 25.7312ZM23.5745 20.1776C23.5745 19.757 23.9378 19.4223 24.3592 19.4857C24.6969 19.5368 24.9382 19.8499 24.9382 20.2V25.7509C24.9382 26.1012 24.6969 26.4143 24.3592 26.4651C23.9378 26.5288 23.5745 26.1938 23.5745 25.7735V20.1776Z" fill="black"/>
<path d="M8.5741 20.2204V25.7312C8.5741 26.8351 9.38885 27.7829 10.462 27.866C11.6608 27.9586 12.6652 26.9843 12.6652 25.7735V20.1776C12.6652 18.9671 11.6677 17.9971 10.4697 18.0845C9.42507 18.1608 8.5741 19.1461 8.5741 20.2204ZM11.3015 25.7735C11.3015 26.1938 10.9382 26.5288 10.5168 26.4654C10.1791 26.4143 9.93778 26.1011 9.93778 25.7511V20.1994C9.93778 19.8488 10.1802 19.5357 10.5182 19.4854C10.9395 19.4231 11.3015 19.757 11.3015 20.1776V25.7735Z" fill="black"/>
</svg>
