<svg width="20" height="20" viewBox="0 0 20 20" fill="none" xmlns="http://www.w3.org/2000/svg">
<path fill-rule="evenodd" clip-rule="evenodd" d="M19.6023 0.397738C19.072 -0.132579 18.2122 -0.132579 17.6819 0.397738L10 8.0796L2.31819 0.397782C1.78787 -0.132536 0.928055 -0.132536 0.397738 0.397781C-0.132579 0.928099 -0.132579 1.78791 0.397738 2.31823L8.07956 10.0001L0.397844 17.6818C-0.132474 18.2121 -0.132474 19.0719 0.397843 19.6022C0.92816 20.1325 1.78797 20.1325 2.31829 19.6022L10 11.9205L17.6818 19.6023C18.2121 20.1326 19.0719 20.1326 19.6022 19.6023C20.1325 19.0719 20.1325 18.2121 19.6022 17.6818L11.9205 10.0001L19.6023 2.31819C20.1326 1.78787 20.1326 0.928055 19.6023 0.397738Z" fill="#222222"/>
</svg>
