<svg width="30" height="31" viewBox="0 0 30 31" fill="none" xmlns="http://www.w3.org/2000/svg">
<path d="M15 30.1759C22.9607 30.1759 29.4141 23.5554 29.4141 15.3885C29.4141 7.22163 22.9607 0.601074 15 0.601074C7.03935 0.601074 0.585938 7.22163 0.585938 15.3885C0.585938 23.5554 7.03935 30.1759 15 30.1759Z" fill="#FFE18D"/>
<path d="M7.61554 23.3833V12.094C7.61554 7.9101 10.9217 4.51831 15 4.51831C19.0783 4.51831 22.3845 7.9101 22.3845 12.094V23.3833" fill="#993CAA"/>
<path d="M20.493 13.7943H19.7233V12.0087C19.7233 12.0087 18.4215 12.956 16.4228 12.3388C14.424 11.7217 13.7977 10.3079 13.7977 10.3079C13.7977 10.3079 13.3301 11.499 12.1875 12.0087C11.0449 12.5183 10.2311 12.4752 10.2311 12.4752V13.7943H9.46149C9.04717 13.7943 8.71136 14.1388 8.71136 14.5638V15.85C8.71136 16.275 9.04717 16.6195 9.46149 16.6195H10.2311V15.9464C10.2311 18.6312 12.356 20.8077 14.9772 20.8077C17.5984 20.8077 19.7233 18.6312 19.7233 15.9464V16.6195H20.493C20.9072 16.6195 21.2431 16.275 21.2431 15.85V14.5638C21.2431 14.1388 20.9072 13.7943 20.493 13.7943Z" fill="#FFC096"/>
<path d="M6.60583 27.1403V26.8859C6.60583 24.14 8.44773 21.8358 10.933 21.2018C10.933 21.2018 13.1842 20.5612 15 20.5612C16.8157 20.5612 19.067 21.2018 19.067 21.2018C21.5523 21.8358 23.3941 24.14 23.3941 26.8859V27.1403C23.3941 27.1403 20.8312 30.1759 14.9999 30.1759C9.16867 30.1759 6.60583 27.1403 6.60583 27.1403Z" fill="#FC5271"/>
<path d="M27.0304 6.1939C26.8368 5.92791 26.4696 5.87333 26.2104 6.072C25.9511 6.27066 25.8979 6.64732 26.0916 6.91332C30.1682 12.5132 29.6036 20.4692 24.778 25.4197C24.5084 25.6963 24.23 25.9583 23.9444 26.2072C23.8395 25.1761 23.4987 24.2092 22.9704 23.372V12.094C22.9704 7.5853 19.3949 3.91718 15 3.91718C10.6051 3.91718 7.02962 7.5853 7.02962 12.094V23.3719C6.50139 24.2091 6.16055 25.176 6.05561 26.2072C5.76997 25.9583 5.49165 25.6962 5.22205 25.4197C2.61024 22.7403 1.17188 19.1778 1.17188 15.3885C1.17188 11.5992 2.61024 8.03668 5.22205 5.35727C10.0531 0.401077 17.8137 -0.17413 23.2737 4.01919C23.5328 4.21816 23.8999 4.164 24.0939 3.89818C24.2879 3.63243 24.235 3.25571 23.976 3.05674C21.1158 0.860149 17.5674 -0.212841 13.9844 0.0350584C10.3665 0.285483 6.96036 1.87363 4.39336 4.50711C1.56029 7.41362 0 11.278 0 15.3885C0 19.4989 1.56029 23.3633 4.39336 26.2699C7.22655 29.1763 10.9934 30.777 15 30.777C19.0067 30.777 22.7735 29.1763 25.6067 26.2699C28.1715 23.6386 29.7194 20.1471 29.9653 16.4387C30.2087 12.7663 29.1664 9.12794 27.0304 6.1939ZM15 5.11947C18.7488 5.11947 21.7985 8.24827 21.7985 12.0941V14.2736C21.6683 13.6568 21.1326 13.1932 20.4929 13.1932H20.3092V12.0087C20.3092 11.6767 20.0468 11.4076 19.7233 11.4076C19.5935 11.4076 19.474 11.4514 19.3769 11.5246C18.8429 11.7842 18.2718 11.9172 17.677 11.9172C16.2934 11.9172 15.029 11.1966 14.2948 9.98964C14.1793 9.79981 13.9708 9.69137 13.7532 9.7085C13.5357 9.72551 13.3454 9.86503 13.2594 10.0706C12.7974 11.1735 11.7434 11.8862 10.574 11.8862C10.481 11.8862 10.3847 11.8812 10.2876 11.8716C10.2875 11.8735 10.2873 11.8752 10.2873 11.8771C10.2687 11.8753 10.25 11.8742 10.2311 11.8742C9.90751 11.8742 9.64513 12.1433 9.64513 12.4753V13.1932H9.46143C8.8803 13.1932 8.38483 13.576 8.20143 14.1085V12.0941C8.20149 8.24821 11.2512 5.11947 15 5.11947ZM20.3092 15.9465V14.3955H20.4929C20.5835 14.3955 20.6571 14.471 20.6571 14.5639V15.85C20.6571 15.9429 20.5835 16.0185 20.4929 16.0185H20.3092V15.9465ZM10.817 13.7943V13.081C12.0382 13.0071 13.1487 12.3791 13.8628 11.3902C14.8309 12.4866 16.2014 13.1195 17.677 13.1195C18.1781 13.1195 18.6666 13.0471 19.1373 12.904V13.7943V15.9464C19.1373 18.2955 17.271 20.2066 14.9772 20.2066C12.6833 20.2066 10.817 18.2955 10.817 15.9464V13.7943ZM9.64513 15.9465V16.0185H9.46143C9.37085 16.0185 9.2972 15.9429 9.2972 15.85V14.5639C9.2972 14.471 9.37085 14.3955 9.46143 14.3955H9.64513V15.9465ZM9.75469 28.5141V26.2738C9.75469 25.9419 9.49231 25.6727 9.16876 25.6727C8.8452 25.6727 8.58282 25.9419 8.58282 26.2738V27.956C8.10651 27.7004 7.6421 27.4137 7.19174 27.0974V26.8858C7.19174 24.8844 8.2844 23.1045 9.95538 22.2185C10.7866 23.1871 11.8806 23.9113 13.0814 24.2781C13.1372 24.2952 13.1935 24.3033 13.2489 24.3033C13.5014 24.3033 13.7344 24.1345 13.8102 23.8736C13.9026 23.5554 13.726 23.2207 13.4159 23.1259C12.5689 22.8671 11.7861 22.3925 11.1477 21.7605C11.4172 21.6518 11.5734 21.3529 11.5016 21.0567C11.4236 20.7345 11.1056 20.5384 10.7916 20.6184C9.80831 20.8692 8.9294 21.3486 8.20149 21.9925V16.3053C8.38489 16.8379 8.88036 17.2206 9.46149 17.2206H9.79202C10.3539 19.62 12.4654 21.4088 14.9773 21.4088C17.4892 21.4088 19.6006 19.62 20.1624 17.2206H20.493C21.1326 17.2206 21.6684 16.7571 21.7986 16.1403V21.9925C21.0707 21.3487 20.1918 20.8693 19.2085 20.6184C18.8942 20.5384 18.5765 20.7346 18.4985 21.0568C18.4265 21.3537 18.5836 21.6534 18.8545 21.7615C18.232 22.3817 17.4799 22.8415 16.6424 23.1078C16.3333 23.2061 16.1603 23.5429 16.2561 23.8599C16.334 24.1178 16.5656 24.2833 16.8157 24.2833C16.8731 24.2833 16.9316 24.2745 16.9893 24.2561C18.1797 23.8777 19.2272 23.1771 20.0454 22.2188C21.716 23.105 22.8083 24.8847 22.8083 26.8858V27.0974C22.3579 27.4137 21.8936 27.7004 21.4173 27.956V26.2738C21.4173 25.9419 21.1549 25.6727 20.8313 25.6727C20.5078 25.6727 20.2454 25.9419 20.2454 26.2738V28.5141C16.8926 29.9189 13.1074 29.9189 9.75469 28.5141Z" fill="black"/>
<path d="M24.783 5.36241C24.8974 5.4801 25.0477 5.53901 25.1978 5.53901C25.3475 5.53901 25.4972 5.48052 25.6116 5.36349C25.8408 5.12905 25.8413 4.74843 25.6127 4.51339L25.6017 4.50197C25.3732 4.26694 25.0021 4.26645 24.773 4.50089C24.5439 4.73532 24.5434 5.11595 24.7719 5.35098L24.783 5.36241Z" fill="black"/>
<path d="M15.0017 23.3615H15C14.6765 23.3615 14.415 23.6306 14.415 23.9626C14.415 24.2946 14.6782 24.5637 15.0018 24.5637C15.3254 24.5637 15.5877 24.2946 15.5877 23.9626C15.5877 23.6306 15.3253 23.3615 15.0017 23.3615Z" fill="black"/>
<path d="M14.9772 18.7814C15.4125 18.7814 15.8187 18.5409 16.0374 18.1537C16.1996 17.8664 16.1042 17.4986 15.8241 17.3322C15.544 17.1657 15.1856 17.2638 15.0234 17.551C15.0186 17.5595 15.0045 17.5792 14.9772 17.5792C14.9499 17.5792 14.9358 17.5595 14.931 17.551C14.7689 17.2638 14.4104 17.1658 14.1303 17.3322C13.8503 17.4986 13.7548 17.8664 13.917 18.1537C14.1357 18.5409 14.5419 18.7814 14.9772 18.7814Z" fill="black"/>
<path d="M12.8748 15.6988C13.2155 15.6988 13.4927 15.4144 13.4927 15.0648C13.4927 14.7153 13.2155 14.4308 12.8748 14.4308C12.534 14.4308 12.2568 14.7152 12.2568 15.0648C12.2568 15.4144 12.534 15.6988 12.8748 15.6988Z" fill="black"/>
<path d="M17.1253 15.6988C17.466 15.6988 17.7433 15.4144 17.7433 15.0648C17.7433 14.7153 17.4661 14.4308 17.1253 14.4308C16.7845 14.4308 16.5073 14.7152 16.5073 15.0648C16.5073 15.4144 16.7845 15.6988 17.1253 15.6988Z" fill="black"/>
</svg>
