<svg width="197" height="72" viewBox="0 0 197 72" fill="none" xmlns="http://www.w3.org/2000/svg">
<path d="M104.621 9.15902C105.828 9.79803 106.591 10.7388 106.911 11.9813C106.201 15.9573 105.562 19.9156 104.994 23.8562C104.426 27.7612 103.876 31.045 103.343 33.7075C102.811 36.3346 102.438 38.3048 102.225 39.6183C102.047 40.9319 101.834 42.2454 101.586 43.5589L101.266 44.6772C101.195 45.0677 101.124 45.4227 101.053 45.7422C100.982 46.0972 100.911 46.4699 100.84 46.8604C99.8463 47.9964 98.4973 48.5644 96.7933 48.5644C94.9828 48.5644 93.545 48.1029 92.48 47.1799C91.841 46.6829 91.7345 45.6357 92.1605 44.0381C92.338 43.3991 92.4445 42.5826 92.48 41.5886C92.551 40.5591 92.622 39.7071 92.693 39.0326V38.9261C91.628 39.3166 90.6695 39.8314 89.8175 40.4704C88.9654 41.0739 88.4329 41.4644 88.2199 41.6419C88.0069 41.7839 87.7229 41.9081 87.3679 42.0146C87.0129 42.0856 86.6934 42.1389 86.4094 42.1744C85.7349 42.2099 85.2734 42.3164 85.0249 42.4939C82.9659 46.1859 81.1199 48.2449 79.4868 48.6709C78.4573 48.9904 77.4278 49.0614 76.3983 48.8839C75.3688 48.7419 74.5523 48.1384 73.9488 47.0734C72.8128 46.0084 73.0968 43.0974 74.8008 38.3403C75.7238 35.8198 77.0373 32.8023 78.7413 29.2877C80.4809 25.7377 82.1494 22.6492 83.7469 20.0221C87.1904 14.3776 90.9712 9.62053 95.0893 5.75098C95.7638 5.46698 96.4915 5.14748 97.2725 4.79248C98.0535 4.40197 98.8168 4.18897 99.5623 4.15347C100.343 4.11797 101.142 4.20672 101.959 4.41972C102.775 4.63272 103.467 4.95223 104.035 5.37823C105.349 6.37224 105.544 7.63251 104.621 9.15902ZM93.2255 23.1639C92.48 25.2939 91.7345 27.2642 90.989 29.0747C90.2435 30.8498 89.6045 32.4118 89.0719 33.7608L93.2787 33.601C93.5627 31.329 93.8822 29.0747 94.2373 26.8382C94.5923 24.6017 94.9295 22.3652 95.249 20.1286L93.2255 23.1639ZM91.7877 33.814C92.2847 33.814 92.7817 33.7785 93.2787 33.7075V33.6543C92.8172 33.6898 92.3912 33.7253 92.0007 33.7608C91.6102 33.7963 91.5392 33.814 91.7877 33.814Z" fill="white"/>
<path d="M115.721 3.46121C116.502 2.5027 117.443 1.97019 118.544 1.86369C119.644 1.75719 120.709 1.9347 121.739 2.3962C122.768 2.8222 123.638 3.49671 124.348 4.41972C125.093 5.30723 125.502 6.30124 125.573 7.40175L125.093 8.94602C125.484 9.40752 125.821 9.78028 126.105 10.0643C126.425 10.3483 126.602 10.792 126.638 11.3955C126.851 11.8925 125.963 13.8628 123.975 17.3064C123.159 18.7264 122.289 20.2174 121.366 21.7794C120.478 23.3059 119.751 24.6727 119.183 25.8797C119.609 25.7732 120.035 25.6844 120.461 25.6134C120.887 25.5424 121.313 25.4537 121.739 25.3472C124.366 24.6727 126.141 24.3354 127.064 24.3354C127.987 24.2999 128.75 24.3887 129.353 24.6017C130.987 25.2407 131.839 26.2347 131.91 27.5837C131.413 28.7552 129.549 30.3883 126.318 32.4828C125.573 32.9443 124.969 33.3348 124.508 33.6543L119.875 36.9558C119.626 37.3463 119.449 37.7191 119.342 38.0741V38.1273C119.413 38.3048 119.857 38.5533 120.674 38.8728C121.526 39.1923 122.253 39.4763 122.857 39.7248C124.277 40.3639 125.537 41.2336 126.638 42.3341C126.993 42.7246 127.223 43.3104 127.33 44.0914C127.436 44.8369 127.312 45.5292 126.957 46.1682C126.638 46.8072 126.052 47.2687 125.2 47.5527C124.348 47.8367 123.159 47.7124 121.632 47.1799C119.396 46.1859 116.751 43.9671 113.698 40.5236C113.343 41.7661 112.988 42.9909 112.633 44.1979C112.313 45.3694 111.958 46.5764 111.568 47.8189C111.035 49.0259 109.793 49.594 107.84 49.523C107.059 49.523 106.349 49.3632 105.71 49.0437C105.107 48.7242 104.752 48.2982 104.645 47.7657C104.361 46.9847 104.219 46.3989 104.219 46.0084C104.219 45.6534 104.308 45.2274 104.485 44.7304C105.302 42.6714 105.817 41.0384 106.03 39.8313C106.243 38.5888 106.385 37.8611 106.456 37.6481C105.462 37.0091 104.876 35.9973 104.698 34.6128C104.485 33.2638 104.805 32.0568 105.657 30.9918C106.793 30.5657 107.61 30.2462 108.107 30.0332C108.32 28.6842 108.675 27.2287 109.172 25.6667C110.059 22.8622 110.734 20.4304 111.195 18.3714C111.692 16.3123 112.384 13.9871 113.272 11.3955C114.195 8.76852 115.011 6.12374 115.721 3.46121Z" fill="white"/>
<path d="M137.585 22.2054C138.047 21.0339 139.147 20.2351 140.887 19.8091C142.52 19.3831 144.046 19.4364 145.466 19.9689C146.922 20.5369 147.579 21.4599 147.437 22.7379C147.046 23.9804 146.549 25.5069 145.946 27.3175C145.378 29.0925 144.827 30.9208 144.295 32.8023C142.875 37.6303 142.058 41.0384 141.845 43.0264C141.313 46.2214 140.425 47.9432 139.183 48.1917C138.828 48.2627 138.491 48.3159 138.171 48.3514C137.39 48.3869 136.893 48.5999 136.68 48.9904C136.467 49.381 136.112 49.665 135.615 49.8425C135.118 50.0555 134.568 50.1442 133.964 50.1087C133.396 50.1087 132.81 49.9667 132.207 49.6827C131.603 49.4342 131.089 49.0614 130.663 48.5644C129.669 47.3574 129.473 45.7422 130.077 43.7186C130.645 39.8491 132.083 34.9323 134.39 28.9682C135.491 26.0217 136.556 23.7674 137.585 22.2054ZM147.65 14.2178C145.91 14.5728 144.49 14.4663 143.39 13.8983C142.325 13.3303 141.703 12.6558 141.526 11.8748C141.348 11.0583 141.597 10.224 142.271 9.37202C143.052 8.30701 144.224 7.61475 145.786 7.29525C146.496 7.22425 147.011 7.18875 147.33 7.18875C147.65 7.18875 148.04 7.25975 148.502 7.40175C149.673 7.50826 150.436 8.02301 150.791 8.94602C151.288 9.72703 151.324 10.6145 150.898 11.6085C150.507 12.6026 149.425 13.4723 147.65 14.2178Z" fill="white"/>
<path d="M153.203 23.2172C153.7 21.9392 154.392 20.9806 155.28 20.3416C156.203 19.6671 157.073 19.2589 157.889 19.1169C158.741 18.9394 159.433 19.0281 159.966 19.3831C160.534 19.7381 160.729 20.2884 160.552 21.0339C161.226 20.3594 162.202 19.7381 163.48 19.1701C164.758 18.6021 165.77 18.2116 166.516 17.9986C167.261 17.7856 167.9 17.6791 168.433 17.6791C169.604 17.7501 169.942 18.3891 169.445 19.5961C170.048 19.7026 170.492 20.0931 170.776 20.7676C171.06 21.4422 171.095 22.1877 170.882 23.0042C170.669 23.8207 170.19 24.6194 169.445 25.4004C168.699 26.1815 167.687 26.714 166.409 26.998C165.167 27.282 164.119 27.9387 163.267 28.9682C162.451 29.9622 161.723 31.2048 161.084 32.6958C160.019 35.2163 159.061 38.7841 158.209 43.3991C157.925 45.0677 156.771 46.4699 154.747 47.6059C152.83 48.7064 151.073 49.0259 149.476 48.5644C147.665 48.0674 146.866 46.7362 147.079 44.5706C147.15 43.0441 147.612 41.0206 148.464 38.5001C149.316 35.9441 149.973 34.027 150.434 32.749C150.896 31.4355 151.215 30.4415 151.393 29.767L153.203 23.2172Z" fill="white"/>
<path d="M193.219 22.4184L193.432 22.4717C193.503 22.4717 193.538 22.4894 193.538 22.5249C194.461 22.1699 195.225 22.4362 195.828 23.3237C196.219 23.9272 196.52 24.8502 196.733 26.0927C196.804 27.7967 196.627 30.1575 196.201 33.175C195.384 39.2811 194.941 42.9199 194.87 44.0914C194.941 45.3339 194.177 46.1859 192.58 46.6474C191.195 47.0734 189.811 47.0557 188.426 46.5942C186.971 46.0972 186.367 45.3339 186.616 44.3044C186.332 44.8369 186.048 45.2097 185.764 45.4227C185.48 45.6712 184.912 45.9907 184.06 46.3812C183.243 46.8072 182.072 47.1444 180.545 47.3929C179.019 47.6769 177.492 47.7479 175.966 47.6059C174.439 47.4994 173.037 47.1267 171.759 46.4877C170.516 45.8842 169.682 44.9257 169.256 43.6121C168.44 41.0561 168.546 37.8078 169.576 33.8673C170.286 31.2758 171.564 28.986 173.41 26.998C175.54 24.7259 177.954 22.8444 180.652 21.3534C182.675 20.2529 184.628 19.5961 186.509 19.3831C187.148 19.3121 187.699 19.3299 188.16 19.4364C188.657 19.5429 189.172 19.6494 189.704 19.7559C190.272 19.8624 190.805 20.0221 191.302 20.2351C192.58 20.7676 193.219 21.4954 193.219 22.4184ZM183.367 36.5298C183.616 36.0328 183.811 35.4116 183.953 34.666C184.131 33.9205 184.361 33.104 184.645 32.2165C181.77 33.388 179.569 34.8258 178.042 36.5298C176.374 38.4113 176.48 39.7071 178.362 40.4171C179.995 40.8431 181.184 40.5769 181.93 39.6183C182.249 39.1923 182.533 38.6598 182.782 38.0208C183.03 37.3818 183.332 36.7251 183.687 36.0506C183.58 36.2281 183.474 36.3878 183.367 36.5298Z" fill="white"/>
<path d="M94.55 60.0346V65.16H101.297V66.3528H94.55V71.8882H93.1708V58.8418H102.117V60.0346H94.55Z" fill="white"/>
<path d="M119.45 72C118.158 72 116.984 71.7142 115.928 71.1427C114.884 70.5587 114.064 69.7635 113.468 68.7571C112.884 67.7506 112.592 66.6199 112.592 65.365C112.592 64.1101 112.884 62.9794 113.468 61.9729C114.064 60.9665 114.884 60.1775 115.928 59.606C116.984 59.022 118.158 58.73 119.45 58.73C120.743 58.73 121.904 59.0158 122.936 59.5873C123.979 60.1589 124.799 60.9541 125.396 61.9729C125.992 62.9794 126.29 64.1101 126.29 65.365C126.29 66.6199 125.992 67.7568 125.396 68.7757C124.799 69.7821 123.979 70.5711 122.936 71.1427C121.904 71.7142 120.743 72 119.45 72ZM119.45 70.7699C120.482 70.7699 121.414 70.5401 122.246 70.0803C123.079 69.6082 123.731 68.9621 124.203 68.142C124.675 67.3095 124.911 66.3839 124.911 65.365C124.911 64.3461 124.675 63.4267 124.203 62.6066C123.731 61.7741 123.079 61.128 122.246 60.6683C121.414 60.1961 120.482 59.9601 119.45 59.9601C118.419 59.9601 117.481 60.1961 116.636 60.6683C115.804 61.128 115.145 61.7741 114.661 62.6066C114.188 63.4267 113.952 64.3461 113.952 65.365C113.952 66.3839 114.188 67.3095 114.661 68.142C115.145 68.9621 115.804 69.6082 116.636 70.0803C117.481 70.5401 118.419 70.7699 119.45 70.7699Z" fill="white"/>
<path d="M144.031 72C142.739 72 141.565 71.7142 140.509 71.1427C139.465 70.5587 138.645 69.7635 138.048 68.7571C137.464 67.7506 137.172 66.6199 137.172 65.365C137.172 64.1101 137.464 62.9794 138.048 61.9729C138.645 60.9665 139.465 60.1775 140.509 59.606C141.565 59.022 142.739 58.73 144.031 58.73C145.323 58.73 146.485 59.0158 147.516 59.5873C148.56 60.1589 149.38 60.9541 149.976 61.9729C150.573 62.9794 150.871 64.1101 150.871 65.365C150.871 66.6199 150.573 67.7568 149.976 68.7757C149.38 69.7821 148.56 70.5711 147.516 71.1427C146.485 71.7142 145.323 72 144.031 72ZM144.031 70.7699C145.062 70.7699 145.994 70.5401 146.827 70.0803C147.659 69.6082 148.312 68.9621 148.784 68.142C149.256 67.3095 149.492 66.3839 149.492 65.365C149.492 64.3461 149.256 63.4267 148.784 62.6066C148.312 61.7741 147.659 61.128 146.827 60.6683C145.994 60.1961 145.062 59.9601 144.031 59.9601C143 59.9601 142.062 60.1961 141.217 60.6683C140.384 61.128 139.726 61.7741 139.241 62.6066C138.769 63.4267 138.533 64.3461 138.533 65.365C138.533 66.3839 138.769 67.3095 139.241 68.142C139.726 68.9621 140.384 69.6082 141.217 70.0803C142.062 70.5401 143 70.7699 144.031 70.7699Z" fill="white"/>
<path d="M162.909 58.8418H168.22C169.599 58.8418 170.817 59.1214 171.873 59.6805C172.929 60.2272 173.749 60.9976 174.333 61.9916C174.917 62.9732 175.209 64.0976 175.209 65.365C175.209 66.6324 174.917 67.7631 174.333 68.7571C173.749 69.7386 172.929 70.509 171.873 71.0681C170.817 71.6148 169.599 71.8882 168.22 71.8882H162.909V58.8418ZM168.146 70.6954C169.289 70.6954 170.289 70.4717 171.146 70.0244C172.004 69.5647 172.668 68.9372 173.141 68.142C173.613 67.3344 173.849 66.4087 173.849 65.365C173.849 64.3213 173.613 63.4018 173.141 62.6066C172.668 61.799 172.004 61.1715 171.146 60.7242C170.289 60.2645 169.289 60.0346 168.146 60.0346H164.288V70.6954H168.146Z" fill="white"/>
<path fill-rule="evenodd" clip-rule="evenodd" d="M57.8602 8.63586C55.1909 4.19368 49.9724 1.64263 43.5424 1.64263C38.9452 1.64263 34.8291 3.66158 31.4547 6.21607C28.4456 2.88357 22.6331 -0.157546 16.4243 0.00633431C12.4156 0.109524 6.72899 1.59449 2.40066 8.08572C0.175018 11.4292 -0.508419 14.9631 0.372616 18.5844C2.03808 25.439 9.01108 30.5326 11.942 32.4112V45.4388H11.1902C9.87922 45.4388 8.8165 46.5015 8.8165 47.8124C8.8165 49.1234 9.87922 50.1861 11.1902 50.1861H50.5252C51.8362 50.1861 52.8989 49.1234 52.8989 47.8124C52.8989 46.5015 51.8362 45.4388 50.5252 45.4388H50.0891V31.125C53.1119 29.6082 55.6554 27.5182 57.1752 24.6612C60.2946 18.7877 60.5387 13.0954 57.8602 8.63586ZM45.0982 45.4388H16.7668V30.1119C16.5581 29.5726 16.1847 29.1024 15.6645 28.8128C15.577 28.7645 6.78921 23.803 5.23853 17.3919C4.69922 15.1589 5.13566 13.0225 6.57232 10.8679C9.09122 7.09083 12.4476 5.12286 16.5546 5.01637C21.0269 4.91162 25.5384 7.1382 27.7048 9.5296C24.2884 12.9852 22.2249 16.3306 22.0508 16.6202C21.3347 17.8009 21.7102 19.3406 22.8926 20.0584C24.0751 20.7762 25.6148 20.4037 26.3354 19.2202C26.411 19.0954 34.1057 6.65785 43.5441 6.65785C48.1702 6.65785 51.8236 8.32237 53.5654 11.2203C55.3018 14.112 55.0121 18.0486 52.7473 22.3104C51.3788 24.8868 48.5292 26.6423 45.0982 27.8257V45.4388ZM22.0412 55.6117C23.3522 55.6117 24.4149 54.549 24.4149 53.2381C24.4149 51.9271 23.3522 50.8644 22.0412 50.8644C20.7303 50.8644 19.6676 51.9271 19.6676 53.2381C19.6676 54.549 20.7303 55.6117 22.0412 55.6117ZM42.0479 53.2381C42.0479 54.549 40.9851 55.6117 39.6742 55.6117C38.3633 55.6117 37.3005 54.549 37.3005 53.2381C37.3005 51.9271 38.3633 50.8644 39.6742 50.8644C40.9851 50.8644 42.0479 51.9271 42.0479 53.2381ZM43.3896 60.9343C44.4559 62.8958 47.4033 67.6998 50.7146 67.6998C51.0917 67.6998 51.42 67.9527 51.5167 68.3155C51.6106 68.6752 51.4427 69.0556 51.1129 69.2345L51.1051 69.2386C50.8109 69.3933 46.0643 71.8883 40.7383 71.8883H40.7368C37.0821 71.8883 34.0509 70.7202 31.7177 68.4144C31.6987 68.395 31.68 68.3758 31.664 68.3555C31.3667 68.064 31.0976 67.7474 30.8571 67.4064C30.6181 67.7474 30.3471 68.064 30.051 68.357C30.0466 68.3619 30.0422 68.3668 30.0378 68.3718C30.0253 68.3858 30.0126 68.4 29.9976 68.4144C27.6654 70.7199 24.6308 71.8883 20.9792 71.8883C15.5978 71.8883 10.8077 69.3431 10.6037 69.2347L10.6034 69.2345C10.2714 69.0544 10.1048 68.6786 10.199 68.3155C10.2917 67.9545 10.6194 67.701 10.9971 67.701C14.3087 67.701 17.258 62.8983 18.3715 60.8321C18.543 60.3416 18.7952 59.8351 19.099 59.3925C20.4331 57.4486 22.6447 56.2899 25.0165 56.2899C27.3801 56.2899 29.5392 57.4279 30.8568 59.2879C32.1746 57.4279 34.3341 56.2899 36.6973 56.2899C39.0661 56.2899 41.2789 57.4489 42.613 59.3895C42.9122 59.829 43.1656 60.3355 43.3896 60.9343Z" fill="white"/>
</svg>
