<svg width="132" height="48" viewBox="0 0 132 48" fill="none" xmlns="http://www.w3.org/2000/svg">
<path d="M69.7473 6.10599C70.552 6.53199 71.0608 7.15917 71.2738 7.98751C70.8005 10.6382 70.3745 13.2771 69.9958 15.9041C69.6172 18.5074 69.2503 20.6966 68.8953 22.4716C68.5403 24.223 68.2918 25.5365 68.1498 26.4122C68.0315 27.2879 67.8895 28.1635 67.7238 29.0392L67.5108 29.7847C67.4635 30.045 67.4161 30.2817 67.3688 30.4947C67.3215 30.7314 67.2741 30.9799 67.2268 31.2402C66.5641 31.9976 65.6648 32.3762 64.5288 32.3762C63.3218 32.3762 62.3633 32.0686 61.6532 31.4532C61.2272 31.1219 61.1562 30.4237 61.4402 29.3587C61.5586 28.9327 61.6296 28.3884 61.6532 27.7257C61.7006 27.0394 61.7479 26.4713 61.7952 26.0217V25.9507C61.0852 26.211 60.4462 26.5542 59.8782 26.9802C59.3102 27.3825 58.9552 27.6429 58.8132 27.7612C58.6712 27.8559 58.4819 27.9387 58.2452 28.0097C58.0085 28.057 57.7955 28.0925 57.6062 28.1162C57.1565 28.1399 56.8489 28.2109 56.6832 28.3292C55.3105 30.7906 54.0798 32.1632 52.9912 32.4472C52.3048 32.6602 51.6185 32.7076 50.9321 32.5892C50.2458 32.4946 49.7015 32.0922 49.2991 31.3822C48.5418 30.6722 48.7311 28.7315 49.8671 25.5602C50.4825 23.8798 51.3582 21.8681 52.4942 19.5251C53.6538 17.1584 54.7662 15.0994 55.8312 13.3481C58.1269 9.58502 60.6474 6.41366 63.3928 3.83397C63.8424 3.64463 64.3276 3.43163 64.8483 3.19496C65.3689 2.93463 65.8778 2.79262 66.3748 2.76896C66.8955 2.74529 67.428 2.80446 67.9723 2.94646C68.5166 3.08846 68.9781 3.30146 69.3568 3.58546C70.2325 4.24814 70.3627 5.08831 69.7473 6.10599ZM62.1503 15.4426C61.6532 16.8626 61.1562 18.1761 60.6592 19.3831C60.1622 20.5665 59.7362 21.6078 59.3812 22.5071L62.1858 22.4006C62.3751 20.886 62.5881 19.3831 62.8248 17.8921C63.0614 16.4011 63.2863 14.9101 63.4993 13.4191L62.1503 15.4426ZM61.1917 22.5426C61.5231 22.5426 61.8544 22.519 62.1858 22.4716V22.4361C61.8781 22.4598 61.5941 22.4835 61.3337 22.5071C61.0734 22.5308 61.0261 22.5426 61.1917 22.5426Z" fill="#E54658"/>
<path d="M77.1475 2.30745C77.6681 1.66845 78.2953 1.31344 79.029 1.24244C79.7627 1.17144 80.4727 1.28978 81.159 1.59744C81.8454 1.88145 82.4252 2.33112 82.8985 2.94646C83.3955 3.53813 83.6677 4.2008 83.715 4.93448L83.3955 5.96399C83.6559 6.27166 83.8807 6.52016 84.07 6.70949C84.283 6.89883 84.4014 7.19466 84.425 7.597C84.5671 7.92834 83.9754 9.24185 82.65 11.5375C82.1057 12.4842 81.5259 13.4782 80.9105 14.5196C80.3188 15.5372 79.8337 16.4484 79.455 17.2531C79.739 17.1821 80.023 17.1229 80.307 17.0756C80.591 17.0283 80.875 16.9691 81.159 16.8981C82.9104 16.4484 84.0937 16.2236 84.709 16.2236C85.3244 16.1999 85.8332 16.2591 86.2356 16.4011C87.3242 16.8271 87.8922 17.4898 87.9396 18.3891C87.6082 19.1701 86.3657 20.2588 84.212 21.6551C83.715 21.9628 83.3127 22.2231 83.005 22.4361L79.9165 24.6372C79.7508 24.8975 79.6325 25.146 79.5615 25.3827V25.4182C79.6088 25.5365 79.9047 25.7022 80.449 25.9152C81.017 26.1282 81.5022 26.3175 81.9045 26.4832C82.8512 26.9092 83.6914 27.489 84.425 28.2227C84.6617 28.483 84.8156 28.8735 84.8866 29.3942C84.9576 29.8912 84.8747 30.3527 84.638 30.7787C84.425 31.2047 84.0345 31.5124 83.4665 31.7017C82.8985 31.8911 82.1057 31.8082 81.088 31.4532C79.597 30.7906 77.8338 29.3114 75.7985 27.0157C75.5618 27.844 75.3251 28.6605 75.0885 29.4652C74.8755 30.2462 74.6388 31.0509 74.3785 31.8792C74.0234 32.6839 73.1951 33.0626 71.8934 33.0152C71.3728 33.0152 70.8994 32.9087 70.4734 32.6957C70.0711 32.4827 69.8344 32.1987 69.7634 31.8437C69.5741 31.3231 69.4794 30.9326 69.4794 30.6722C69.4794 30.4356 69.5386 30.1515 69.6569 29.8202C70.2012 28.4475 70.5444 27.3589 70.6864 26.5542C70.8284 25.7258 70.9231 25.2407 70.9704 25.0987C70.3077 24.6727 69.9172 23.9982 69.7989 23.0751C69.6569 22.1758 69.8699 21.3711 70.4379 20.6611C71.1953 20.3771 71.7396 20.1641 72.0709 20.0221C72.2129 19.1228 72.4496 18.1524 72.7809 17.1111C73.3726 15.2414 73.8223 13.6202 74.1299 12.2475C74.4613 10.8749 74.9228 9.32468 75.5145 7.597C76.1298 5.84565 76.6741 4.08247 77.1475 2.30745Z" fill="#E54658"/>
<path d="M91.7234 14.8036C92.0311 14.0226 92.7648 13.4901 93.9244 13.2061C95.0131 12.9221 96.0308 12.9576 96.9775 13.3126C97.9478 13.6912 98.3856 14.3066 98.291 15.1586C98.0306 15.9869 97.6993 17.0046 97.297 18.2116C96.9183 19.3949 96.5515 20.6138 96.1965 21.8681C95.2498 25.0868 94.7054 27.3589 94.5634 28.6842C94.2084 30.8142 93.6168 31.9621 92.7884 32.1277C92.5518 32.1751 92.3269 32.2106 92.1139 32.2342C91.5933 32.2579 91.2619 32.3999 91.1199 32.6602C90.9779 32.9206 90.7412 33.1099 90.4099 33.2282C90.0786 33.3702 89.7117 33.4294 89.3094 33.4057C88.9307 33.4057 88.5402 33.3111 88.1379 33.1217C87.7355 32.9561 87.3924 32.7076 87.1084 32.3762C86.4457 31.5716 86.3155 30.4947 86.7179 29.1457C87.0965 26.566 88.055 23.2881 89.5934 19.3121C90.3271 17.3478 91.0371 15.8449 91.7234 14.8036ZM98.433 9.47852C97.2733 9.71519 96.3266 9.64419 95.593 9.26552C94.8829 8.88685 94.4688 8.43718 94.3504 7.9165C94.2321 7.37217 94.3978 6.81599 94.8474 6.24799C95.3681 5.53798 96.1491 5.07648 97.1905 4.86348C97.6638 4.81614 98.007 4.79247 98.22 4.79247C98.433 4.79247 98.6933 4.83981 99.001 4.93448C99.782 5.00548 100.291 5.34865 100.528 5.96399C100.859 6.48466 100.883 7.07633 100.598 7.739C100.338 8.40168 99.6163 8.98152 98.433 9.47852Z" fill="#E54658"/>
<path d="M102.135 15.4781C102.467 14.6261 102.928 13.9871 103.52 13.5611C104.135 13.1114 104.715 12.8392 105.259 12.7445C105.827 12.6262 106.289 12.6854 106.644 12.9221C107.022 13.1587 107.153 13.5256 107.034 14.0226C107.484 13.5729 108.135 13.1587 108.987 12.7801C109.839 12.4014 110.513 12.141 111.01 11.999C111.507 11.857 111.933 11.786 112.288 11.786C113.069 11.8334 113.294 12.2594 112.963 13.0641C113.365 13.1351 113.661 13.3954 113.85 13.8451C114.04 14.2947 114.063 14.7917 113.921 15.3361C113.779 15.8804 113.46 16.4129 112.963 16.9336C112.466 17.4543 111.791 17.8093 110.939 17.9986C110.111 18.1879 109.413 18.6258 108.845 19.3121C108.3 19.9748 107.815 20.8031 107.389 21.7971C106.679 23.4775 106.04 25.856 105.472 28.9327C105.283 30.045 104.514 30.9799 103.165 31.7372C101.887 32.4709 100.715 32.6839 99.6503 32.3762C98.4432 32.0449 97.9107 31.1574 98.0527 29.7137C98.1001 28.696 98.4077 27.347 98.9757 25.6667C99.5438 23.9627 99.9816 22.6846 100.289 21.8326C100.597 20.957 100.81 20.2943 100.928 19.8446L102.135 15.4781Z" fill="#E54658"/>
<path d="M128.812 14.9456L128.954 14.9811C129.002 14.9811 129.025 14.9929 129.025 15.0166C129.641 14.7799 130.15 14.9574 130.552 15.5491C130.812 15.9514 131.013 16.5668 131.155 17.3951C131.203 18.5311 131.084 20.105 130.8 22.1166C130.256 26.1873 129.96 28.6132 129.913 29.3942C129.96 30.2225 129.451 30.7906 128.386 31.0982C127.463 31.3822 126.54 31.3704 125.617 31.0627C124.647 30.7314 124.245 30.2225 124.41 29.5362C124.221 29.8912 124.032 30.1397 123.842 30.2817C123.653 30.4474 123.274 30.6604 122.706 30.9207C122.162 31.2047 121.381 31.4296 120.363 31.5952C119.346 31.7846 118.328 31.8319 117.31 31.7372C116.293 31.6662 115.358 31.4177 114.506 30.9917C113.677 30.5894 113.121 29.9504 112.837 29.0747C112.293 27.3707 112.364 25.2052 113.05 22.5781C113.524 20.8505 114.376 19.3239 115.606 17.9986C117.026 16.4839 118.636 15.2296 120.434 14.2356C121.783 13.5019 123.085 13.0641 124.339 12.9221C124.765 12.8747 125.132 12.8866 125.44 12.9576C125.771 13.0286 126.114 13.0996 126.469 13.1706C126.848 13.2416 127.203 13.3481 127.534 13.4901C128.386 13.8451 128.812 14.3302 128.812 14.9456ZM122.245 24.3532C122.41 24.0218 122.541 23.6077 122.635 23.1106C122.754 22.6136 122.907 22.0693 123.097 21.4776C121.18 22.2586 119.712 23.2171 118.695 24.3532C117.582 25.6075 117.653 26.4713 118.908 26.9447C119.996 27.2287 120.789 27.0512 121.286 26.4122C121.499 26.1282 121.689 25.7732 121.854 25.3472C122.02 24.9212 122.221 24.4833 122.458 24.0337C122.387 24.152 122.316 24.2585 122.245 24.3532Z" fill="#E54658"/>
<path d="M63.0333 40.023V43.4399H67.5312V44.2351H63.0333V47.9254H62.1138V39.2278H68.0779V40.023H63.0333Z" fill="#E54658"/>
<path d="M79.6335 47.9999C78.772 47.9999 77.9892 47.8094 77.2852 47.4284C76.5894 47.0391 76.0426 46.5089 75.645 45.838C75.2557 45.167 75.0611 44.4132 75.0611 43.5766C75.0611 42.74 75.2557 41.9862 75.645 41.3152C76.0426 40.6443 76.5894 40.1183 77.2852 39.7372C77.9892 39.3479 78.772 39.1533 79.6335 39.1533C80.495 39.1533 81.2695 39.3438 81.957 39.7248C82.6528 40.1059 83.1995 40.636 83.5971 41.3152C83.9947 41.9862 84.1935 42.74 84.1935 43.5766C84.1935 44.4132 83.9947 45.1712 83.5971 45.8504C83.1995 46.5214 82.6528 47.0473 81.957 47.4284C81.2695 47.8094 80.495 47.9999 79.6335 47.9999ZM79.6335 47.1799C80.321 47.1799 80.9423 47.0266 81.4973 46.7202C82.0523 46.4054 82.4871 45.9746 82.8019 45.4279C83.1167 44.873 83.2741 44.2558 83.2741 43.5766C83.2741 42.8974 83.1167 42.2844 82.8019 41.7377C82.4871 41.1827 82.0523 40.752 81.4973 40.4455C80.9423 40.1307 80.321 39.9733 79.6335 39.9733C78.946 39.9733 78.3206 40.1307 77.7573 40.4455C77.2023 40.752 76.7633 41.1827 76.4402 41.7377C76.1255 42.2844 75.9681 42.8974 75.9681 43.5766C75.9681 44.2558 76.1255 44.873 76.4402 45.4279C76.7633 45.9746 77.2023 46.4054 77.7573 46.7202C78.3206 47.0266 78.946 47.1799 79.6335 47.1799Z" fill="#E54658"/>
<path d="M96.0206 47.9999C95.1591 47.9999 94.3763 47.8094 93.6722 47.4284C92.9764 47.0391 92.4297 46.5089 92.0321 45.838C91.6428 45.167 91.4481 44.4132 91.4481 43.5766C91.4481 42.74 91.6428 41.9862 92.0321 41.3152C92.4297 40.6443 92.9764 40.1183 93.6722 39.7372C94.3763 39.3479 95.1591 39.1533 96.0206 39.1533C96.8821 39.1533 97.6566 39.3438 98.3441 39.7248C99.0399 40.1059 99.5866 40.636 99.9842 41.3152C100.382 41.9862 100.581 42.74 100.581 43.5766C100.581 44.4132 100.382 45.1712 99.9842 45.8504C99.5866 46.5214 99.0399 47.0473 98.3441 47.4284C97.6566 47.8094 96.8821 47.9999 96.0206 47.9999ZM96.0206 47.1799C96.7081 47.1799 97.3294 47.0266 97.8844 46.7202C98.4393 46.4054 98.8742 45.9746 99.189 45.4279C99.5038 44.873 99.6611 44.2558 99.6611 43.5766C99.6611 42.8974 99.5038 42.2844 99.189 41.7377C98.8742 41.1827 98.4393 40.752 97.8844 40.4455C97.3294 40.1307 96.7081 39.9733 96.0206 39.9733C95.3331 39.9733 94.7077 40.1307 94.1444 40.4455C93.5894 40.752 93.1504 41.1827 92.8273 41.7377C92.5126 42.2844 92.3552 42.8974 92.3552 43.5766C92.3552 44.2558 92.5126 44.873 92.8273 45.4279C93.1504 45.9746 93.5894 46.4054 94.1444 46.7202C94.7077 47.0266 95.3331 47.1799 96.0206 47.1799Z" fill="#E54658"/>
<path d="M108.606 39.2278H112.147C113.066 39.2278 113.878 39.4142 114.582 39.7869C115.286 40.1514 115.833 40.665 116.222 41.3277C116.611 41.982 116.806 42.7317 116.806 43.5766C116.806 44.4215 116.611 45.1753 116.222 45.838C115.833 46.4924 115.286 47.0059 114.582 47.3787C113.878 47.7432 113.066 47.9254 112.147 47.9254H108.606V39.2278ZM112.097 47.1302C112.859 47.1302 113.526 46.9811 114.097 46.6829C114.669 46.3764 115.112 45.9581 115.427 45.4279C115.742 44.8895 115.899 44.2724 115.899 43.5766C115.899 42.8808 115.742 42.2678 115.427 41.7377C115.112 41.1993 114.669 40.7809 114.097 40.4827C113.526 40.1763 112.859 40.023 112.097 40.023H109.525V47.1302H112.097Z" fill="#E54658"/>
<path fill-rule="evenodd" clip-rule="evenodd" d="M38.5734 5.75723C36.7939 2.79578 33.3149 1.09509 29.0282 1.09509C25.9635 1.09509 23.2194 2.44105 20.9698 4.14404C18.9637 1.92238 15.0887 -0.105031 10.9495 0.00422287C8.27703 0.073016 4.48598 1.06299 1.60044 5.39048C0.116678 7.61946 -0.338945 9.97536 0.24841 12.3896C1.35872 16.9593 6.00738 20.3551 7.96129 21.6075V30.2924H7.46008C6.58613 30.2924 5.87764 31.0009 5.87764 31.8749C5.87764 32.7488 6.58612 33.4573 7.46008 33.4573H33.6834C34.5574 33.4573 35.2659 32.7488 35.2659 31.8749C35.2659 31.0009 34.5574 30.2924 33.6834 30.2924H33.3927V20.75C35.4079 19.7388 37.1036 18.3454 38.1167 16.4408C40.1963 12.5251 40.3591 8.73029 38.5734 5.75723ZM30.0654 30.2924H11.1778V20.0746C11.0387 19.715 10.7898 19.4016 10.443 19.2085C10.3846 19.1763 4.52613 15.8687 3.49235 11.5946C3.13281 10.1059 3.42377 8.68167 4.38154 7.24528C6.0608 4.72722 8.29836 3.41523 11.0364 3.34425C14.0179 3.27441 17.0256 4.75879 18.4698 6.35306C16.1922 8.65679 14.8166 10.887 14.7005 11.0801C14.2231 11.8673 14.4734 12.8937 15.2617 13.3723C16.05 13.8508 17.0765 13.6025 17.5569 12.8134C17.6073 12.7302 22.7371 4.43856 29.0294 4.43856C32.1134 4.43856 34.549 5.54824 35.7102 7.4802C36.8678 9.40797 36.6747 12.0324 35.1648 14.8736C34.2525 16.5912 32.3528 17.7615 30.0654 18.5505V30.2924ZM14.6941 37.0744C15.5681 37.0744 16.2766 36.3659 16.2766 35.492C16.2766 34.618 15.5681 33.9095 14.6941 33.9095C13.8202 33.9095 13.1117 34.618 13.1117 35.492C13.1117 36.3659 13.8202 37.0744 14.6941 37.0744ZM28.0319 35.492C28.0319 36.3659 27.3234 37.0744 26.4494 37.0744C25.5754 37.0744 24.867 36.3659 24.867 35.492C24.867 34.618 25.5754 33.9095 26.4494 33.9095C27.3234 33.9095 28.0319 34.618 28.0319 35.492ZM28.9264 40.6228C29.6372 41.9305 31.6021 45.1331 33.8097 45.1331C34.0611 45.1331 34.28 45.3017 34.3444 45.5436C34.407 45.7834 34.2951 46.037 34.0752 46.1563L34.07 46.159C33.8739 46.2621 30.7095 47.9254 27.1588 47.9254H27.1578C24.7213 47.9254 22.7006 47.1467 21.1451 45.6095C21.1324 45.5966 21.12 45.5838 21.1093 45.5703C20.9111 45.376 20.7317 45.1648 20.5714 44.9376C20.412 45.1648 20.2314 45.376 20.034 45.5713C20.0309 45.5747 20.0278 45.5781 20.0248 45.5815C20.0166 45.5907 20.0082 45.6001 19.9984 45.6095C18.4436 47.1465 16.4205 47.9254 13.9861 47.9254C10.3984 47.9254 7.20487 46.2285 7.06908 46.1564L7.06893 46.1563C6.8476 46.0362 6.73653 45.7856 6.79933 45.5436C6.8611 45.303 7.07957 45.1339 7.33137 45.1339C9.53913 45.1339 11.5053 41.9321 12.2476 40.5546C12.362 40.2277 12.5301 39.89 12.7326 39.5949C13.622 38.299 15.0965 37.5265 16.6777 37.5265C18.2533 37.5265 19.6928 38.2852 20.5711 39.5252C21.4497 38.2852 22.8894 37.5265 24.4648 37.5265C26.044 37.5265 27.5192 38.2992 28.4086 39.5929C28.6081 39.8859 28.777 40.2236 28.9264 40.6228Z" fill="#222222"/>
</svg>
