<svg width="120" height="120" viewBox="0 0 120 120" fill="none" xmlns="http://www.w3.org/2000/svg">
<path fill-rule="evenodd" clip-rule="evenodd" d="M98.9497 21.9328C95.2614 15.7947 88.0506 12.2697 79.1657 12.2697C72.8135 12.2697 67.1259 15.0595 62.4633 18.5892C58.3054 13.9844 50.2738 9.78231 41.6947 10.0088C36.1555 10.1513 28.2979 12.2032 22.3172 21.1726C19.2418 25.7926 18.2975 30.6756 19.5149 35.6795C21.8162 45.151 31.4513 52.1892 35.5011 54.785V72.786H34.1824C32.5255 72.786 31.1824 74.1291 31.1824 75.786V76.3457C31.1824 78.0026 32.5255 79.3457 34.1824 79.3457H89.0943C90.7512 79.3457 92.0943 78.0026 92.0943 76.3457V75.786C92.0943 74.1291 90.7512 72.786 89.0943 72.786H88.2119V53.0077C92.3886 50.9118 95.9032 48.0239 98.0032 44.0762C102.313 35.9603 102.651 28.095 98.9497 21.9328ZM81.3155 72.786H42.1679V51.6078C41.8795 50.8626 41.3635 50.213 40.6448 49.8127C40.5239 49.746 28.3811 42.8904 26.2385 34.0317C25.4933 30.9462 26.0963 27.9942 28.0815 25.017C31.562 19.7979 36.1997 17.0786 41.8747 16.9315C48.0544 16.7867 54.2883 19.8634 57.2817 23.1678C52.561 27.9426 49.7098 32.5651 49.4692 32.9654C48.4798 34.5969 48.9986 36.7244 50.6324 37.7162C52.2663 38.708 54.3938 38.1934 55.3895 36.558C55.494 36.3855 66.1263 19.1996 79.1681 19.1996C85.5604 19.1996 90.6085 21.4996 93.0153 25.5039C95.4146 29.4996 95.0143 34.939 91.8848 40.8279C89.9939 44.388 86.0564 46.8137 81.3155 48.4489V72.786ZM49.4561 86.843C51.2675 86.843 52.736 85.3745 52.736 83.5631C52.736 81.7517 51.2675 80.2832 49.4561 80.2832C47.6447 80.2832 46.1762 81.7517 46.1762 83.5631C46.1762 85.3745 47.6447 86.843 49.4561 86.843ZM77.1007 83.5631C77.1007 85.3745 75.6322 86.843 73.8208 86.843C72.0094 86.843 70.5409 85.3745 70.5409 83.5631C70.5409 81.7517 72.0094 80.2832 73.8208 80.2832C75.6322 80.2832 77.1007 81.7517 77.1007 83.5631ZM78.9547 94.1974C80.428 96.9079 84.5007 103.546 89.0762 103.546C89.5973 103.546 90.0509 103.895 90.1845 104.397C90.3142 104.894 90.0823 105.419 89.6265 105.667L89.6158 105.672C89.2094 105.886 82.6506 109.333 75.2912 109.333H75.289C70.2391 109.333 66.0507 107.719 62.8268 104.533C62.8005 104.506 62.7747 104.48 62.7526 104.452C62.3418 104.049 61.97 103.612 61.6376 103.141C61.3073 103.612 60.9329 104.049 60.5238 104.454C60.5174 104.461 60.5111 104.468 60.5047 104.475C60.4877 104.494 60.4704 104.514 60.45 104.533C57.2274 107.719 53.0343 109.333 47.9886 109.333C40.5524 109.333 33.9333 105.816 33.6519 105.667L33.6516 105.667C33.1928 105.418 32.9626 104.898 33.0928 104.397C33.2208 103.898 33.6736 103.547 34.1955 103.547C38.7715 103.547 42.8467 96.9112 44.3853 94.0562C44.6223 93.3785 44.9708 92.6786 45.3905 92.0671C47.234 89.381 50.2899 87.7799 53.5672 87.7799C56.8331 87.7799 59.8166 89.3525 61.6371 91.9225C63.4581 89.3525 66.442 87.7799 69.7074 87.7799C72.9805 87.7799 76.0382 89.3814 77.8816 92.0629C78.295 92.6702 78.6452 93.3701 78.9547 94.1974Z" fill="#222222"/>
</svg>
